G04 #@! TF.GenerationSoftware,KiCad,Pcbnew,5.99.0-unknown-395602b12a~131~ubuntu20.04.1*
G04 #@! TF.CreationDate,2021-07-15T22:40:44+02:00*
G04 #@! TF.ProjectId,TPS5430,54505335-3433-4302-9e6b-696361645f70,1.0.0*
G04 #@! TF.SameCoordinates,Original*
G04 #@! TF.FileFunction,Copper,L2,Bot*
G04 #@! TF.FilePolarity,Positive*
%FSLAX46Y46*%
G04 Gerber Fmt 4.6, Leading zero omitted, Abs format (unit mm)*
G04 Created by KiCad (PCBNEW 5.99.0-unknown-395602b12a~131~ubuntu20.04.1) date 2021-07-15 22:40:44*
%MOMM*%
%LPD*%
G01*
G04 APERTURE LIST*
G04 #@! TA.AperFunction,ComponentPad*
%ADD10C,0.600000*%
G04 #@! TD*
G04 #@! TA.AperFunction,SMDPad,CuDef*
%ADD11R,2.950000X4.500000*%
G04 #@! TD*
G04 #@! TA.AperFunction,ComponentPad*
%ADD12R,2.400000X2.400000*%
G04 #@! TD*
G04 #@! TA.AperFunction,ComponentPad*
%ADD13C,2.400000*%
G04 #@! TD*
G04 #@! TA.AperFunction,ViaPad*
%ADD14C,0.800000*%
G04 #@! TD*
G04 APERTURE END LIST*
D10*
X176700000Y-85700000D03*
X176700000Y-88100000D03*
D11*
X177300000Y-87500000D03*
D10*
X177900000Y-89300000D03*
X176700000Y-89300000D03*
X177900000Y-86800000D03*
X176700000Y-86800000D03*
X177900000Y-88100000D03*
X177900000Y-85700000D03*
D12*
X196700000Y-87750000D03*
D13*
X196700000Y-84250000D03*
D14*
X163000000Y-77000000D03*
X178000000Y-77000000D03*
X192000000Y-87000000D03*
X195000000Y-92000000D03*
X157000000Y-95000000D03*
X160000000Y-91000000D03*
X160000000Y-77000000D03*
X166000000Y-95000000D03*
X192000000Y-89000000D03*
X148000000Y-82000000D03*
X172000000Y-80000000D03*
X193200000Y-79100000D03*
X186000000Y-87000000D03*
X198000000Y-92000000D03*
X163000000Y-95000000D03*
X176500000Y-80000000D03*
X195000000Y-80000000D03*
X177500000Y-90500000D03*
X201000000Y-91500000D03*
X152000000Y-95000000D03*
X162000000Y-93000000D03*
X201000000Y-89000000D03*
X157000000Y-88000000D03*
X172200000Y-91500000D03*
X160000000Y-95000000D03*
X172000000Y-77000000D03*
X181900000Y-77600000D03*
X177000000Y-92000000D03*
X189000000Y-87000000D03*
X169000000Y-95000000D03*
X163000000Y-88000000D03*
X154000000Y-88000000D03*
X154000000Y-91000000D03*
X157000000Y-77000000D03*
X160000000Y-88000000D03*
X195000000Y-95000000D03*
X189000000Y-89000000D03*
X148000000Y-80500000D03*
X148000000Y-85000000D03*
X151500000Y-77000000D03*
X183000000Y-81000000D03*
X152000000Y-93500000D03*
X201000000Y-80500000D03*
X169000000Y-77000000D03*
X181900000Y-79000000D03*
X160000000Y-82000000D03*
X201000000Y-83000000D03*
X167500000Y-80000000D03*
X179500000Y-84000000D03*
X148000000Y-88000000D03*
X198000000Y-80000000D03*
X162000000Y-91000000D03*
X163000000Y-82000000D03*
X192000000Y-95000000D03*
X169800000Y-91500000D03*
X154000000Y-77000000D03*
X186000000Y-89000000D03*
X156000000Y-91000000D03*
X166000000Y-77000000D03*
X175000000Y-77000000D03*
X201000000Y-86000000D03*
X195000000Y-77000000D03*
X163000000Y-85000000D03*
X172100000Y-83700000D03*
X154000000Y-93000000D03*
X154000000Y-82000000D03*
X183000000Y-84000000D03*
X168000000Y-86000000D03*
X169800000Y-83700000D03*
X154000000Y-95000000D03*
X154000000Y-85000000D03*
X160000000Y-93000000D03*
X179500000Y-90500000D03*
X148000000Y-91000000D03*
X192000000Y-92000000D03*
X172000000Y-82000000D03*
X178000000Y-84000000D03*
X197500000Y-95000000D03*
X172000000Y-95000000D03*
X167500000Y-82000000D03*
X151000000Y-88000000D03*
X160000000Y-85000000D03*
X176500000Y-82000000D03*
X167500000Y-83500000D03*
X183000000Y-87000000D03*
X183000000Y-89000000D03*
X197500000Y-77000000D03*
X193200000Y-77500000D03*
X176500000Y-84000000D03*
X181000000Y-77000000D03*
X156000000Y-93000000D03*
G04 #@! TA.AperFunction,Conductor*
G36*
X199982132Y-76255422D02*
G01*
X200000000Y-76258976D01*
X200008628Y-76257260D01*
X200028341Y-76256027D01*
X200243201Y-76271394D01*
X200253647Y-76272896D01*
X200370194Y-76298249D01*
X200486737Y-76323601D01*
X200496867Y-76326576D01*
X200608610Y-76368254D01*
X200720356Y-76409933D01*
X200729955Y-76414316D01*
X200891615Y-76502589D01*
X200939313Y-76528634D01*
X200948195Y-76534342D01*
X201139151Y-76677290D01*
X201147130Y-76684204D01*
X201315796Y-76852870D01*
X201322710Y-76860849D01*
X201465658Y-77051805D01*
X201471365Y-77060686D01*
X201518591Y-77147172D01*
X201585683Y-77270042D01*
X201590067Y-77279644D01*
X201608351Y-77328663D01*
X201673424Y-77503133D01*
X201676399Y-77513263D01*
X201727104Y-77746350D01*
X201728606Y-77756801D01*
X201743973Y-77971658D01*
X201742740Y-77991372D01*
X201741024Y-78000000D01*
X201742446Y-78007149D01*
X201744578Y-78017868D01*
X201746000Y-78032304D01*
X201746000Y-93967696D01*
X201744578Y-93982132D01*
X201741024Y-94000000D01*
X201742446Y-94007147D01*
X201742740Y-94008625D01*
X201743973Y-94028342D01*
X201728606Y-94243199D01*
X201727104Y-94253650D01*
X201676399Y-94486737D01*
X201673424Y-94496867D01*
X201657186Y-94540403D01*
X201596737Y-94702476D01*
X201590069Y-94720353D01*
X201585683Y-94729958D01*
X201471366Y-94939313D01*
X201465658Y-94948195D01*
X201322710Y-95139151D01*
X201315796Y-95147130D01*
X201147130Y-95315796D01*
X201139151Y-95322710D01*
X200948195Y-95465658D01*
X200939314Y-95471365D01*
X200729955Y-95585684D01*
X200720356Y-95590067D01*
X200608610Y-95631747D01*
X200496867Y-95673424D01*
X200486737Y-95676399D01*
X200423171Y-95690227D01*
X200253647Y-95727104D01*
X200243201Y-95728606D01*
X200028341Y-95743973D01*
X200008628Y-95742740D01*
X200000000Y-95741024D01*
X199992851Y-95742446D01*
X199982132Y-95744578D01*
X199967696Y-95746000D01*
X149032304Y-95746000D01*
X149017868Y-95744578D01*
X149007149Y-95742446D01*
X149000000Y-95741024D01*
X148991372Y-95742740D01*
X148971659Y-95743973D01*
X148756799Y-95728606D01*
X148746353Y-95727104D01*
X148576829Y-95690227D01*
X148513263Y-95676399D01*
X148503133Y-95673424D01*
X148391390Y-95631747D01*
X148279644Y-95590067D01*
X148270045Y-95585684D01*
X148060686Y-95471365D01*
X148051805Y-95465658D01*
X147860849Y-95322710D01*
X147852870Y-95315796D01*
X147684204Y-95147130D01*
X147677290Y-95139151D01*
X147534342Y-94948195D01*
X147528634Y-94939313D01*
X147414317Y-94729958D01*
X147409931Y-94720353D01*
X147403264Y-94702476D01*
X147342814Y-94540403D01*
X147326576Y-94496867D01*
X147323601Y-94486737D01*
X147272896Y-94253650D01*
X147271394Y-94243199D01*
X147256027Y-94028342D01*
X147257260Y-94008625D01*
X147257554Y-94007147D01*
X147258976Y-94000000D01*
X147255422Y-93982132D01*
X147254000Y-93967696D01*
X147254000Y-93966793D01*
X147641264Y-93966793D01*
X147654085Y-94189156D01*
X147654749Y-94192103D01*
X147654750Y-94192109D01*
X147675507Y-94284214D01*
X147703052Y-94406439D01*
X147704194Y-94409251D01*
X147742608Y-94503853D01*
X147786849Y-94612807D01*
X147903226Y-94802717D01*
X147905215Y-94805013D01*
X147905217Y-94805016D01*
X148016433Y-94933407D01*
X148049058Y-94971070D01*
X148220428Y-95113344D01*
X148223046Y-95114874D01*
X148223052Y-95114878D01*
X148410108Y-95224184D01*
X148410113Y-95224186D01*
X148412734Y-95225718D01*
X148415573Y-95226802D01*
X148617966Y-95304089D01*
X148617970Y-95304090D01*
X148620811Y-95305175D01*
X148623795Y-95305782D01*
X148623798Y-95305783D01*
X148723860Y-95326141D01*
X148839072Y-95349581D01*
X148924484Y-95352713D01*
X149058615Y-95357632D01*
X149058621Y-95357632D01*
X149061655Y-95357743D01*
X149064667Y-95357357D01*
X149064671Y-95357357D01*
X149175890Y-95343109D01*
X149282582Y-95329441D01*
X149376616Y-95301229D01*
X149493014Y-95266309D01*
X149493019Y-95266307D01*
X149495919Y-95265437D01*
X149695939Y-95167448D01*
X149877269Y-95038107D01*
X149879421Y-95035963D01*
X150032884Y-94883035D01*
X150032887Y-94883032D01*
X150035039Y-94880887D01*
X150062254Y-94843014D01*
X150163240Y-94702476D01*
X150165012Y-94700010D01*
X150263698Y-94500334D01*
X150263800Y-94500000D01*
X195414925Y-94500000D01*
X195433173Y-94673622D01*
X195487121Y-94839656D01*
X195574410Y-94990845D01*
X195577001Y-94993722D01*
X195577002Y-94993724D01*
X195616965Y-95038107D01*
X195691226Y-95120582D01*
X195832462Y-95223196D01*
X195836004Y-95224773D01*
X195988403Y-95292626D01*
X195988406Y-95292627D01*
X195991948Y-95294204D01*
X195995740Y-95295010D01*
X195995743Y-95295011D01*
X196158914Y-95329693D01*
X196162711Y-95330500D01*
X196337289Y-95330500D01*
X196341086Y-95329693D01*
X196504257Y-95295011D01*
X196504260Y-95295010D01*
X196508052Y-95294204D01*
X196511594Y-95292627D01*
X196511597Y-95292626D01*
X196663996Y-95224773D01*
X196667538Y-95223196D01*
X196808774Y-95120582D01*
X196883035Y-95038107D01*
X196922998Y-94993724D01*
X196922999Y-94993722D01*
X196925590Y-94990845D01*
X197012879Y-94839656D01*
X197066827Y-94673622D01*
X197085075Y-94500000D01*
X197066827Y-94326378D01*
X197012879Y-94160344D01*
X196925590Y-94009155D01*
X196901259Y-93982132D01*
X196887448Y-93966793D01*
X198641264Y-93966793D01*
X198654085Y-94189156D01*
X198654749Y-94192103D01*
X198654750Y-94192109D01*
X198675507Y-94284214D01*
X198703052Y-94406439D01*
X198704194Y-94409251D01*
X198742608Y-94503853D01*
X198786849Y-94612807D01*
X198903226Y-94802717D01*
X198905215Y-94805013D01*
X198905217Y-94805016D01*
X199016433Y-94933407D01*
X199049058Y-94971070D01*
X199220428Y-95113344D01*
X199223046Y-95114874D01*
X199223052Y-95114878D01*
X199410108Y-95224184D01*
X199410113Y-95224186D01*
X199412734Y-95225718D01*
X199415573Y-95226802D01*
X199617966Y-95304089D01*
X199617970Y-95304090D01*
X199620811Y-95305175D01*
X199623795Y-95305782D01*
X199623798Y-95305783D01*
X199723860Y-95326141D01*
X199839072Y-95349581D01*
X199924484Y-95352713D01*
X200058615Y-95357632D01*
X200058621Y-95357632D01*
X200061655Y-95357743D01*
X200064667Y-95357357D01*
X200064671Y-95357357D01*
X200175890Y-95343109D01*
X200282582Y-95329441D01*
X200376616Y-95301229D01*
X200493014Y-95266309D01*
X200493019Y-95266307D01*
X200495919Y-95265437D01*
X200695939Y-95167448D01*
X200877269Y-95038107D01*
X200879421Y-95035963D01*
X201032884Y-94883035D01*
X201032887Y-94883032D01*
X201035039Y-94880887D01*
X201062254Y-94843014D01*
X201163240Y-94702476D01*
X201165012Y-94700010D01*
X201263698Y-94500334D01*
X201264752Y-94496867D01*
X201327565Y-94290123D01*
X201328447Y-94287220D01*
X201334243Y-94243199D01*
X201357262Y-94068348D01*
X201357262Y-94068343D01*
X201357519Y-94066394D01*
X201359142Y-94000000D01*
X201357085Y-93974983D01*
X201341141Y-93781042D01*
X201341140Y-93781038D01*
X201340892Y-93778017D01*
X201333439Y-93748343D01*
X201287370Y-93564938D01*
X201286631Y-93561995D01*
X201197817Y-93357736D01*
X201076834Y-93170726D01*
X200926933Y-93005986D01*
X200752138Y-92867942D01*
X200696454Y-92837203D01*
X200559806Y-92761768D01*
X200559801Y-92761766D01*
X200557144Y-92760299D01*
X200501223Y-92740497D01*
X200350043Y-92686961D01*
X200350039Y-92686960D01*
X200347187Y-92685950D01*
X200127907Y-92646890D01*
X199984501Y-92645138D01*
X199908229Y-92644206D01*
X199908228Y-92644206D01*
X199905191Y-92644169D01*
X199810201Y-92658704D01*
X199688026Y-92677399D01*
X199688022Y-92677400D01*
X199685022Y-92677859D01*
X199682133Y-92678803D01*
X199682130Y-92678804D01*
X199476195Y-92746114D01*
X199476191Y-92746116D01*
X199473311Y-92747057D01*
X199275745Y-92849903D01*
X199097630Y-92983636D01*
X199095533Y-92985830D01*
X199095530Y-92985833D01*
X198945844Y-93142470D01*
X198945840Y-93142474D01*
X198943748Y-93144664D01*
X198942038Y-93147171D01*
X198942037Y-93147172D01*
X198925970Y-93170726D01*
X198818233Y-93328663D01*
X198724455Y-93530691D01*
X198664932Y-93745322D01*
X198664609Y-93748341D01*
X198664609Y-93748343D01*
X198661438Y-93778017D01*
X198641264Y-93966793D01*
X196887448Y-93966793D01*
X196811367Y-93882298D01*
X196808774Y-93879418D01*
X196667538Y-93776804D01*
X196590259Y-93742397D01*
X196511597Y-93707374D01*
X196511594Y-93707373D01*
X196508052Y-93705796D01*
X196504260Y-93704990D01*
X196504257Y-93704989D01*
X196341086Y-93670307D01*
X196341085Y-93670307D01*
X196337289Y-93669500D01*
X196162711Y-93669500D01*
X196158915Y-93670307D01*
X196158914Y-93670307D01*
X195995743Y-93704989D01*
X195995740Y-93704990D01*
X195991948Y-93705796D01*
X195988406Y-93707373D01*
X195988403Y-93707374D01*
X195903172Y-93745322D01*
X195832463Y-93776804D01*
X195691226Y-93879418D01*
X195688633Y-93882298D01*
X195598742Y-93982132D01*
X195574410Y-94009155D01*
X195487121Y-94160344D01*
X195433173Y-94326378D01*
X195414925Y-94500000D01*
X150263800Y-94500000D01*
X150264752Y-94496867D01*
X150327565Y-94290123D01*
X150328447Y-94287220D01*
X150334243Y-94243199D01*
X150357262Y-94068348D01*
X150357262Y-94068343D01*
X150357519Y-94066394D01*
X150359142Y-94000000D01*
X150357085Y-93974983D01*
X150341141Y-93781042D01*
X150341140Y-93781038D01*
X150340892Y-93778017D01*
X150333439Y-93748343D01*
X150287370Y-93564938D01*
X150286631Y-93561995D01*
X150197817Y-93357736D01*
X150076834Y-93170726D01*
X149926933Y-93005986D01*
X149752138Y-92867942D01*
X149696454Y-92837203D01*
X149559806Y-92761768D01*
X149559801Y-92761766D01*
X149557144Y-92760299D01*
X149501223Y-92740497D01*
X149350043Y-92686961D01*
X149350039Y-92686960D01*
X149347187Y-92685950D01*
X149127907Y-92646890D01*
X148984501Y-92645138D01*
X148908229Y-92644206D01*
X148908228Y-92644206D01*
X148905191Y-92644169D01*
X148810201Y-92658704D01*
X148688026Y-92677399D01*
X148688022Y-92677400D01*
X148685022Y-92677859D01*
X148682133Y-92678803D01*
X148682130Y-92678804D01*
X148476195Y-92746114D01*
X148476191Y-92746116D01*
X148473311Y-92747057D01*
X148275745Y-92849903D01*
X148097630Y-92983636D01*
X148095533Y-92985830D01*
X148095530Y-92985833D01*
X147945844Y-93142470D01*
X147945840Y-93142474D01*
X147943748Y-93144664D01*
X147942038Y-93147171D01*
X147942037Y-93147172D01*
X147925970Y-93170726D01*
X147818233Y-93328663D01*
X147724455Y-93530691D01*
X147664932Y-93745322D01*
X147664609Y-93748341D01*
X147664609Y-93748343D01*
X147661438Y-93778017D01*
X147641264Y-93966793D01*
X147254000Y-93966793D01*
X147254000Y-88258925D01*
X175566024Y-88258925D01*
X175566024Y-89746360D01*
X175566734Y-89753571D01*
X175584315Y-89841955D01*
X175589787Y-89855167D01*
X175637827Y-89927064D01*
X175647936Y-89937173D01*
X175719833Y-89985213D01*
X175733045Y-89990685D01*
X175821429Y-90008266D01*
X175828640Y-90008976D01*
X176536952Y-90008976D01*
X176546948Y-90005338D01*
X176550000Y-90000051D01*
X176550000Y-89587312D01*
X176542533Y-89566797D01*
X176328062Y-89352326D01*
X176306670Y-89306450D01*
X176319771Y-89257555D01*
X176328062Y-89247674D01*
X176540774Y-89034962D01*
X176550000Y-89015176D01*
X176550000Y-88387312D01*
X176549094Y-88384824D01*
X178050000Y-88384824D01*
X178050000Y-89012688D01*
X178057467Y-89033203D01*
X178271938Y-89247674D01*
X178293330Y-89293550D01*
X178280229Y-89342445D01*
X178271938Y-89352326D01*
X178059226Y-89565038D01*
X178050000Y-89584824D01*
X178050000Y-89995928D01*
X178053638Y-90005924D01*
X178058925Y-90008976D01*
X178771360Y-90008976D01*
X178778571Y-90008266D01*
X178866955Y-89990685D01*
X178880167Y-89985213D01*
X178952064Y-89937173D01*
X178962173Y-89927064D01*
X179010213Y-89855167D01*
X179015685Y-89841955D01*
X179033266Y-89753571D01*
X179033976Y-89746360D01*
X179033976Y-88508925D01*
X195241024Y-88508925D01*
X195241024Y-88946360D01*
X195241734Y-88953571D01*
X195259315Y-89041955D01*
X195264787Y-89055167D01*
X195312827Y-89127064D01*
X195322936Y-89137173D01*
X195394833Y-89185213D01*
X195408045Y-89190685D01*
X195496429Y-89208266D01*
X195503640Y-89208976D01*
X195936952Y-89208976D01*
X195946948Y-89205338D01*
X195950000Y-89200051D01*
X195950000Y-88513048D01*
X195948499Y-88508925D01*
X197450000Y-88508925D01*
X197450000Y-89195928D01*
X197453638Y-89205924D01*
X197458925Y-89208976D01*
X197896360Y-89208976D01*
X197903571Y-89208266D01*
X197991955Y-89190685D01*
X198005167Y-89185213D01*
X198077064Y-89137173D01*
X198087173Y-89127064D01*
X198135213Y-89055167D01*
X198140685Y-89041955D01*
X198158266Y-88953571D01*
X198158976Y-88946360D01*
X198158976Y-88513048D01*
X198155338Y-88503052D01*
X198150051Y-88500000D01*
X197463048Y-88500000D01*
X197453052Y-88503638D01*
X197450000Y-88508925D01*
X195948499Y-88508925D01*
X195946362Y-88503052D01*
X195941075Y-88500000D01*
X195254072Y-88500000D01*
X195244076Y-88503638D01*
X195241024Y-88508925D01*
X179033976Y-88508925D01*
X179033976Y-88263048D01*
X179030338Y-88253052D01*
X179025051Y-88250000D01*
X178187312Y-88250000D01*
X178166797Y-88257467D01*
X178059226Y-88365038D01*
X178050000Y-88384824D01*
X176549094Y-88384824D01*
X176542533Y-88366797D01*
X176434962Y-88259226D01*
X176415176Y-88250000D01*
X175579072Y-88250000D01*
X175569076Y-88253638D01*
X175566024Y-88258925D01*
X147254000Y-88258925D01*
X147254000Y-85985206D01*
X150840501Y-85985206D01*
X150857806Y-86191278D01*
X150914807Y-86390066D01*
X151009334Y-86573995D01*
X151137786Y-86736061D01*
X151140539Y-86738404D01*
X151140542Y-86738407D01*
X151177151Y-86769563D01*
X151295271Y-86870091D01*
X151475789Y-86970980D01*
X151672466Y-87034884D01*
X151744755Y-87043504D01*
X151874209Y-87058941D01*
X151874212Y-87058941D01*
X151877809Y-87059370D01*
X151942375Y-87054402D01*
X152080387Y-87043782D01*
X152080388Y-87043782D01*
X152083998Y-87043504D01*
X152283178Y-86987892D01*
X152314445Y-86972098D01*
X152464529Y-86896286D01*
X152464532Y-86896284D01*
X152467763Y-86894652D01*
X152470612Y-86892426D01*
X152470617Y-86892423D01*
X152627869Y-86769563D01*
X152630722Y-86767334D01*
X152765848Y-86610789D01*
X152767631Y-86607650D01*
X152767634Y-86607646D01*
X152820164Y-86515176D01*
X152867995Y-86430979D01*
X152882615Y-86387031D01*
X152932127Y-86238190D01*
X152932128Y-86238187D01*
X152933270Y-86234753D01*
X152959189Y-86029586D01*
X152959602Y-86000000D01*
X152958506Y-85988817D01*
X152956626Y-85969649D01*
X155240951Y-85969649D01*
X155254829Y-86181377D01*
X155267471Y-86231156D01*
X155288711Y-86314787D01*
X155307058Y-86387031D01*
X155308478Y-86390111D01*
X155391765Y-86570775D01*
X155395890Y-86579723D01*
X155518350Y-86753000D01*
X155670337Y-86901059D01*
X155673156Y-86902943D01*
X155673159Y-86902945D01*
X155843938Y-87017056D01*
X155843943Y-87017059D01*
X155846760Y-87018941D01*
X156041711Y-87102699D01*
X156248662Y-87149527D01*
X156349167Y-87153476D01*
X156457286Y-87157724D01*
X156457290Y-87157724D01*
X156460681Y-87157857D01*
X156526951Y-87148248D01*
X156667305Y-87127898D01*
X156667311Y-87127897D01*
X156670667Y-87127410D01*
X156871589Y-87059207D01*
X156874542Y-87057553D01*
X156874547Y-87057551D01*
X157053755Y-86957189D01*
X157053757Y-86957188D01*
X157056717Y-86955530D01*
X157219852Y-86819852D01*
X157355530Y-86656717D01*
X157398649Y-86579723D01*
X157457551Y-86474547D01*
X157457553Y-86474542D01*
X157459207Y-86471589D01*
X157527410Y-86270667D01*
X157527897Y-86267311D01*
X157527898Y-86267305D01*
X157557544Y-86062840D01*
X157557544Y-86062839D01*
X157557857Y-86060681D01*
X157559446Y-86000000D01*
X157558419Y-85988817D01*
X157551716Y-85915870D01*
X157540031Y-85788708D01*
X157539112Y-85785450D01*
X157539111Y-85785444D01*
X157483357Y-85587757D01*
X157483356Y-85587755D01*
X157482436Y-85584492D01*
X157388590Y-85394191D01*
X157312850Y-85292762D01*
X157283636Y-85253640D01*
X175566024Y-85253640D01*
X175566024Y-86736952D01*
X175569662Y-86746948D01*
X175574949Y-86750000D01*
X176312688Y-86750000D01*
X176333203Y-86742533D01*
X176540774Y-86534962D01*
X176550000Y-86515176D01*
X176550000Y-85987312D01*
X176542533Y-85966797D01*
X176328062Y-85752326D01*
X176306670Y-85706450D01*
X176319771Y-85657555D01*
X176328062Y-85647674D01*
X176540774Y-85434962D01*
X176550000Y-85415176D01*
X176550000Y-85004072D01*
X176548499Y-84999949D01*
X178050000Y-84999949D01*
X178050000Y-85412688D01*
X178057467Y-85433203D01*
X178271938Y-85647674D01*
X178293330Y-85693550D01*
X178280229Y-85742445D01*
X178271938Y-85752326D01*
X178059226Y-85965038D01*
X178050000Y-85984824D01*
X178050000Y-86512688D01*
X178057467Y-86533203D01*
X178265038Y-86740774D01*
X178284824Y-86750000D01*
X179020928Y-86750000D01*
X179030924Y-86746362D01*
X179033976Y-86741075D01*
X179033976Y-86553640D01*
X195241024Y-86553640D01*
X195241024Y-86986952D01*
X195244662Y-86996948D01*
X195249949Y-87000000D01*
X195936952Y-87000000D01*
X195946948Y-86996362D01*
X195950000Y-86991075D01*
X195950000Y-86304072D01*
X195948499Y-86299949D01*
X197450000Y-86299949D01*
X197450000Y-86986952D01*
X197453638Y-86996948D01*
X197458925Y-87000000D01*
X198145928Y-87000000D01*
X198155924Y-86996362D01*
X198158976Y-86991075D01*
X198158976Y-86553640D01*
X198158266Y-86546429D01*
X198140685Y-86458045D01*
X198135213Y-86444833D01*
X198087173Y-86372936D01*
X198077064Y-86362827D01*
X198005167Y-86314787D01*
X197991955Y-86309315D01*
X197903571Y-86291734D01*
X197896360Y-86291024D01*
X197463048Y-86291024D01*
X197453052Y-86294662D01*
X197450000Y-86299949D01*
X195948499Y-86299949D01*
X195946362Y-86294076D01*
X195941075Y-86291024D01*
X195503640Y-86291024D01*
X195496429Y-86291734D01*
X195408045Y-86309315D01*
X195394833Y-86314787D01*
X195322936Y-86362827D01*
X195312827Y-86372936D01*
X195264787Y-86444833D01*
X195259315Y-86458045D01*
X195241734Y-86546429D01*
X195241024Y-86553640D01*
X179033976Y-86553640D01*
X179033976Y-85253640D01*
X179033266Y-85246429D01*
X179015685Y-85158045D01*
X179010213Y-85144833D01*
X178962173Y-85072936D01*
X178952064Y-85062827D01*
X178880167Y-85014787D01*
X178866955Y-85009315D01*
X178778571Y-84991734D01*
X178771360Y-84991024D01*
X178063048Y-84991024D01*
X178053052Y-84994662D01*
X178050000Y-84999949D01*
X176548499Y-84999949D01*
X176546362Y-84994076D01*
X176541075Y-84991024D01*
X175828640Y-84991024D01*
X175821429Y-84991734D01*
X175733045Y-85009315D01*
X175719833Y-85014787D01*
X175647936Y-85062827D01*
X175637827Y-85072936D01*
X175589787Y-85144833D01*
X175584315Y-85158045D01*
X175566734Y-85246429D01*
X175566024Y-85253640D01*
X157283636Y-85253640D01*
X157263668Y-85226900D01*
X157263667Y-85226899D01*
X157261636Y-85224179D01*
X157259145Y-85221876D01*
X157259142Y-85221873D01*
X157108318Y-85082453D01*
X157108314Y-85082450D01*
X157105826Y-85080150D01*
X157009274Y-85019230D01*
X156929238Y-84968731D01*
X156929237Y-84968730D01*
X156926377Y-84966926D01*
X156923234Y-84965672D01*
X156923232Y-84965671D01*
X156732449Y-84889556D01*
X156732446Y-84889555D01*
X156729300Y-84888300D01*
X156725975Y-84887639D01*
X156725973Y-84887638D01*
X156524520Y-84847567D01*
X156524516Y-84847567D01*
X156521195Y-84846906D01*
X156427472Y-84845679D01*
X156312424Y-84844172D01*
X156312419Y-84844172D01*
X156309031Y-84844128D01*
X156305685Y-84844703D01*
X156305684Y-84844703D01*
X156289017Y-84847567D01*
X156099913Y-84880061D01*
X155900846Y-84953501D01*
X155718495Y-85061988D01*
X155558968Y-85201890D01*
X155427607Y-85368520D01*
X155426025Y-85371527D01*
X155330396Y-85553287D01*
X155330393Y-85553293D01*
X155328812Y-85556299D01*
X155265891Y-85758938D01*
X155240951Y-85969649D01*
X152956626Y-85969649D01*
X152939775Y-85797792D01*
X152939422Y-85794189D01*
X152879651Y-85596217D01*
X152782565Y-85413625D01*
X152651863Y-85253368D01*
X152536637Y-85158045D01*
X152495317Y-85123862D01*
X152495316Y-85123861D01*
X152492522Y-85121550D01*
X152477381Y-85113363D01*
X152313797Y-85024914D01*
X152313796Y-85024914D01*
X152310612Y-85023192D01*
X152307158Y-85022123D01*
X152307156Y-85022122D01*
X152208988Y-84991734D01*
X152113063Y-84962040D01*
X151907397Y-84940424D01*
X151903793Y-84940752D01*
X151903792Y-84940752D01*
X151903243Y-84940802D01*
X151701450Y-84959166D01*
X151691685Y-84962040D01*
X151506537Y-85016532D01*
X151506533Y-85016534D01*
X151503066Y-85017554D01*
X151492282Y-85023192D01*
X151323008Y-85111686D01*
X151323005Y-85111688D01*
X151319801Y-85113363D01*
X151316983Y-85115629D01*
X151316981Y-85115630D01*
X151161454Y-85240676D01*
X151161451Y-85240679D01*
X151158635Y-85242943D01*
X151025708Y-85401360D01*
X151023966Y-85404528D01*
X151023965Y-85404530D01*
X151017209Y-85416820D01*
X150926082Y-85582578D01*
X150920657Y-85599680D01*
X150869070Y-85762305D01*
X150863553Y-85779696D01*
X150840501Y-85985206D01*
X147254000Y-85985206D01*
X147254000Y-84214342D01*
X195240951Y-84214342D01*
X195241126Y-84217377D01*
X195254544Y-84450095D01*
X195254545Y-84450101D01*
X195254719Y-84453121D01*
X195255383Y-84456068D01*
X195255384Y-84456074D01*
X195278450Y-84558425D01*
X195307301Y-84686446D01*
X195308443Y-84689258D01*
X195372457Y-84846906D01*
X195397284Y-84908049D01*
X195430370Y-84962040D01*
X195504160Y-85082453D01*
X195522254Y-85111980D01*
X195524243Y-85114276D01*
X195524245Y-85114279D01*
X195638100Y-85245717D01*
X195678852Y-85292762D01*
X195862874Y-85445540D01*
X195865492Y-85447070D01*
X195865498Y-85447074D01*
X196057978Y-85559550D01*
X196069377Y-85566211D01*
X196072216Y-85567295D01*
X196072220Y-85567297D01*
X196289977Y-85650450D01*
X196289982Y-85650452D01*
X196292817Y-85651534D01*
X196527191Y-85699218D01*
X196619228Y-85702593D01*
X196763167Y-85707872D01*
X196763173Y-85707872D01*
X196766207Y-85707983D01*
X196769219Y-85707597D01*
X196769223Y-85707597D01*
X196888941Y-85692260D01*
X197003444Y-85677592D01*
X197093913Y-85650450D01*
X197229624Y-85609735D01*
X197229630Y-85609733D01*
X197232532Y-85608862D01*
X197447319Y-85503639D01*
X197449785Y-85501880D01*
X197449790Y-85501877D01*
X197639573Y-85366506D01*
X197639574Y-85366505D01*
X197642036Y-85364749D01*
X197644176Y-85362616D01*
X197644180Y-85362613D01*
X197809301Y-85198067D01*
X197809304Y-85198064D01*
X197811454Y-85195921D01*
X197848165Y-85144833D01*
X197949251Y-85004156D01*
X197951023Y-85001690D01*
X198056995Y-84787272D01*
X198088527Y-84683490D01*
X198125642Y-84561328D01*
X198126524Y-84558425D01*
X198157743Y-84321296D01*
X198159485Y-84250000D01*
X198156803Y-84217377D01*
X198140136Y-84014653D01*
X198140135Y-84014649D01*
X198139887Y-84011628D01*
X198081620Y-83779658D01*
X197986249Y-83560319D01*
X197856335Y-83359502D01*
X197695366Y-83182600D01*
X197507667Y-83034364D01*
X197423817Y-82988076D01*
X197300941Y-82920244D01*
X197300935Y-82920241D01*
X197298277Y-82918774D01*
X197295417Y-82917761D01*
X197295412Y-82917759D01*
X197075680Y-82839949D01*
X197075679Y-82839949D01*
X197072819Y-82838936D01*
X197069830Y-82838404D01*
X197069828Y-82838403D01*
X196933162Y-82814059D01*
X196837350Y-82796992D01*
X196683578Y-82795113D01*
X196601229Y-82794107D01*
X196601228Y-82794107D01*
X196598191Y-82794070D01*
X196496711Y-82809599D01*
X196364771Y-82829788D01*
X196364767Y-82829789D01*
X196361767Y-82830248D01*
X196358878Y-82831192D01*
X196358875Y-82831193D01*
X196137311Y-82903612D01*
X196137307Y-82903614D01*
X196134427Y-82904555D01*
X195922275Y-83014994D01*
X195919854Y-83016812D01*
X195919852Y-83016813D01*
X195893969Y-83036247D01*
X195731010Y-83158600D01*
X195728912Y-83160796D01*
X195728908Y-83160799D01*
X195651362Y-83241947D01*
X195565767Y-83331516D01*
X195430985Y-83529099D01*
X195330284Y-83746042D01*
X195266366Y-83976520D01*
X195240951Y-84214342D01*
X147254000Y-84214342D01*
X147254000Y-78032304D01*
X147255422Y-78017868D01*
X147257554Y-78007149D01*
X147258976Y-78000000D01*
X147257260Y-77991372D01*
X147256027Y-77971658D01*
X147256375Y-77966793D01*
X147641264Y-77966793D01*
X147654085Y-78189156D01*
X147654749Y-78192103D01*
X147654750Y-78192109D01*
X147685756Y-78329693D01*
X147703052Y-78406439D01*
X147786849Y-78612807D01*
X147903226Y-78802717D01*
X147905215Y-78805013D01*
X147905217Y-78805016D01*
X148016433Y-78933407D01*
X148049058Y-78971070D01*
X148220428Y-79113344D01*
X148223046Y-79114874D01*
X148223052Y-79114878D01*
X148410108Y-79224184D01*
X148410113Y-79224186D01*
X148412734Y-79225718D01*
X148415573Y-79226802D01*
X148617966Y-79304089D01*
X148617970Y-79304090D01*
X148620811Y-79305175D01*
X148623795Y-79305782D01*
X148623798Y-79305783D01*
X148723860Y-79326141D01*
X148839072Y-79349581D01*
X148924484Y-79352713D01*
X149058615Y-79357632D01*
X149058621Y-79357632D01*
X149061655Y-79357743D01*
X149064667Y-79357357D01*
X149064671Y-79357357D01*
X149175890Y-79343109D01*
X149282582Y-79329441D01*
X149376616Y-79301229D01*
X149493014Y-79266309D01*
X149493019Y-79266307D01*
X149495919Y-79265437D01*
X149695939Y-79167448D01*
X149877269Y-79038107D01*
X149946843Y-78968776D01*
X150032884Y-78883035D01*
X150032887Y-78883032D01*
X150035039Y-78880887D01*
X150165012Y-78700010D01*
X150263698Y-78500334D01*
X150292226Y-78406439D01*
X150327565Y-78290123D01*
X150328447Y-78287220D01*
X150340969Y-78192109D01*
X150357262Y-78068348D01*
X150357262Y-78068343D01*
X150357519Y-78066394D01*
X150359142Y-78000000D01*
X150358626Y-77993724D01*
X150341141Y-77781042D01*
X150341140Y-77781038D01*
X150340892Y-77778017D01*
X150333439Y-77748343D01*
X150287370Y-77564938D01*
X150286631Y-77561995D01*
X150259675Y-77500000D01*
X151914925Y-77500000D01*
X151933173Y-77673622D01*
X151987121Y-77839656D01*
X152074410Y-77990845D01*
X152077001Y-77993722D01*
X152077002Y-77993724D01*
X152105179Y-78025017D01*
X152191226Y-78120582D01*
X152332462Y-78223196D01*
X152336004Y-78224773D01*
X152488403Y-78292626D01*
X152488406Y-78292627D01*
X152491948Y-78294204D01*
X152495740Y-78295010D01*
X152495743Y-78295011D01*
X152658914Y-78329693D01*
X152662711Y-78330500D01*
X152837289Y-78330500D01*
X152841086Y-78329693D01*
X153004257Y-78295011D01*
X153004260Y-78295010D01*
X153008052Y-78294204D01*
X153011594Y-78292627D01*
X153011597Y-78292626D01*
X153163996Y-78224773D01*
X153167538Y-78223196D01*
X153308774Y-78120582D01*
X153394821Y-78025017D01*
X153422998Y-77993724D01*
X153422999Y-77993722D01*
X153425590Y-77990845D01*
X153512879Y-77839656D01*
X153566827Y-77673622D01*
X153585075Y-77500000D01*
X195414925Y-77500000D01*
X195433173Y-77673622D01*
X195487121Y-77839656D01*
X195574410Y-77990845D01*
X195577001Y-77993722D01*
X195577002Y-77993724D01*
X195605179Y-78025017D01*
X195691226Y-78120582D01*
X195832462Y-78223196D01*
X195836004Y-78224773D01*
X195988403Y-78292626D01*
X195988406Y-78292627D01*
X195991948Y-78294204D01*
X195995740Y-78295010D01*
X195995743Y-78295011D01*
X196158914Y-78329693D01*
X196162711Y-78330500D01*
X196337289Y-78330500D01*
X196341086Y-78329693D01*
X196504257Y-78295011D01*
X196504260Y-78295010D01*
X196508052Y-78294204D01*
X196511594Y-78292627D01*
X196511597Y-78292626D01*
X196663996Y-78224773D01*
X196667538Y-78223196D01*
X196808774Y-78120582D01*
X196894821Y-78025017D01*
X196922998Y-77993724D01*
X196922999Y-77993722D01*
X196925590Y-77990845D01*
X196939476Y-77966793D01*
X198641264Y-77966793D01*
X198654085Y-78189156D01*
X198654749Y-78192103D01*
X198654750Y-78192109D01*
X198685756Y-78329693D01*
X198703052Y-78406439D01*
X198786849Y-78612807D01*
X198903226Y-78802717D01*
X198905215Y-78805013D01*
X198905217Y-78805016D01*
X199016433Y-78933407D01*
X199049058Y-78971070D01*
X199220428Y-79113344D01*
X199223046Y-79114874D01*
X199223052Y-79114878D01*
X199410108Y-79224184D01*
X199410113Y-79224186D01*
X199412734Y-79225718D01*
X199415573Y-79226802D01*
X199617966Y-79304089D01*
X199617970Y-79304090D01*
X199620811Y-79305175D01*
X199623795Y-79305782D01*
X199623798Y-79305783D01*
X199723860Y-79326141D01*
X199839072Y-79349581D01*
X199924484Y-79352713D01*
X200058615Y-79357632D01*
X200058621Y-79357632D01*
X200061655Y-79357743D01*
X200064667Y-79357357D01*
X200064671Y-79357357D01*
X200175890Y-79343109D01*
X200282582Y-79329441D01*
X200376616Y-79301229D01*
X200493014Y-79266309D01*
X200493019Y-79266307D01*
X200495919Y-79265437D01*
X200695939Y-79167448D01*
X200877269Y-79038107D01*
X200946843Y-78968776D01*
X201032884Y-78883035D01*
X201032887Y-78883032D01*
X201035039Y-78880887D01*
X201165012Y-78700010D01*
X201263698Y-78500334D01*
X201292226Y-78406439D01*
X201327565Y-78290123D01*
X201328447Y-78287220D01*
X201340969Y-78192109D01*
X201357262Y-78068348D01*
X201357262Y-78068343D01*
X201357519Y-78066394D01*
X201359142Y-78000000D01*
X201358626Y-77993724D01*
X201341141Y-77781042D01*
X201341140Y-77781038D01*
X201340892Y-77778017D01*
X201333439Y-77748343D01*
X201287370Y-77564938D01*
X201286631Y-77561995D01*
X201197817Y-77357736D01*
X201076834Y-77170726D01*
X200926933Y-77005986D01*
X200752138Y-76867942D01*
X200696454Y-76837203D01*
X200559806Y-76761768D01*
X200559801Y-76761766D01*
X200557144Y-76760299D01*
X200435551Y-76717241D01*
X200350043Y-76686961D01*
X200350039Y-76686960D01*
X200347187Y-76685950D01*
X200127907Y-76646890D01*
X199984501Y-76645138D01*
X199908229Y-76644206D01*
X199908228Y-76644206D01*
X199905191Y-76644169D01*
X199810201Y-76658704D01*
X199688026Y-76677399D01*
X199688022Y-76677400D01*
X199685022Y-76677859D01*
X199682133Y-76678803D01*
X199682130Y-76678804D01*
X199476195Y-76746114D01*
X199476191Y-76746116D01*
X199473311Y-76747057D01*
X199275745Y-76849903D01*
X199273324Y-76851721D01*
X199273322Y-76851722D01*
X199239470Y-76877139D01*
X199097630Y-76983636D01*
X199095533Y-76985830D01*
X199095530Y-76985833D01*
X198945844Y-77142470D01*
X198945840Y-77142474D01*
X198943748Y-77144664D01*
X198942038Y-77147171D01*
X198942037Y-77147172D01*
X198925970Y-77170726D01*
X198818233Y-77328663D01*
X198724455Y-77530691D01*
X198664932Y-77745322D01*
X198641264Y-77966793D01*
X196939476Y-77966793D01*
X197012879Y-77839656D01*
X197066827Y-77673622D01*
X197085075Y-77500000D01*
X197066827Y-77326378D01*
X197012879Y-77160344D01*
X196925590Y-77009155D01*
X196808774Y-76879418D01*
X196667538Y-76776804D01*
X196603872Y-76748458D01*
X196511597Y-76707374D01*
X196511594Y-76707373D01*
X196508052Y-76705796D01*
X196504260Y-76704990D01*
X196504257Y-76704989D01*
X196341086Y-76670307D01*
X196341085Y-76670307D01*
X196337289Y-76669500D01*
X196162711Y-76669500D01*
X196158915Y-76670307D01*
X196158914Y-76670307D01*
X195995743Y-76704989D01*
X195995740Y-76704990D01*
X195991948Y-76705796D01*
X195988406Y-76707373D01*
X195988403Y-76707374D01*
X195871809Y-76759286D01*
X195832463Y-76776804D01*
X195691226Y-76879418D01*
X195574410Y-77009155D01*
X195487121Y-77160344D01*
X195433173Y-77326378D01*
X195414925Y-77500000D01*
X153585075Y-77500000D01*
X153566827Y-77326378D01*
X153512879Y-77160344D01*
X153425590Y-77009155D01*
X153308774Y-76879418D01*
X153167538Y-76776804D01*
X153103872Y-76748458D01*
X153011597Y-76707374D01*
X153011594Y-76707373D01*
X153008052Y-76705796D01*
X153004260Y-76704990D01*
X153004257Y-76704989D01*
X152841086Y-76670307D01*
X152841085Y-76670307D01*
X152837289Y-76669500D01*
X152662711Y-76669500D01*
X152658915Y-76670307D01*
X152658914Y-76670307D01*
X152495743Y-76704989D01*
X152495740Y-76704990D01*
X152491948Y-76705796D01*
X152488406Y-76707373D01*
X152488403Y-76707374D01*
X152371809Y-76759286D01*
X152332463Y-76776804D01*
X152191226Y-76879418D01*
X152074410Y-77009155D01*
X151987121Y-77160344D01*
X151933173Y-77326378D01*
X151914925Y-77500000D01*
X150259675Y-77500000D01*
X150197817Y-77357736D01*
X150076834Y-77170726D01*
X149926933Y-77005986D01*
X149752138Y-76867942D01*
X149696454Y-76837203D01*
X149559806Y-76761768D01*
X149559801Y-76761766D01*
X149557144Y-76760299D01*
X149435551Y-76717241D01*
X149350043Y-76686961D01*
X149350039Y-76686960D01*
X149347187Y-76685950D01*
X149127907Y-76646890D01*
X148984501Y-76645138D01*
X148908229Y-76644206D01*
X148908228Y-76644206D01*
X148905191Y-76644169D01*
X148810201Y-76658704D01*
X148688026Y-76677399D01*
X148688022Y-76677400D01*
X148685022Y-76677859D01*
X148682133Y-76678803D01*
X148682130Y-76678804D01*
X148476195Y-76746114D01*
X148476191Y-76746116D01*
X148473311Y-76747057D01*
X148275745Y-76849903D01*
X148273324Y-76851721D01*
X148273322Y-76851722D01*
X148239470Y-76877139D01*
X148097630Y-76983636D01*
X148095533Y-76985830D01*
X148095530Y-76985833D01*
X147945844Y-77142470D01*
X147945840Y-77142474D01*
X147943748Y-77144664D01*
X147942038Y-77147171D01*
X147942037Y-77147172D01*
X147925970Y-77170726D01*
X147818233Y-77328663D01*
X147724455Y-77530691D01*
X147664932Y-77745322D01*
X147641264Y-77966793D01*
X147256375Y-77966793D01*
X147271394Y-77756801D01*
X147272896Y-77746350D01*
X147323601Y-77513263D01*
X147326576Y-77503133D01*
X147391649Y-77328663D01*
X147409933Y-77279644D01*
X147414317Y-77270042D01*
X147481410Y-77147172D01*
X147528635Y-77060686D01*
X147534342Y-77051805D01*
X147677290Y-76860849D01*
X147684204Y-76852870D01*
X147852870Y-76684204D01*
X147860849Y-76677290D01*
X148051805Y-76534342D01*
X148060687Y-76528634D01*
X148108385Y-76502589D01*
X148270045Y-76414316D01*
X148279644Y-76409933D01*
X148391390Y-76368253D01*
X148503133Y-76326576D01*
X148513263Y-76323601D01*
X148629806Y-76298249D01*
X148746353Y-76272896D01*
X148756799Y-76271394D01*
X148971659Y-76256027D01*
X148991372Y-76257260D01*
X149000000Y-76258976D01*
X149007149Y-76257554D01*
X149017868Y-76255422D01*
X149032304Y-76254000D01*
X199967696Y-76254000D01*
X199982132Y-76255422D01*
G37*
G04 #@! TD.AperFunction*
M02*
