M48
; DRILL file {KiCad 5.99.0-unknown-395602b12a~131~ubuntu20.04.1} date Sat Jul 17 22:50:34 2021
; FORMAT={-:-/ absolute / metric / decimal}
; #@! TF.CreationDate,2021-07-17T22:50:34+02:00
; #@! TF.GenerationSoftware,Kicad,Pcbnew,5.99.0-unknown-395602b12a~131~ubuntu20.04.1
; #@! TF.FileFunction,Plated,1,2,PTH
FMAT,2
METRIC
; #@! TA.AperFunction,Plated,PTH,ComponentDrill
T1C0.300
; #@! TA.AperFunction,Plated,PTH,ViaDrill
T2C0.400
; #@! TA.AperFunction,Plated,PTH,ComponentDrill
T3C1.200
%
G90
G05
T1
X176.7Y-85.7
X176.7Y-86.8
X176.7Y-88.1
X176.7Y-89.3
X177.9Y-85.7
X177.9Y-86.8
X177.9Y-88.1
X177.9Y-89.3
T2
X148.0Y-80.5
X148.0Y-82.0
X148.0Y-85.0
X148.0Y-88.0
X148.0Y-91.0
X151.0Y-88.0
X151.5Y-77.0
X152.0Y-93.5
X152.0Y-95.0
X154.0Y-77.0
X154.0Y-78.5
X154.0Y-82.0
X154.0Y-85.0
X154.0Y-88.0
X154.0Y-91.0
X154.0Y-93.0
X154.0Y-94.0
X154.0Y-95.0
X156.0Y-91.0
X156.0Y-93.0
X157.0Y-77.0
X157.0Y-88.0
X157.0Y-94.0
X157.0Y-95.0
X160.0Y-77.0
X160.0Y-78.5
X160.0Y-82.0
X160.0Y-85.0
X160.0Y-88.0
X160.0Y-91.0
X160.0Y-93.0
X160.0Y-94.0
X160.0Y-95.0
X162.0Y-91.0
X162.0Y-93.0
X163.0Y-77.0
X163.0Y-78.5
X163.0Y-82.0
X163.0Y-85.0
X163.0Y-88.0
X163.0Y-94.0
X163.0Y-95.0
X166.0Y-77.0
X166.0Y-78.5
X166.0Y-94.0
X166.0Y-95.0
X167.5Y-83.4
X168.0Y-86.0
X169.0Y-77.0
X169.3Y-94.1
X169.8Y-83.7
X169.8Y-91.5
X170.3Y-94.1
X170.4Y-80.0
X170.7Y-82.0
X171.7Y-94.1
X172.0Y-77.0
X172.1Y-83.7
X172.2Y-91.5
X172.7Y-94.1
X173.8Y-80.0
X173.8Y-82.0
X174.5Y-84.5
X175.0Y-77.0
X176.3Y-84.6
X177.0Y-92.0
X177.5Y-80.0
X177.5Y-82.0
X177.5Y-84.0
X177.5Y-90.5
X178.0Y-77.0
X178.6Y-84.0
X179.5Y-90.5
X179.7Y-84.0
X180.4Y-77.0
X181.9Y-77.6
X181.9Y-79.0
X183.0Y-81.0
X183.0Y-84.0
X183.0Y-87.0
X183.0Y-89.0
X184.5Y-81.0
X184.5Y-84.0
X184.5Y-87.0
X184.5Y-89.0
X186.0Y-87.0
X186.0Y-89.0
X189.0Y-87.0
X189.0Y-89.0
X190.0Y-77.8
X190.0Y-78.9
X192.0Y-87.0
X192.0Y-89.0
X192.0Y-92.0
X192.0Y-93.4
X193.2Y-78.4
X194.0Y-87.0
X194.0Y-89.0
X195.0Y-77.0
X195.0Y-80.0
X195.0Y-92.0
X195.0Y-93.4
X195.0Y-95.0
X196.7Y-80.0
X197.5Y-77.0
X197.5Y-93.4
X197.5Y-95.0
X198.0Y-92.0
X199.0Y-83.0
X199.0Y-86.0
X199.0Y-89.0
X201.0Y-80.5
X201.0Y-91.5
T3
X196.7Y-84.25
X196.7Y-87.75
T0
M30
