G04 #@! TF.GenerationSoftware,KiCad,Pcbnew,5.99.0-unknown-395602b12a~131~ubuntu20.04.1*
G04 #@! TF.CreationDate,2021-07-15T22:40:44+02:00*
G04 #@! TF.ProjectId,TPS5430,54505335-3433-4302-9e6b-696361645f70,1.0.0*
G04 #@! TF.SameCoordinates,Original*
G04 #@! TF.FileFunction,Paste,Top*
G04 #@! TF.FilePolarity,Positive*
%FSLAX46Y46*%
G04 Gerber Fmt 4.6, Leading zero omitted, Abs format (unit mm)*
G04 Created by KiCad (PCBNEW 5.99.0-unknown-395602b12a~131~ubuntu20.04.1) date 2021-07-15 22:40:44*
%MOMM*%
%LPD*%
G01*
G04 APERTURE LIST*
%ADD10R,2.500000X1.800000*%
%ADD11R,1.300000X1.700000*%
%ADD12R,1.550000X0.600000*%
%ADD13R,2.600000X3.100000*%
%ADD14R,4.100000X4.100000*%
%ADD15R,2.800000X2.400000*%
G04 APERTURE END LIST*
D10*
X175000000Y-92200000D03*
X179000000Y-92200000D03*
G36*
G01*
X187800000Y-79225000D02*
X187800000Y-77375000D01*
G75*
G02*
X188050000Y-77125000I250000J0D01*
G01*
X188875000Y-77125000D01*
G75*
G02*
X189125000Y-77375000I0J-250000D01*
G01*
X189125000Y-79225000D01*
G75*
G02*
X188875000Y-79475000I-250000J0D01*
G01*
X188050000Y-79475000D01*
G75*
G02*
X187800000Y-79225000I0J250000D01*
G01*
G37*
G36*
G01*
X190875000Y-79225000D02*
X190875000Y-77375000D01*
G75*
G02*
X191125000Y-77125000I250000J0D01*
G01*
X191950000Y-77125000D01*
G75*
G02*
X192200000Y-77375000I0J-250000D01*
G01*
X192200000Y-79225000D01*
G75*
G02*
X191950000Y-79475000I-250000J0D01*
G01*
X191125000Y-79475000D01*
G75*
G02*
X190875000Y-79225000I0J250000D01*
G01*
G37*
G36*
G01*
X164900000Y-89212500D02*
X164600000Y-89212500D01*
G75*
G02*
X164450000Y-89062500I0J150000D01*
G01*
X164450000Y-87887500D01*
G75*
G02*
X164600000Y-87737500I150000J0D01*
G01*
X164900000Y-87737500D01*
G75*
G02*
X165050000Y-87887500I0J-150000D01*
G01*
X165050000Y-89062500D01*
G75*
G02*
X164900000Y-89212500I-150000J0D01*
G01*
G37*
G36*
G01*
X166800000Y-89212500D02*
X166500000Y-89212500D01*
G75*
G02*
X166350000Y-89062500I0J150000D01*
G01*
X166350000Y-87887500D01*
G75*
G02*
X166500000Y-87737500I150000J0D01*
G01*
X166800000Y-87737500D01*
G75*
G02*
X166950000Y-87887500I0J-150000D01*
G01*
X166950000Y-89062500D01*
G75*
G02*
X166800000Y-89212500I-150000J0D01*
G01*
G37*
G36*
G01*
X165850000Y-87337500D02*
X165550000Y-87337500D01*
G75*
G02*
X165400000Y-87187500I0J150000D01*
G01*
X165400000Y-86012500D01*
G75*
G02*
X165550000Y-85862500I150000J0D01*
G01*
X165850000Y-85862500D01*
G75*
G02*
X166000000Y-86012500I0J-150000D01*
G01*
X166000000Y-87187500D01*
G75*
G02*
X165850000Y-87337500I-150000J0D01*
G01*
G37*
G36*
G01*
X180930000Y-91520000D02*
X181270000Y-91520000D01*
G75*
G02*
X181410000Y-91660000I0J-140000D01*
G01*
X181410000Y-91940000D01*
G75*
G02*
X181270000Y-92080000I-140000J0D01*
G01*
X180930000Y-92080000D01*
G75*
G02*
X180790000Y-91940000I0J140000D01*
G01*
X180790000Y-91660000D01*
G75*
G02*
X180930000Y-91520000I140000J0D01*
G01*
G37*
G36*
G01*
X180930000Y-92480000D02*
X181270000Y-92480000D01*
G75*
G02*
X181410000Y-92620000I0J-140000D01*
G01*
X181410000Y-92900000D01*
G75*
G02*
X181270000Y-93040000I-140000J0D01*
G01*
X180930000Y-93040000D01*
G75*
G02*
X180790000Y-92900000I0J140000D01*
G01*
X180790000Y-92620000D01*
G75*
G02*
X180930000Y-92480000I140000J0D01*
G01*
G37*
G36*
G01*
X167460000Y-92430000D02*
X167460000Y-92770000D01*
G75*
G02*
X167320000Y-92910000I-140000J0D01*
G01*
X167040000Y-92910000D01*
G75*
G02*
X166900000Y-92770000I0J140000D01*
G01*
X166900000Y-92430000D01*
G75*
G02*
X167040000Y-92290000I140000J0D01*
G01*
X167320000Y-92290000D01*
G75*
G02*
X167460000Y-92430000I0J-140000D01*
G01*
G37*
G36*
G01*
X166500000Y-92430000D02*
X166500000Y-92770000D01*
G75*
G02*
X166360000Y-92910000I-140000J0D01*
G01*
X166080000Y-92910000D01*
G75*
G02*
X165940000Y-92770000I0J140000D01*
G01*
X165940000Y-92430000D01*
G75*
G02*
X166080000Y-92290000I140000J0D01*
G01*
X166360000Y-92290000D01*
G75*
G02*
X166500000Y-92430000I0J-140000D01*
G01*
G37*
D11*
X167450000Y-90800000D03*
X163950000Y-90800000D03*
G36*
G01*
X165275000Y-84850000D02*
X165275000Y-84350000D01*
G75*
G02*
X165500000Y-84125000I225000J0D01*
G01*
X165950000Y-84125000D01*
G75*
G02*
X166175000Y-84350000I0J-225000D01*
G01*
X166175000Y-84850000D01*
G75*
G02*
X165950000Y-85075000I-225000J0D01*
G01*
X165500000Y-85075000D01*
G75*
G02*
X165275000Y-84850000I0J225000D01*
G01*
G37*
G36*
G01*
X166825000Y-84850000D02*
X166825000Y-84350000D01*
G75*
G02*
X167050000Y-84125000I225000J0D01*
G01*
X167500000Y-84125000D01*
G75*
G02*
X167725000Y-84350000I0J-225000D01*
G01*
X167725000Y-84850000D01*
G75*
G02*
X167500000Y-85075000I-225000J0D01*
G01*
X167050000Y-85075000D01*
G75*
G02*
X166825000Y-84850000I0J225000D01*
G01*
G37*
G36*
G01*
X168515000Y-81320000D02*
X168885000Y-81320000D01*
G75*
G02*
X169020000Y-81455000I0J-135000D01*
G01*
X169020000Y-81725000D01*
G75*
G02*
X168885000Y-81860000I-135000J0D01*
G01*
X168515000Y-81860000D01*
G75*
G02*
X168380000Y-81725000I0J135000D01*
G01*
X168380000Y-81455000D01*
G75*
G02*
X168515000Y-81320000I135000J0D01*
G01*
G37*
G36*
G01*
X168515000Y-82340000D02*
X168885000Y-82340000D01*
G75*
G02*
X169020000Y-82475000I0J-135000D01*
G01*
X169020000Y-82745000D01*
G75*
G02*
X168885000Y-82880000I-135000J0D01*
G01*
X168515000Y-82880000D01*
G75*
G02*
X168380000Y-82745000I0J135000D01*
G01*
X168380000Y-82475000D01*
G75*
G02*
X168515000Y-82340000I135000J0D01*
G01*
G37*
G36*
G01*
X172850000Y-88650000D02*
X171550000Y-88650000D01*
G75*
G02*
X171300000Y-88400000I0J250000D01*
G01*
X171300000Y-87750000D01*
G75*
G02*
X171550000Y-87500000I250000J0D01*
G01*
X172850000Y-87500000D01*
G75*
G02*
X173100000Y-87750000I0J-250000D01*
G01*
X173100000Y-88400000D01*
G75*
G02*
X172850000Y-88650000I-250000J0D01*
G01*
G37*
G36*
G01*
X172850000Y-85700000D02*
X171550000Y-85700000D01*
G75*
G02*
X171300000Y-85450000I0J250000D01*
G01*
X171300000Y-84800000D01*
G75*
G02*
X171550000Y-84550000I250000J0D01*
G01*
X172850000Y-84550000D01*
G75*
G02*
X173100000Y-84800000I0J-250000D01*
G01*
X173100000Y-85450000D01*
G75*
G02*
X172850000Y-85700000I-250000J0D01*
G01*
G37*
G36*
G01*
X179515000Y-81370000D02*
X179885000Y-81370000D01*
G75*
G02*
X180020000Y-81505000I0J-135000D01*
G01*
X180020000Y-81775000D01*
G75*
G02*
X179885000Y-81910000I-135000J0D01*
G01*
X179515000Y-81910000D01*
G75*
G02*
X179380000Y-81775000I0J135000D01*
G01*
X179380000Y-81505000D01*
G75*
G02*
X179515000Y-81370000I135000J0D01*
G01*
G37*
G36*
G01*
X179515000Y-82390000D02*
X179885000Y-82390000D01*
G75*
G02*
X180020000Y-82525000I0J-135000D01*
G01*
X180020000Y-82795000D01*
G75*
G02*
X179885000Y-82930000I-135000J0D01*
G01*
X179515000Y-82930000D01*
G75*
G02*
X179380000Y-82795000I0J135000D01*
G01*
X179380000Y-82525000D01*
G75*
G02*
X179515000Y-82390000I135000J0D01*
G01*
G37*
D12*
X180000000Y-89405000D03*
X180000000Y-88135000D03*
X180000000Y-86865000D03*
X180000000Y-85595000D03*
X174600000Y-85595000D03*
X174600000Y-86865000D03*
X174600000Y-88135000D03*
X174600000Y-89405000D03*
D13*
X177300000Y-87500000D03*
G36*
G01*
X171550000Y-89250000D02*
X172850000Y-89250000D01*
G75*
G02*
X173100000Y-89500000I0J-250000D01*
G01*
X173100000Y-90150000D01*
G75*
G02*
X172850000Y-90400000I-250000J0D01*
G01*
X171550000Y-90400000D01*
G75*
G02*
X171300000Y-90150000I0J250000D01*
G01*
X171300000Y-89500000D01*
G75*
G02*
X171550000Y-89250000I250000J0D01*
G01*
G37*
G36*
G01*
X171550000Y-92200000D02*
X172850000Y-92200000D01*
G75*
G02*
X173100000Y-92450000I0J-250000D01*
G01*
X173100000Y-93100000D01*
G75*
G02*
X172850000Y-93350000I-250000J0D01*
G01*
X171550000Y-93350000D01*
G75*
G02*
X171300000Y-93100000I0J250000D01*
G01*
X171300000Y-92450000D01*
G75*
G02*
X171550000Y-92200000I250000J0D01*
G01*
G37*
G36*
G01*
X170450000Y-88650000D02*
X169150000Y-88650000D01*
G75*
G02*
X168900000Y-88400000I0J250000D01*
G01*
X168900000Y-87750000D01*
G75*
G02*
X169150000Y-87500000I250000J0D01*
G01*
X170450000Y-87500000D01*
G75*
G02*
X170700000Y-87750000I0J-250000D01*
G01*
X170700000Y-88400000D01*
G75*
G02*
X170450000Y-88650000I-250000J0D01*
G01*
G37*
G36*
G01*
X170450000Y-85700000D02*
X169150000Y-85700000D01*
G75*
G02*
X168900000Y-85450000I0J250000D01*
G01*
X168900000Y-84800000D01*
G75*
G02*
X169150000Y-84550000I250000J0D01*
G01*
X170450000Y-84550000D01*
G75*
G02*
X170700000Y-84800000I0J-250000D01*
G01*
X170700000Y-85450000D01*
G75*
G02*
X170450000Y-85700000I-250000J0D01*
G01*
G37*
G36*
G01*
X169150000Y-89250000D02*
X170450000Y-89250000D01*
G75*
G02*
X170700000Y-89500000I0J-250000D01*
G01*
X170700000Y-90150000D01*
G75*
G02*
X170450000Y-90400000I-250000J0D01*
G01*
X169150000Y-90400000D01*
G75*
G02*
X168900000Y-90150000I0J250000D01*
G01*
X168900000Y-89500000D01*
G75*
G02*
X169150000Y-89250000I250000J0D01*
G01*
G37*
G36*
G01*
X169150000Y-92200000D02*
X170450000Y-92200000D01*
G75*
G02*
X170700000Y-92450000I0J-250000D01*
G01*
X170700000Y-93100000D01*
G75*
G02*
X170450000Y-93350000I-250000J0D01*
G01*
X169150000Y-93350000D01*
G75*
G02*
X168900000Y-93100000I0J250000D01*
G01*
X168900000Y-92450000D01*
G75*
G02*
X169150000Y-92200000I250000J0D01*
G01*
G37*
D14*
X187400000Y-91850000D03*
X187400000Y-82350000D03*
G36*
G01*
X169615000Y-81320000D02*
X169985000Y-81320000D01*
G75*
G02*
X170120000Y-81455000I0J-135000D01*
G01*
X170120000Y-81725000D01*
G75*
G02*
X169985000Y-81860000I-135000J0D01*
G01*
X169615000Y-81860000D01*
G75*
G02*
X169480000Y-81725000I0J135000D01*
G01*
X169480000Y-81455000D01*
G75*
G02*
X169615000Y-81320000I135000J0D01*
G01*
G37*
G36*
G01*
X169615000Y-82340000D02*
X169985000Y-82340000D01*
G75*
G02*
X170120000Y-82475000I0J-135000D01*
G01*
X170120000Y-82745000D01*
G75*
G02*
X169985000Y-82880000I-135000J0D01*
G01*
X169615000Y-82880000D01*
G75*
G02*
X169480000Y-82745000I0J135000D01*
G01*
X169480000Y-82475000D01*
G75*
G02*
X169615000Y-82340000I135000J0D01*
G01*
G37*
G36*
G01*
X165470000Y-92415000D02*
X165470000Y-92785000D01*
G75*
G02*
X165335000Y-92920000I-135000J0D01*
G01*
X165065000Y-92920000D01*
G75*
G02*
X164930000Y-92785000I0J135000D01*
G01*
X164930000Y-92415000D01*
G75*
G02*
X165065000Y-92280000I135000J0D01*
G01*
X165335000Y-92280000D01*
G75*
G02*
X165470000Y-92415000I0J-135000D01*
G01*
G37*
G36*
G01*
X164450000Y-92415000D02*
X164450000Y-92785000D01*
G75*
G02*
X164315000Y-92920000I-135000J0D01*
G01*
X164045000Y-92920000D01*
G75*
G02*
X163910000Y-92785000I0J135000D01*
G01*
X163910000Y-92415000D01*
G75*
G02*
X164045000Y-92280000I135000J0D01*
G01*
X164315000Y-92280000D01*
G75*
G02*
X164450000Y-92415000I0J-135000D01*
G01*
G37*
G36*
G01*
X178415000Y-81370000D02*
X178785000Y-81370000D01*
G75*
G02*
X178920000Y-81505000I0J-135000D01*
G01*
X178920000Y-81775000D01*
G75*
G02*
X178785000Y-81910000I-135000J0D01*
G01*
X178415000Y-81910000D01*
G75*
G02*
X178280000Y-81775000I0J135000D01*
G01*
X178280000Y-81505000D01*
G75*
G02*
X178415000Y-81370000I135000J0D01*
G01*
G37*
G36*
G01*
X178415000Y-82390000D02*
X178785000Y-82390000D01*
G75*
G02*
X178920000Y-82525000I0J-135000D01*
G01*
X178920000Y-82795000D01*
G75*
G02*
X178785000Y-82930000I-135000J0D01*
G01*
X178415000Y-82930000D01*
G75*
G02*
X178280000Y-82795000I0J135000D01*
G01*
X178280000Y-82525000D01*
G75*
G02*
X178415000Y-82390000I135000J0D01*
G01*
G37*
G36*
G01*
X193240000Y-81570000D02*
X193240000Y-81230000D01*
G75*
G02*
X193380000Y-81090000I140000J0D01*
G01*
X193660000Y-81090000D01*
G75*
G02*
X193800000Y-81230000I0J-140000D01*
G01*
X193800000Y-81570000D01*
G75*
G02*
X193660000Y-81710000I-140000J0D01*
G01*
X193380000Y-81710000D01*
G75*
G02*
X193240000Y-81570000I0J140000D01*
G01*
G37*
G36*
G01*
X194200000Y-81570000D02*
X194200000Y-81230000D01*
G75*
G02*
X194340000Y-81090000I140000J0D01*
G01*
X194620000Y-81090000D01*
G75*
G02*
X194760000Y-81230000I0J-140000D01*
G01*
X194760000Y-81570000D01*
G75*
G02*
X194620000Y-81710000I-140000J0D01*
G01*
X194340000Y-81710000D01*
G75*
G02*
X194200000Y-81570000I0J140000D01*
G01*
G37*
G36*
G01*
X173215000Y-81920000D02*
X173585000Y-81920000D01*
G75*
G02*
X173720000Y-82055000I0J-135000D01*
G01*
X173720000Y-82325000D01*
G75*
G02*
X173585000Y-82460000I-135000J0D01*
G01*
X173215000Y-82460000D01*
G75*
G02*
X173080000Y-82325000I0J135000D01*
G01*
X173080000Y-82055000D01*
G75*
G02*
X173215000Y-81920000I135000J0D01*
G01*
G37*
G36*
G01*
X173215000Y-82940000D02*
X173585000Y-82940000D01*
G75*
G02*
X173720000Y-83075000I0J-135000D01*
G01*
X173720000Y-83345000D01*
G75*
G02*
X173585000Y-83480000I-135000J0D01*
G01*
X173215000Y-83480000D01*
G75*
G02*
X173080000Y-83345000I0J135000D01*
G01*
X173080000Y-83075000D01*
G75*
G02*
X173215000Y-82940000I135000J0D01*
G01*
G37*
G36*
G01*
X181685000Y-82930000D02*
X181315000Y-82930000D01*
G75*
G02*
X181180000Y-82795000I0J135000D01*
G01*
X181180000Y-82525000D01*
G75*
G02*
X181315000Y-82390000I135000J0D01*
G01*
X181685000Y-82390000D01*
G75*
G02*
X181820000Y-82525000I0J-135000D01*
G01*
X181820000Y-82795000D01*
G75*
G02*
X181685000Y-82930000I-135000J0D01*
G01*
G37*
G36*
G01*
X181685000Y-81910000D02*
X181315000Y-81910000D01*
G75*
G02*
X181180000Y-81775000I0J135000D01*
G01*
X181180000Y-81505000D01*
G75*
G02*
X181315000Y-81370000I135000J0D01*
G01*
X181685000Y-81370000D01*
G75*
G02*
X181820000Y-81505000I0J-135000D01*
G01*
X181820000Y-81775000D01*
G75*
G02*
X181685000Y-81910000I-135000J0D01*
G01*
G37*
G36*
G01*
X187000000Y-77375000D02*
X187000000Y-79225000D01*
G75*
G02*
X186750000Y-79475000I-250000J0D01*
G01*
X185925000Y-79475000D01*
G75*
G02*
X185675000Y-79225000I0J250000D01*
G01*
X185675000Y-77375000D01*
G75*
G02*
X185925000Y-77125000I250000J0D01*
G01*
X186750000Y-77125000D01*
G75*
G02*
X187000000Y-77375000I0J-250000D01*
G01*
G37*
G36*
G01*
X183925000Y-77375000D02*
X183925000Y-79225000D01*
G75*
G02*
X183675000Y-79475000I-250000J0D01*
G01*
X182850000Y-79475000D01*
G75*
G02*
X182600000Y-79225000I0J250000D01*
G01*
X182600000Y-77375000D01*
G75*
G02*
X182850000Y-77125000I250000J0D01*
G01*
X183675000Y-77125000D01*
G75*
G02*
X183925000Y-77375000I0J-250000D01*
G01*
G37*
G36*
G01*
X165075000Y-79375000D02*
X166325000Y-79375000D01*
G75*
G02*
X166575000Y-79625000I0J-250000D01*
G01*
X166575000Y-80375000D01*
G75*
G02*
X166325000Y-80625000I-250000J0D01*
G01*
X165075000Y-80625000D01*
G75*
G02*
X164825000Y-80375000I0J250000D01*
G01*
X164825000Y-79625000D01*
G75*
G02*
X165075000Y-79375000I250000J0D01*
G01*
G37*
G36*
G01*
X165075000Y-82175000D02*
X166325000Y-82175000D01*
G75*
G02*
X166575000Y-82425000I0J-250000D01*
G01*
X166575000Y-83175000D01*
G75*
G02*
X166325000Y-83425000I-250000J0D01*
G01*
X165075000Y-83425000D01*
G75*
G02*
X164825000Y-83175000I0J250000D01*
G01*
X164825000Y-82425000D01*
G75*
G02*
X165075000Y-82175000I250000J0D01*
G01*
G37*
G36*
G01*
X174975000Y-83925000D02*
X174425000Y-83925000D01*
G75*
G02*
X174225000Y-83725000I0J200000D01*
G01*
X174225000Y-83325000D01*
G75*
G02*
X174425000Y-83125000I200000J0D01*
G01*
X174975000Y-83125000D01*
G75*
G02*
X175175000Y-83325000I0J-200000D01*
G01*
X175175000Y-83725000D01*
G75*
G02*
X174975000Y-83925000I-200000J0D01*
G01*
G37*
G36*
G01*
X174975000Y-82275000D02*
X174425000Y-82275000D01*
G75*
G02*
X174225000Y-82075000I0J200000D01*
G01*
X174225000Y-81675000D01*
G75*
G02*
X174425000Y-81475000I200000J0D01*
G01*
X174975000Y-81475000D01*
G75*
G02*
X175175000Y-81675000I0J-200000D01*
G01*
X175175000Y-82075000D01*
G75*
G02*
X174975000Y-82275000I-200000J0D01*
G01*
G37*
D15*
X158000000Y-80300000D03*
X151900000Y-80300000D03*
X151900000Y-91700000D03*
X158000000Y-91700000D03*
M02*
