G04 #@! TF.GenerationSoftware,KiCad,Pcbnew,5.99.0-unknown-395602b12a~131~ubuntu20.04.1*
G04 #@! TF.CreationDate,2021-07-15T22:00:28+02:00*
G04 #@! TF.ProjectId,TPS5430,54505335-3433-4302-9e6b-696361645f70,rev?*
G04 #@! TF.SameCoordinates,Original*
G04 #@! TF.FileFunction,Copper,L1,Top*
G04 #@! TF.FilePolarity,Positive*
%FSLAX46Y46*%
G04 Gerber Fmt 4.6, Leading zero omitted, Abs format (unit mm)*
G04 Created by KiCad (PCBNEW 5.99.0-unknown-395602b12a~131~ubuntu20.04.1) date 2021-07-15 22:00:28*
%MOMM*%
%LPD*%
G01*
G04 APERTURE LIST*
G04 #@! TA.AperFunction,SMDPad,CuDef*
%ADD10R,2.500000X1.800000*%
G04 #@! TD*
G04 #@! TA.AperFunction,SMDPad,CuDef*
%ADD11R,1.300000X1.700000*%
G04 #@! TD*
G04 #@! TA.AperFunction,SMDPad,CuDef*
%ADD12R,1.550000X0.600000*%
G04 #@! TD*
G04 #@! TA.AperFunction,ComponentPad*
%ADD13C,0.600000*%
G04 #@! TD*
G04 #@! TA.AperFunction,SMDPad,CuDef*
%ADD14R,2.600000X3.100000*%
G04 #@! TD*
G04 #@! TA.AperFunction,SMDPad,CuDef*
%ADD15R,2.950000X4.500000*%
G04 #@! TD*
G04 #@! TA.AperFunction,SMDPad,CuDef*
%ADD16R,4.100000X4.100000*%
G04 #@! TD*
G04 #@! TA.AperFunction,ComponentPad*
%ADD17R,2.400000X2.400000*%
G04 #@! TD*
G04 #@! TA.AperFunction,ComponentPad*
%ADD18C,2.400000*%
G04 #@! TD*
G04 #@! TA.AperFunction,SMDPad,CuDef*
%ADD19R,2.800000X2.400000*%
G04 #@! TD*
G04 #@! TA.AperFunction,ViaPad*
%ADD20C,0.800000*%
G04 #@! TD*
G04 #@! TA.AperFunction,Conductor*
%ADD21C,0.250000*%
G04 #@! TD*
G04 APERTURE END LIST*
D10*
X175000000Y-92200000D03*
X179000000Y-92200000D03*
G04 #@! TA.AperFunction,SMDPad,CuDef*
G36*
G01*
X187800000Y-79225000D02*
X187800000Y-77375000D01*
G75*
G02*
X188050000Y-77125000I250000J0D01*
G01*
X188875000Y-77125000D01*
G75*
G02*
X189125000Y-77375000I0J-250000D01*
G01*
X189125000Y-79225000D01*
G75*
G02*
X188875000Y-79475000I-250000J0D01*
G01*
X188050000Y-79475000D01*
G75*
G02*
X187800000Y-79225000I0J250000D01*
G01*
G37*
G04 #@! TD.AperFunction*
G04 #@! TA.AperFunction,SMDPad,CuDef*
G36*
G01*
X190875000Y-79225000D02*
X190875000Y-77375000D01*
G75*
G02*
X191125000Y-77125000I250000J0D01*
G01*
X191950000Y-77125000D01*
G75*
G02*
X192200000Y-77375000I0J-250000D01*
G01*
X192200000Y-79225000D01*
G75*
G02*
X191950000Y-79475000I-250000J0D01*
G01*
X191125000Y-79475000D01*
G75*
G02*
X190875000Y-79225000I0J250000D01*
G01*
G37*
G04 #@! TD.AperFunction*
G04 #@! TA.AperFunction,SMDPad,CuDef*
G36*
G01*
X164900000Y-89212500D02*
X164600000Y-89212500D01*
G75*
G02*
X164450000Y-89062500I0J150000D01*
G01*
X164450000Y-87887500D01*
G75*
G02*
X164600000Y-87737500I150000J0D01*
G01*
X164900000Y-87737500D01*
G75*
G02*
X165050000Y-87887500I0J-150000D01*
G01*
X165050000Y-89062500D01*
G75*
G02*
X164900000Y-89212500I-150000J0D01*
G01*
G37*
G04 #@! TD.AperFunction*
G04 #@! TA.AperFunction,SMDPad,CuDef*
G36*
G01*
X166800000Y-89212500D02*
X166500000Y-89212500D01*
G75*
G02*
X166350000Y-89062500I0J150000D01*
G01*
X166350000Y-87887500D01*
G75*
G02*
X166500000Y-87737500I150000J0D01*
G01*
X166800000Y-87737500D01*
G75*
G02*
X166950000Y-87887500I0J-150000D01*
G01*
X166950000Y-89062500D01*
G75*
G02*
X166800000Y-89212500I-150000J0D01*
G01*
G37*
G04 #@! TD.AperFunction*
G04 #@! TA.AperFunction,SMDPad,CuDef*
G36*
G01*
X165850000Y-87337500D02*
X165550000Y-87337500D01*
G75*
G02*
X165400000Y-87187500I0J150000D01*
G01*
X165400000Y-86012500D01*
G75*
G02*
X165550000Y-85862500I150000J0D01*
G01*
X165850000Y-85862500D01*
G75*
G02*
X166000000Y-86012500I0J-150000D01*
G01*
X166000000Y-87187500D01*
G75*
G02*
X165850000Y-87337500I-150000J0D01*
G01*
G37*
G04 #@! TD.AperFunction*
G04 #@! TA.AperFunction,SMDPad,CuDef*
G36*
G01*
X180930000Y-91520000D02*
X181270000Y-91520000D01*
G75*
G02*
X181410000Y-91660000I0J-140000D01*
G01*
X181410000Y-91940000D01*
G75*
G02*
X181270000Y-92080000I-140000J0D01*
G01*
X180930000Y-92080000D01*
G75*
G02*
X180790000Y-91940000I0J140000D01*
G01*
X180790000Y-91660000D01*
G75*
G02*
X180930000Y-91520000I140000J0D01*
G01*
G37*
G04 #@! TD.AperFunction*
G04 #@! TA.AperFunction,SMDPad,CuDef*
G36*
G01*
X180930000Y-92480000D02*
X181270000Y-92480000D01*
G75*
G02*
X181410000Y-92620000I0J-140000D01*
G01*
X181410000Y-92900000D01*
G75*
G02*
X181270000Y-93040000I-140000J0D01*
G01*
X180930000Y-93040000D01*
G75*
G02*
X180790000Y-92900000I0J140000D01*
G01*
X180790000Y-92620000D01*
G75*
G02*
X180930000Y-92480000I140000J0D01*
G01*
G37*
G04 #@! TD.AperFunction*
G04 #@! TA.AperFunction,SMDPad,CuDef*
G36*
G01*
X167460000Y-92430000D02*
X167460000Y-92770000D01*
G75*
G02*
X167320000Y-92910000I-140000J0D01*
G01*
X167040000Y-92910000D01*
G75*
G02*
X166900000Y-92770000I0J140000D01*
G01*
X166900000Y-92430000D01*
G75*
G02*
X167040000Y-92290000I140000J0D01*
G01*
X167320000Y-92290000D01*
G75*
G02*
X167460000Y-92430000I0J-140000D01*
G01*
G37*
G04 #@! TD.AperFunction*
G04 #@! TA.AperFunction,SMDPad,CuDef*
G36*
G01*
X166500000Y-92430000D02*
X166500000Y-92770000D01*
G75*
G02*
X166360000Y-92910000I-140000J0D01*
G01*
X166080000Y-92910000D01*
G75*
G02*
X165940000Y-92770000I0J140000D01*
G01*
X165940000Y-92430000D01*
G75*
G02*
X166080000Y-92290000I140000J0D01*
G01*
X166360000Y-92290000D01*
G75*
G02*
X166500000Y-92430000I0J-140000D01*
G01*
G37*
G04 #@! TD.AperFunction*
D11*
X167450000Y-90800000D03*
X163950000Y-90800000D03*
G04 #@! TA.AperFunction,SMDPad,CuDef*
G36*
G01*
X165275000Y-84850000D02*
X165275000Y-84350000D01*
G75*
G02*
X165500000Y-84125000I225000J0D01*
G01*
X165950000Y-84125000D01*
G75*
G02*
X166175000Y-84350000I0J-225000D01*
G01*
X166175000Y-84850000D01*
G75*
G02*
X165950000Y-85075000I-225000J0D01*
G01*
X165500000Y-85075000D01*
G75*
G02*
X165275000Y-84850000I0J225000D01*
G01*
G37*
G04 #@! TD.AperFunction*
G04 #@! TA.AperFunction,SMDPad,CuDef*
G36*
G01*
X166825000Y-84850000D02*
X166825000Y-84350000D01*
G75*
G02*
X167050000Y-84125000I225000J0D01*
G01*
X167500000Y-84125000D01*
G75*
G02*
X167725000Y-84350000I0J-225000D01*
G01*
X167725000Y-84850000D01*
G75*
G02*
X167500000Y-85075000I-225000J0D01*
G01*
X167050000Y-85075000D01*
G75*
G02*
X166825000Y-84850000I0J225000D01*
G01*
G37*
G04 #@! TD.AperFunction*
G04 #@! TA.AperFunction,SMDPad,CuDef*
G36*
X174950000Y-79450000D02*
G01*
X174950000Y-79950000D01*
X174945033Y-79950000D01*
X174943568Y-80029941D01*
X174901293Y-80165256D01*
X174822738Y-80283266D01*
X174714219Y-80374486D01*
X174584460Y-80431581D01*
X174450000Y-80449164D01*
X174450000Y-80450000D01*
X173950000Y-80450000D01*
X173950000Y-80449164D01*
X173943891Y-80449963D01*
X173803814Y-80428152D01*
X173675489Y-80367904D01*
X173569231Y-80274060D01*
X173493583Y-80154165D01*
X173454626Y-80017858D01*
X173455041Y-79950000D01*
X173450000Y-79950000D01*
X173450000Y-79450000D01*
X174950000Y-79450000D01*
G37*
G04 #@! TD.AperFunction*
G04 #@! TA.AperFunction,SMDPad,CuDef*
G36*
X173455041Y-78650000D02*
G01*
X173455492Y-78576095D01*
X173496111Y-78440274D01*
X173573218Y-78321312D01*
X173680615Y-78228774D01*
X173809667Y-78170097D01*
X173950000Y-78150000D01*
X174450000Y-78150000D01*
X174462216Y-78150149D01*
X174602017Y-78173669D01*
X174729596Y-78235481D01*
X174834700Y-78330616D01*
X174908877Y-78451426D01*
X174946166Y-78588199D01*
X174945033Y-78650000D01*
X174950000Y-78650000D01*
X174950000Y-79150000D01*
X173450000Y-79150000D01*
X173450000Y-78650000D01*
X173455041Y-78650000D01*
G37*
G04 #@! TD.AperFunction*
G04 #@! TA.AperFunction,SMDPad,CuDef*
G36*
G01*
X168515000Y-81320000D02*
X168885000Y-81320000D01*
G75*
G02*
X169020000Y-81455000I0J-135000D01*
G01*
X169020000Y-81725000D01*
G75*
G02*
X168885000Y-81860000I-135000J0D01*
G01*
X168515000Y-81860000D01*
G75*
G02*
X168380000Y-81725000I0J135000D01*
G01*
X168380000Y-81455000D01*
G75*
G02*
X168515000Y-81320000I135000J0D01*
G01*
G37*
G04 #@! TD.AperFunction*
G04 #@! TA.AperFunction,SMDPad,CuDef*
G36*
G01*
X168515000Y-82340000D02*
X168885000Y-82340000D01*
G75*
G02*
X169020000Y-82475000I0J-135000D01*
G01*
X169020000Y-82745000D01*
G75*
G02*
X168885000Y-82880000I-135000J0D01*
G01*
X168515000Y-82880000D01*
G75*
G02*
X168380000Y-82745000I0J135000D01*
G01*
X168380000Y-82475000D01*
G75*
G02*
X168515000Y-82340000I135000J0D01*
G01*
G37*
G04 #@! TD.AperFunction*
G04 #@! TA.AperFunction,SMDPad,CuDef*
G36*
G01*
X172850000Y-88650000D02*
X171550000Y-88650000D01*
G75*
G02*
X171300000Y-88400000I0J250000D01*
G01*
X171300000Y-87750000D01*
G75*
G02*
X171550000Y-87500000I250000J0D01*
G01*
X172850000Y-87500000D01*
G75*
G02*
X173100000Y-87750000I0J-250000D01*
G01*
X173100000Y-88400000D01*
G75*
G02*
X172850000Y-88650000I-250000J0D01*
G01*
G37*
G04 #@! TD.AperFunction*
G04 #@! TA.AperFunction,SMDPad,CuDef*
G36*
G01*
X172850000Y-85700000D02*
X171550000Y-85700000D01*
G75*
G02*
X171300000Y-85450000I0J250000D01*
G01*
X171300000Y-84800000D01*
G75*
G02*
X171550000Y-84550000I250000J0D01*
G01*
X172850000Y-84550000D01*
G75*
G02*
X173100000Y-84800000I0J-250000D01*
G01*
X173100000Y-85450000D01*
G75*
G02*
X172850000Y-85700000I-250000J0D01*
G01*
G37*
G04 #@! TD.AperFunction*
G04 #@! TA.AperFunction,SMDPad,CuDef*
G36*
G01*
X179515000Y-81370000D02*
X179885000Y-81370000D01*
G75*
G02*
X180020000Y-81505000I0J-135000D01*
G01*
X180020000Y-81775000D01*
G75*
G02*
X179885000Y-81910000I-135000J0D01*
G01*
X179515000Y-81910000D01*
G75*
G02*
X179380000Y-81775000I0J135000D01*
G01*
X179380000Y-81505000D01*
G75*
G02*
X179515000Y-81370000I135000J0D01*
G01*
G37*
G04 #@! TD.AperFunction*
G04 #@! TA.AperFunction,SMDPad,CuDef*
G36*
G01*
X179515000Y-82390000D02*
X179885000Y-82390000D01*
G75*
G02*
X180020000Y-82525000I0J-135000D01*
G01*
X180020000Y-82795000D01*
G75*
G02*
X179885000Y-82930000I-135000J0D01*
G01*
X179515000Y-82930000D01*
G75*
G02*
X179380000Y-82795000I0J135000D01*
G01*
X179380000Y-82525000D01*
G75*
G02*
X179515000Y-82390000I135000J0D01*
G01*
G37*
G04 #@! TD.AperFunction*
G04 #@! TA.AperFunction,SMDPad,CuDef*
G36*
X169950000Y-79450000D02*
G01*
X169950000Y-79950000D01*
X169945033Y-79950000D01*
X169943568Y-80029941D01*
X169901293Y-80165256D01*
X169822738Y-80283266D01*
X169714219Y-80374486D01*
X169584460Y-80431581D01*
X169450000Y-80449164D01*
X169450000Y-80450000D01*
X168950000Y-80450000D01*
X168950000Y-80449164D01*
X168943891Y-80449963D01*
X168803814Y-80428152D01*
X168675489Y-80367904D01*
X168569231Y-80274060D01*
X168493583Y-80154165D01*
X168454626Y-80017858D01*
X168455041Y-79950000D01*
X168450000Y-79950000D01*
X168450000Y-79450000D01*
X169950000Y-79450000D01*
G37*
G04 #@! TD.AperFunction*
G04 #@! TA.AperFunction,SMDPad,CuDef*
G36*
X168455041Y-78650000D02*
G01*
X168455492Y-78576095D01*
X168496111Y-78440274D01*
X168573218Y-78321312D01*
X168680615Y-78228774D01*
X168809667Y-78170097D01*
X168950000Y-78150000D01*
X169450000Y-78150000D01*
X169462216Y-78150149D01*
X169602017Y-78173669D01*
X169729596Y-78235481D01*
X169834700Y-78330616D01*
X169908877Y-78451426D01*
X169946166Y-78588199D01*
X169945033Y-78650000D01*
X169950000Y-78650000D01*
X169950000Y-79150000D01*
X168450000Y-79150000D01*
X168450000Y-78650000D01*
X168455041Y-78650000D01*
G37*
G04 #@! TD.AperFunction*
D12*
X180000000Y-89405000D03*
X180000000Y-88135000D03*
X180000000Y-86865000D03*
X180000000Y-85595000D03*
X174600000Y-85595000D03*
X174600000Y-86865000D03*
X174600000Y-88135000D03*
X174600000Y-89405000D03*
D13*
X176700000Y-85700000D03*
D14*
X177300000Y-87500000D03*
D13*
X176700000Y-88100000D03*
D15*
X177300000Y-87500000D03*
D13*
X177900000Y-89300000D03*
X176700000Y-89300000D03*
X177900000Y-86800000D03*
X176700000Y-86800000D03*
X177900000Y-88100000D03*
X177900000Y-85700000D03*
G04 #@! TA.AperFunction,SMDPad,CuDef*
G36*
G01*
X171550000Y-89250000D02*
X172850000Y-89250000D01*
G75*
G02*
X173100000Y-89500000I0J-250000D01*
G01*
X173100000Y-90150000D01*
G75*
G02*
X172850000Y-90400000I-250000J0D01*
G01*
X171550000Y-90400000D01*
G75*
G02*
X171300000Y-90150000I0J250000D01*
G01*
X171300000Y-89500000D01*
G75*
G02*
X171550000Y-89250000I250000J0D01*
G01*
G37*
G04 #@! TD.AperFunction*
G04 #@! TA.AperFunction,SMDPad,CuDef*
G36*
G01*
X171550000Y-92200000D02*
X172850000Y-92200000D01*
G75*
G02*
X173100000Y-92450000I0J-250000D01*
G01*
X173100000Y-93100000D01*
G75*
G02*
X172850000Y-93350000I-250000J0D01*
G01*
X171550000Y-93350000D01*
G75*
G02*
X171300000Y-93100000I0J250000D01*
G01*
X171300000Y-92450000D01*
G75*
G02*
X171550000Y-92200000I250000J0D01*
G01*
G37*
G04 #@! TD.AperFunction*
G04 #@! TA.AperFunction,SMDPad,CuDef*
G36*
G01*
X170450000Y-88650000D02*
X169150000Y-88650000D01*
G75*
G02*
X168900000Y-88400000I0J250000D01*
G01*
X168900000Y-87750000D01*
G75*
G02*
X169150000Y-87500000I250000J0D01*
G01*
X170450000Y-87500000D01*
G75*
G02*
X170700000Y-87750000I0J-250000D01*
G01*
X170700000Y-88400000D01*
G75*
G02*
X170450000Y-88650000I-250000J0D01*
G01*
G37*
G04 #@! TD.AperFunction*
G04 #@! TA.AperFunction,SMDPad,CuDef*
G36*
G01*
X170450000Y-85700000D02*
X169150000Y-85700000D01*
G75*
G02*
X168900000Y-85450000I0J250000D01*
G01*
X168900000Y-84800000D01*
G75*
G02*
X169150000Y-84550000I250000J0D01*
G01*
X170450000Y-84550000D01*
G75*
G02*
X170700000Y-84800000I0J-250000D01*
G01*
X170700000Y-85450000D01*
G75*
G02*
X170450000Y-85700000I-250000J0D01*
G01*
G37*
G04 #@! TD.AperFunction*
G04 #@! TA.AperFunction,SMDPad,CuDef*
G36*
G01*
X169150000Y-89250000D02*
X170450000Y-89250000D01*
G75*
G02*
X170700000Y-89500000I0J-250000D01*
G01*
X170700000Y-90150000D01*
G75*
G02*
X170450000Y-90400000I-250000J0D01*
G01*
X169150000Y-90400000D01*
G75*
G02*
X168900000Y-90150000I0J250000D01*
G01*
X168900000Y-89500000D01*
G75*
G02*
X169150000Y-89250000I250000J0D01*
G01*
G37*
G04 #@! TD.AperFunction*
G04 #@! TA.AperFunction,SMDPad,CuDef*
G36*
G01*
X169150000Y-92200000D02*
X170450000Y-92200000D01*
G75*
G02*
X170700000Y-92450000I0J-250000D01*
G01*
X170700000Y-93100000D01*
G75*
G02*
X170450000Y-93350000I-250000J0D01*
G01*
X169150000Y-93350000D01*
G75*
G02*
X168900000Y-93100000I0J250000D01*
G01*
X168900000Y-92450000D01*
G75*
G02*
X169150000Y-92200000I250000J0D01*
G01*
G37*
G04 #@! TD.AperFunction*
D16*
X187400000Y-91850000D03*
X187400000Y-82350000D03*
G04 #@! TA.AperFunction,SMDPad,CuDef*
G36*
G01*
X169615000Y-81320000D02*
X169985000Y-81320000D01*
G75*
G02*
X170120000Y-81455000I0J-135000D01*
G01*
X170120000Y-81725000D01*
G75*
G02*
X169985000Y-81860000I-135000J0D01*
G01*
X169615000Y-81860000D01*
G75*
G02*
X169480000Y-81725000I0J135000D01*
G01*
X169480000Y-81455000D01*
G75*
G02*
X169615000Y-81320000I135000J0D01*
G01*
G37*
G04 #@! TD.AperFunction*
G04 #@! TA.AperFunction,SMDPad,CuDef*
G36*
G01*
X169615000Y-82340000D02*
X169985000Y-82340000D01*
G75*
G02*
X170120000Y-82475000I0J-135000D01*
G01*
X170120000Y-82745000D01*
G75*
G02*
X169985000Y-82880000I-135000J0D01*
G01*
X169615000Y-82880000D01*
G75*
G02*
X169480000Y-82745000I0J135000D01*
G01*
X169480000Y-82475000D01*
G75*
G02*
X169615000Y-82340000I135000J0D01*
G01*
G37*
G04 #@! TD.AperFunction*
G04 #@! TA.AperFunction,SMDPad,CuDef*
G36*
G01*
X165470000Y-92415000D02*
X165470000Y-92785000D01*
G75*
G02*
X165335000Y-92920000I-135000J0D01*
G01*
X165065000Y-92920000D01*
G75*
G02*
X164930000Y-92785000I0J135000D01*
G01*
X164930000Y-92415000D01*
G75*
G02*
X165065000Y-92280000I135000J0D01*
G01*
X165335000Y-92280000D01*
G75*
G02*
X165470000Y-92415000I0J-135000D01*
G01*
G37*
G04 #@! TD.AperFunction*
G04 #@! TA.AperFunction,SMDPad,CuDef*
G36*
G01*
X164450000Y-92415000D02*
X164450000Y-92785000D01*
G75*
G02*
X164315000Y-92920000I-135000J0D01*
G01*
X164045000Y-92920000D01*
G75*
G02*
X163910000Y-92785000I0J135000D01*
G01*
X163910000Y-92415000D01*
G75*
G02*
X164045000Y-92280000I135000J0D01*
G01*
X164315000Y-92280000D01*
G75*
G02*
X164450000Y-92415000I0J-135000D01*
G01*
G37*
G04 #@! TD.AperFunction*
G04 #@! TA.AperFunction,SMDPad,CuDef*
G36*
G01*
X178415000Y-81370000D02*
X178785000Y-81370000D01*
G75*
G02*
X178920000Y-81505000I0J-135000D01*
G01*
X178920000Y-81775000D01*
G75*
G02*
X178785000Y-81910000I-135000J0D01*
G01*
X178415000Y-81910000D01*
G75*
G02*
X178280000Y-81775000I0J135000D01*
G01*
X178280000Y-81505000D01*
G75*
G02*
X178415000Y-81370000I135000J0D01*
G01*
G37*
G04 #@! TD.AperFunction*
G04 #@! TA.AperFunction,SMDPad,CuDef*
G36*
G01*
X178415000Y-82390000D02*
X178785000Y-82390000D01*
G75*
G02*
X178920000Y-82525000I0J-135000D01*
G01*
X178920000Y-82795000D01*
G75*
G02*
X178785000Y-82930000I-135000J0D01*
G01*
X178415000Y-82930000D01*
G75*
G02*
X178280000Y-82795000I0J135000D01*
G01*
X178280000Y-82525000D01*
G75*
G02*
X178415000Y-82390000I135000J0D01*
G01*
G37*
G04 #@! TD.AperFunction*
G04 #@! TA.AperFunction,SMDPad,CuDef*
G36*
G01*
X193240000Y-81570000D02*
X193240000Y-81230000D01*
G75*
G02*
X193380000Y-81090000I140000J0D01*
G01*
X193660000Y-81090000D01*
G75*
G02*
X193800000Y-81230000I0J-140000D01*
G01*
X193800000Y-81570000D01*
G75*
G02*
X193660000Y-81710000I-140000J0D01*
G01*
X193380000Y-81710000D01*
G75*
G02*
X193240000Y-81570000I0J140000D01*
G01*
G37*
G04 #@! TD.AperFunction*
G04 #@! TA.AperFunction,SMDPad,CuDef*
G36*
G01*
X194200000Y-81570000D02*
X194200000Y-81230000D01*
G75*
G02*
X194340000Y-81090000I140000J0D01*
G01*
X194620000Y-81090000D01*
G75*
G02*
X194760000Y-81230000I0J-140000D01*
G01*
X194760000Y-81570000D01*
G75*
G02*
X194620000Y-81710000I-140000J0D01*
G01*
X194340000Y-81710000D01*
G75*
G02*
X194200000Y-81570000I0J140000D01*
G01*
G37*
G04 #@! TD.AperFunction*
G04 #@! TA.AperFunction,SMDPad,CuDef*
G36*
G01*
X173215000Y-81920000D02*
X173585000Y-81920000D01*
G75*
G02*
X173720000Y-82055000I0J-135000D01*
G01*
X173720000Y-82325000D01*
G75*
G02*
X173585000Y-82460000I-135000J0D01*
G01*
X173215000Y-82460000D01*
G75*
G02*
X173080000Y-82325000I0J135000D01*
G01*
X173080000Y-82055000D01*
G75*
G02*
X173215000Y-81920000I135000J0D01*
G01*
G37*
G04 #@! TD.AperFunction*
G04 #@! TA.AperFunction,SMDPad,CuDef*
G36*
G01*
X173215000Y-82940000D02*
X173585000Y-82940000D01*
G75*
G02*
X173720000Y-83075000I0J-135000D01*
G01*
X173720000Y-83345000D01*
G75*
G02*
X173585000Y-83480000I-135000J0D01*
G01*
X173215000Y-83480000D01*
G75*
G02*
X173080000Y-83345000I0J135000D01*
G01*
X173080000Y-83075000D01*
G75*
G02*
X173215000Y-82940000I135000J0D01*
G01*
G37*
G04 #@! TD.AperFunction*
G04 #@! TA.AperFunction,SMDPad,CuDef*
G36*
X179950000Y-79450000D02*
G01*
X179950000Y-79950000D01*
X179945033Y-79950000D01*
X179943568Y-80029941D01*
X179901293Y-80165256D01*
X179822738Y-80283266D01*
X179714219Y-80374486D01*
X179584460Y-80431581D01*
X179450000Y-80449164D01*
X179450000Y-80450000D01*
X178950000Y-80450000D01*
X178950000Y-80449164D01*
X178943891Y-80449963D01*
X178803814Y-80428152D01*
X178675489Y-80367904D01*
X178569231Y-80274060D01*
X178493583Y-80154165D01*
X178454626Y-80017858D01*
X178455041Y-79950000D01*
X178450000Y-79950000D01*
X178450000Y-79450000D01*
X179950000Y-79450000D01*
G37*
G04 #@! TD.AperFunction*
G04 #@! TA.AperFunction,SMDPad,CuDef*
G36*
X178455041Y-78650000D02*
G01*
X178455492Y-78576095D01*
X178496111Y-78440274D01*
X178573218Y-78321312D01*
X178680615Y-78228774D01*
X178809667Y-78170097D01*
X178950000Y-78150000D01*
X179450000Y-78150000D01*
X179462216Y-78150149D01*
X179602017Y-78173669D01*
X179729596Y-78235481D01*
X179834700Y-78330616D01*
X179908877Y-78451426D01*
X179946166Y-78588199D01*
X179945033Y-78650000D01*
X179950000Y-78650000D01*
X179950000Y-79150000D01*
X178450000Y-79150000D01*
X178450000Y-78650000D01*
X178455041Y-78650000D01*
G37*
G04 #@! TD.AperFunction*
D17*
X196700000Y-87750000D03*
D18*
X196700000Y-84250000D03*
G04 #@! TA.AperFunction,SMDPad,CuDef*
G36*
G01*
X181685000Y-82930000D02*
X181315000Y-82930000D01*
G75*
G02*
X181180000Y-82795000I0J135000D01*
G01*
X181180000Y-82525000D01*
G75*
G02*
X181315000Y-82390000I135000J0D01*
G01*
X181685000Y-82390000D01*
G75*
G02*
X181820000Y-82525000I0J-135000D01*
G01*
X181820000Y-82795000D01*
G75*
G02*
X181685000Y-82930000I-135000J0D01*
G01*
G37*
G04 #@! TD.AperFunction*
G04 #@! TA.AperFunction,SMDPad,CuDef*
G36*
G01*
X181685000Y-81910000D02*
X181315000Y-81910000D01*
G75*
G02*
X181180000Y-81775000I0J135000D01*
G01*
X181180000Y-81505000D01*
G75*
G02*
X181315000Y-81370000I135000J0D01*
G01*
X181685000Y-81370000D01*
G75*
G02*
X181820000Y-81505000I0J-135000D01*
G01*
X181820000Y-81775000D01*
G75*
G02*
X181685000Y-81910000I-135000J0D01*
G01*
G37*
G04 #@! TD.AperFunction*
G04 #@! TA.AperFunction,SMDPad,CuDef*
G36*
G01*
X187000000Y-77375000D02*
X187000000Y-79225000D01*
G75*
G02*
X186750000Y-79475000I-250000J0D01*
G01*
X185925000Y-79475000D01*
G75*
G02*
X185675000Y-79225000I0J250000D01*
G01*
X185675000Y-77375000D01*
G75*
G02*
X185925000Y-77125000I250000J0D01*
G01*
X186750000Y-77125000D01*
G75*
G02*
X187000000Y-77375000I0J-250000D01*
G01*
G37*
G04 #@! TD.AperFunction*
G04 #@! TA.AperFunction,SMDPad,CuDef*
G36*
G01*
X183925000Y-77375000D02*
X183925000Y-79225000D01*
G75*
G02*
X183675000Y-79475000I-250000J0D01*
G01*
X182850000Y-79475000D01*
G75*
G02*
X182600000Y-79225000I0J250000D01*
G01*
X182600000Y-77375000D01*
G75*
G02*
X182850000Y-77125000I250000J0D01*
G01*
X183675000Y-77125000D01*
G75*
G02*
X183925000Y-77375000I0J-250000D01*
G01*
G37*
G04 #@! TD.AperFunction*
G04 #@! TA.AperFunction,SMDPad,CuDef*
G36*
G01*
X165075000Y-79375000D02*
X166325000Y-79375000D01*
G75*
G02*
X166575000Y-79625000I0J-250000D01*
G01*
X166575000Y-80375000D01*
G75*
G02*
X166325000Y-80625000I-250000J0D01*
G01*
X165075000Y-80625000D01*
G75*
G02*
X164825000Y-80375000I0J250000D01*
G01*
X164825000Y-79625000D01*
G75*
G02*
X165075000Y-79375000I250000J0D01*
G01*
G37*
G04 #@! TD.AperFunction*
G04 #@! TA.AperFunction,SMDPad,CuDef*
G36*
G01*
X165075000Y-82175000D02*
X166325000Y-82175000D01*
G75*
G02*
X166575000Y-82425000I0J-250000D01*
G01*
X166575000Y-83175000D01*
G75*
G02*
X166325000Y-83425000I-250000J0D01*
G01*
X165075000Y-83425000D01*
G75*
G02*
X164825000Y-83175000I0J250000D01*
G01*
X164825000Y-82425000D01*
G75*
G02*
X165075000Y-82175000I250000J0D01*
G01*
G37*
G04 #@! TD.AperFunction*
G04 #@! TA.AperFunction,SMDPad,CuDef*
G36*
G01*
X174975000Y-83925000D02*
X174425000Y-83925000D01*
G75*
G02*
X174225000Y-83725000I0J200000D01*
G01*
X174225000Y-83325000D01*
G75*
G02*
X174425000Y-83125000I200000J0D01*
G01*
X174975000Y-83125000D01*
G75*
G02*
X175175000Y-83325000I0J-200000D01*
G01*
X175175000Y-83725000D01*
G75*
G02*
X174975000Y-83925000I-200000J0D01*
G01*
G37*
G04 #@! TD.AperFunction*
G04 #@! TA.AperFunction,SMDPad,CuDef*
G36*
G01*
X174975000Y-82275000D02*
X174425000Y-82275000D01*
G75*
G02*
X174225000Y-82075000I0J200000D01*
G01*
X174225000Y-81675000D01*
G75*
G02*
X174425000Y-81475000I200000J0D01*
G01*
X174975000Y-81475000D01*
G75*
G02*
X175175000Y-81675000I0J-200000D01*
G01*
X175175000Y-82075000D01*
G75*
G02*
X174975000Y-82275000I-200000J0D01*
G01*
G37*
G04 #@! TD.AperFunction*
D19*
X158000000Y-80300000D03*
X151900000Y-80300000D03*
X151900000Y-91700000D03*
X158000000Y-91700000D03*
D20*
X163000000Y-77000000D03*
X178000000Y-77000000D03*
X192000000Y-87000000D03*
X195000000Y-92000000D03*
X157000000Y-95000000D03*
X160000000Y-91000000D03*
X160000000Y-77000000D03*
X166000000Y-95000000D03*
X192000000Y-89000000D03*
X148000000Y-82000000D03*
X172000000Y-80000000D03*
X193200000Y-79100000D03*
X186000000Y-87000000D03*
X198000000Y-92000000D03*
X163000000Y-95000000D03*
X176500000Y-80000000D03*
X195000000Y-80000000D03*
X177500000Y-90500000D03*
X201000000Y-91500000D03*
X152000000Y-95000000D03*
X162000000Y-93000000D03*
X201000000Y-89000000D03*
X157000000Y-88000000D03*
X172200000Y-91500000D03*
X160000000Y-95000000D03*
X172000000Y-77000000D03*
X181900000Y-77600000D03*
X177000000Y-92000000D03*
X189000000Y-87000000D03*
X169000000Y-95000000D03*
X163000000Y-88000000D03*
X154000000Y-88000000D03*
X154000000Y-91000000D03*
X157000000Y-77000000D03*
X160000000Y-88000000D03*
X195000000Y-95000000D03*
X189000000Y-89000000D03*
X148000000Y-80500000D03*
X148000000Y-85000000D03*
X151500000Y-77000000D03*
X183000000Y-81000000D03*
X152000000Y-93500000D03*
X201000000Y-80500000D03*
X169000000Y-77000000D03*
X181900000Y-79000000D03*
X160000000Y-82000000D03*
X201000000Y-83000000D03*
X167500000Y-80000000D03*
X179500000Y-84000000D03*
X148000000Y-88000000D03*
X198000000Y-80000000D03*
X162000000Y-91000000D03*
X163000000Y-82000000D03*
X192000000Y-95000000D03*
X169800000Y-91500000D03*
X154000000Y-77000000D03*
X186000000Y-89000000D03*
X156000000Y-91000000D03*
X166000000Y-77000000D03*
X175000000Y-77000000D03*
X201000000Y-86000000D03*
X195000000Y-77000000D03*
X163000000Y-85000000D03*
X172100000Y-83700000D03*
X154000000Y-93000000D03*
X154000000Y-82000000D03*
X183000000Y-84000000D03*
X168000000Y-86000000D03*
X169800000Y-83700000D03*
X154000000Y-95000000D03*
X154000000Y-85000000D03*
X160000000Y-93000000D03*
X179500000Y-90500000D03*
X148000000Y-91000000D03*
X192000000Y-92000000D03*
X172000000Y-82000000D03*
X178000000Y-84000000D03*
X197500000Y-95000000D03*
X172000000Y-95000000D03*
X167500000Y-82000000D03*
X151000000Y-88000000D03*
X160000000Y-85000000D03*
X176500000Y-82000000D03*
X167500000Y-83500000D03*
X183000000Y-87000000D03*
X183000000Y-89000000D03*
X197500000Y-77000000D03*
X193200000Y-77500000D03*
X176500000Y-84000000D03*
X181000000Y-77000000D03*
X156000000Y-93000000D03*
D21*
X181100000Y-90505000D02*
X180000000Y-89405000D01*
X181100000Y-91800000D02*
X181100000Y-90505000D01*
X187090000Y-82660000D02*
X187400000Y-82350000D01*
X181500000Y-82660000D02*
X187090000Y-82660000D01*
X168700000Y-81590000D02*
X168700000Y-80450000D01*
X168700000Y-80450000D02*
X169200000Y-79950000D01*
X168700000Y-81590000D02*
X169800000Y-81590000D01*
X174200000Y-78650000D02*
X169200000Y-78650000D01*
X181500000Y-81640000D02*
X181500000Y-80199876D01*
X180600000Y-82540000D02*
X180600000Y-84995000D01*
X181500000Y-81640000D02*
X180600000Y-82540000D01*
X181500000Y-80199876D02*
X179950124Y-78650000D01*
X179200000Y-78650000D02*
X174200000Y-78650000D01*
X179950124Y-78650000D02*
X179200000Y-78650000D01*
X180600000Y-84995000D02*
X180000000Y-85595000D01*
X173400000Y-82190000D02*
X173400000Y-80750000D01*
X173400000Y-80750000D02*
X174200000Y-79950000D01*
X179700000Y-81640000D02*
X179700000Y-80450000D01*
X178600000Y-81640000D02*
X179700000Y-81640000D01*
X179700000Y-80450000D02*
X179200000Y-79950000D01*
X174385000Y-83210000D02*
X174700000Y-83525000D01*
X173400000Y-83210000D02*
X174385000Y-83210000D01*
G04 #@! TA.AperFunction,Conductor*
G36*
X182964900Y-89601061D02*
G01*
X183000000Y-89605682D01*
X183035100Y-89601061D01*
X183051285Y-89600000D01*
X185034770Y-89600000D01*
X185101809Y-89619685D01*
X185147564Y-89672489D01*
X185156388Y-89748190D01*
X185147271Y-89794027D01*
X185146082Y-89806096D01*
X185146082Y-91082170D01*
X185150486Y-91097169D01*
X185151856Y-91098356D01*
X185159414Y-91100000D01*
X188026000Y-91100000D01*
X188093039Y-91119685D01*
X188138794Y-91172489D01*
X188150000Y-91224000D01*
X188150000Y-94086088D01*
X188154404Y-94101087D01*
X188155774Y-94102274D01*
X188163332Y-94103918D01*
X189443904Y-94103918D01*
X189462035Y-94102132D01*
X189462268Y-94104496D01*
X189521390Y-94109781D01*
X189576571Y-94152639D01*
X189600000Y-94225175D01*
X189600000Y-94776000D01*
X189580315Y-94843039D01*
X189527511Y-94888794D01*
X189476000Y-94900000D01*
X173724000Y-94900000D01*
X173656961Y-94880315D01*
X173611206Y-94827511D01*
X173600000Y-94776000D01*
X173600000Y-93425175D01*
X173619685Y-93358136D01*
X173672489Y-93312381D01*
X173737704Y-93304783D01*
X173737965Y-93302132D01*
X173756096Y-93303918D01*
X174232170Y-93303918D01*
X174247169Y-93299514D01*
X174248356Y-93298144D01*
X174250000Y-93290586D01*
X174250000Y-91113912D01*
X174245596Y-91098913D01*
X174244226Y-91097726D01*
X174236668Y-91096082D01*
X173756096Y-91096082D01*
X173737965Y-91097868D01*
X173737732Y-91095504D01*
X173678610Y-91090219D01*
X173623429Y-91047361D01*
X173600000Y-90974825D01*
X173600000Y-90015257D01*
X173604480Y-90000000D01*
X176376000Y-90000000D01*
X176443039Y-90019685D01*
X176488794Y-90072489D01*
X176500000Y-90124000D01*
X176500000Y-90999834D01*
X176480315Y-91066873D01*
X176427511Y-91112628D01*
X176358353Y-91122572D01*
X176328548Y-91114395D01*
X176316058Y-91109221D01*
X176255981Y-91097272D01*
X176243904Y-91096082D01*
X175767830Y-91096082D01*
X175752831Y-91100486D01*
X175751644Y-91101856D01*
X175750000Y-91109414D01*
X175750000Y-93286088D01*
X175754404Y-93301087D01*
X175755774Y-93302274D01*
X175763332Y-93303918D01*
X176243904Y-93303918D01*
X176255981Y-93302728D01*
X176316058Y-93290779D01*
X176338188Y-93281612D01*
X176343269Y-93278217D01*
X176409946Y-93257337D01*
X176477327Y-93275820D01*
X176493366Y-93287604D01*
X176500000Y-93293353D01*
X176500000Y-93300000D01*
X177715528Y-93300000D01*
X177739719Y-93302383D01*
X177750000Y-93304428D01*
X180250000Y-93304428D01*
X180260281Y-93302383D01*
X180284472Y-93300000D01*
X180500000Y-93300000D01*
X180500000Y-93248945D01*
X180519685Y-93181906D01*
X180572489Y-93136151D01*
X180641647Y-93126207D01*
X180703706Y-93153955D01*
X180749073Y-93192022D01*
X180767567Y-93202700D01*
X180803249Y-93215687D01*
X180817097Y-93216567D01*
X180820000Y-93211148D01*
X180820000Y-93053332D01*
X181380000Y-93053332D01*
X181380000Y-93208019D01*
X181383719Y-93220686D01*
X181390475Y-93221548D01*
X181397475Y-93219001D01*
X181482520Y-93169899D01*
X181498895Y-93156159D01*
X181562017Y-93080934D01*
X181572701Y-93062429D01*
X181574768Y-93056752D01*
X181575648Y-93042903D01*
X181570229Y-93040000D01*
X181397830Y-93040000D01*
X181382831Y-93044404D01*
X181381644Y-93045774D01*
X181380000Y-93053332D01*
X180820000Y-93053332D01*
X180820000Y-92613332D01*
X185146082Y-92613332D01*
X185146082Y-93893904D01*
X185147272Y-93905981D01*
X185159221Y-93966058D01*
X185168389Y-93988190D01*
X185199024Y-94034039D01*
X185215961Y-94050976D01*
X185261810Y-94081611D01*
X185283942Y-94090779D01*
X185344019Y-94102728D01*
X185356096Y-94103918D01*
X186632170Y-94103918D01*
X186647169Y-94099514D01*
X186648356Y-94098144D01*
X186650000Y-94090586D01*
X186650000Y-92617830D01*
X186645596Y-92602831D01*
X186644226Y-92601644D01*
X186636668Y-92600000D01*
X185163912Y-92600000D01*
X185148913Y-92604404D01*
X185147726Y-92605774D01*
X185146082Y-92613332D01*
X180820000Y-92613332D01*
X180820000Y-92604000D01*
X180839685Y-92536961D01*
X180892489Y-92491206D01*
X180944000Y-92480000D01*
X181563939Y-92480000D01*
X181577256Y-92476090D01*
X181577488Y-92474480D01*
X181574053Y-92464556D01*
X181570728Y-92394766D01*
X181605663Y-92334257D01*
X181667766Y-92302241D01*
X181677802Y-92301283D01*
X181682171Y-92300000D01*
X181700000Y-92300000D01*
X181700000Y-89724000D01*
X181719685Y-89656961D01*
X181772489Y-89611206D01*
X181824000Y-89600000D01*
X182948715Y-89600000D01*
X182964900Y-89601061D01*
G37*
G04 #@! TD.AperFunction*
G04 #@! TA.AperFunction,Conductor*
G36*
X158047355Y-79398650D02*
G01*
X166101081Y-79399921D01*
X166241660Y-79420156D01*
X166370846Y-79479178D01*
X166478171Y-79572205D01*
X166554939Y-79691701D01*
X166594932Y-79827984D01*
X166600000Y-79898921D01*
X166600000Y-80601000D01*
X166579787Y-80741585D01*
X166520786Y-80870780D01*
X166427776Y-80978119D01*
X166308292Y-81054906D01*
X166172015Y-81094921D01*
X166101000Y-81100000D01*
X159600000Y-81100000D01*
X159600480Y-81100867D01*
X159586319Y-81101870D01*
X156984542Y-81098355D01*
X151013505Y-81090288D01*
X150872950Y-81069885D01*
X150743834Y-81010709D01*
X150636621Y-80917554D01*
X150559995Y-80797967D01*
X150520165Y-80661636D01*
X150515221Y-80597630D01*
X150506391Y-79902881D01*
X150524816Y-79762051D01*
X150582171Y-79632116D01*
X150673809Y-79523603D01*
X150792307Y-79445304D01*
X150928065Y-79403560D01*
X151005430Y-79397539D01*
X158047355Y-79398650D01*
G37*
G04 #@! TD.AperFunction*
G04 #@! TA.AperFunction,Conductor*
G36*
X166441585Y-82020213D02*
G01*
X166570780Y-82079214D01*
X166678119Y-82172224D01*
X166754906Y-82291708D01*
X166794921Y-82427985D01*
X166800000Y-82499000D01*
X166800000Y-83305533D01*
X166779787Y-83446118D01*
X166720786Y-83575313D01*
X166627777Y-83682651D01*
X166607755Y-83700000D01*
X166600000Y-83700000D01*
X166600000Y-84108041D01*
X166582771Y-84225791D01*
X166583534Y-84225932D01*
X166579740Y-84246503D01*
X166579081Y-84251009D01*
X166570890Y-84278397D01*
X166570500Y-84283645D01*
X166570500Y-84884431D01*
X166573016Y-84901998D01*
X166573016Y-84902000D01*
X166585041Y-84985964D01*
X166585011Y-84985968D01*
X166600000Y-85090626D01*
X166600000Y-86801000D01*
X166579787Y-86941585D01*
X166520786Y-87070780D01*
X166427776Y-87178119D01*
X166308292Y-87254906D01*
X166172015Y-87294921D01*
X166101000Y-87300000D01*
X165099000Y-87300000D01*
X164958415Y-87279787D01*
X164829220Y-87220786D01*
X164721881Y-87127776D01*
X164645094Y-87008292D01*
X164605079Y-86872015D01*
X164600000Y-86801000D01*
X164600000Y-82499000D01*
X164620213Y-82358415D01*
X164679214Y-82229220D01*
X164772224Y-82121881D01*
X164891708Y-82045094D01*
X165027985Y-82005079D01*
X165099000Y-82000000D01*
X166301000Y-82000000D01*
X166441585Y-82020213D01*
G37*
G04 #@! TD.AperFunction*
G04 #@! TA.AperFunction,Conductor*
G36*
X185415412Y-77614352D02*
G01*
X185426034Y-77630249D01*
X185427855Y-77634645D01*
X185434747Y-77637500D01*
X187240253Y-77637500D01*
X187247145Y-77634645D01*
X187248966Y-77630249D01*
X187275484Y-77603730D01*
X187294236Y-77600000D01*
X187505764Y-77600000D01*
X187540412Y-77614352D01*
X187551034Y-77630249D01*
X187552855Y-77634645D01*
X187559747Y-77637500D01*
X189365253Y-77637500D01*
X189372145Y-77634645D01*
X189373966Y-77630249D01*
X189400484Y-77603730D01*
X189419236Y-77600000D01*
X190571500Y-77600000D01*
X190606148Y-77614352D01*
X190620500Y-77649000D01*
X190620500Y-79261226D01*
X190620747Y-79262949D01*
X190620747Y-79262952D01*
X190625625Y-79297014D01*
X190635799Y-79368052D01*
X190637243Y-79371229D01*
X190637244Y-79371231D01*
X190695606Y-79499592D01*
X190700000Y-79519873D01*
X190700000Y-79600000D01*
X190761916Y-79600000D01*
X190789202Y-79610227D01*
X190789944Y-79609082D01*
X190853815Y-79650481D01*
X190911210Y-79687683D01*
X191049663Y-79729090D01*
X191052309Y-79729287D01*
X191052311Y-79729287D01*
X191054273Y-79729433D01*
X191054285Y-79729433D01*
X191055181Y-79729500D01*
X191986226Y-79729500D01*
X191987949Y-79729253D01*
X191987952Y-79729253D01*
X192045654Y-79720989D01*
X192093052Y-79714201D01*
X192096229Y-79712757D01*
X192096231Y-79712756D01*
X192155552Y-79685784D01*
X192224605Y-79654388D01*
X192227658Y-79651758D01*
X192273939Y-79611879D01*
X192305924Y-79600000D01*
X192757996Y-79600000D01*
X192790974Y-79612758D01*
X192818076Y-79637419D01*
X192820669Y-79638827D01*
X192820672Y-79638829D01*
X192856830Y-79658461D01*
X192957293Y-79713008D01*
X193110522Y-79753207D01*
X193198694Y-79754592D01*
X193265965Y-79755649D01*
X193265968Y-79755649D01*
X193268916Y-79755695D01*
X193271793Y-79755036D01*
X193271794Y-79755036D01*
X193420451Y-79720989D01*
X193420452Y-79720989D01*
X193423332Y-79720329D01*
X193425971Y-79719002D01*
X193425973Y-79719001D01*
X193562211Y-79650481D01*
X193562212Y-79650480D01*
X193564855Y-79649151D01*
X193567100Y-79647234D01*
X193567104Y-79647231D01*
X193605599Y-79614352D01*
X193608658Y-79611740D01*
X193640480Y-79600000D01*
X193951000Y-79600000D01*
X193985648Y-79614352D01*
X194000000Y-79649000D01*
X194000000Y-80900162D01*
X193985648Y-80934810D01*
X193951000Y-80949162D01*
X193916352Y-80934810D01*
X193894819Y-80913277D01*
X193888659Y-80908801D01*
X193808685Y-80868052D01*
X193801247Y-80867467D01*
X193800270Y-80868301D01*
X193800000Y-80869426D01*
X193800000Y-81926626D01*
X193802855Y-81933518D01*
X193804043Y-81934010D01*
X193805168Y-81933740D01*
X193888659Y-81891199D01*
X193894819Y-81886723D01*
X193916352Y-81865190D01*
X193951000Y-81850838D01*
X193985648Y-81865190D01*
X194000000Y-81899838D01*
X194000000Y-82300000D01*
X198349658Y-82300000D01*
X198384306Y-82314352D01*
X198398640Y-82350324D01*
X198301325Y-85951000D01*
X198301289Y-85952324D01*
X198286006Y-85986572D01*
X198252307Y-86000000D01*
X185149000Y-86000000D01*
X185114352Y-85985648D01*
X185100000Y-85951000D01*
X185100000Y-85698102D01*
X196669185Y-85698102D01*
X196673742Y-85700088D01*
X196728499Y-85702096D01*
X196733049Y-85700404D01*
X196731016Y-85695230D01*
X196706893Y-85671107D01*
X196700000Y-85668252D01*
X196693107Y-85671107D01*
X196671359Y-85692855D01*
X196669185Y-85698102D01*
X185100000Y-85698102D01*
X185100000Y-84625300D01*
X185114352Y-84590652D01*
X185149000Y-84576300D01*
X185176223Y-84584558D01*
X185248441Y-84632813D01*
X185257192Y-84636437D01*
X185347634Y-84654427D01*
X185352410Y-84654898D01*
X186390253Y-84654898D01*
X186397145Y-84652043D01*
X186400000Y-84645151D01*
X186400000Y-83359747D01*
X188400000Y-83359747D01*
X188400000Y-84645151D01*
X188402855Y-84652043D01*
X188409747Y-84654898D01*
X189447590Y-84654898D01*
X189452366Y-84654427D01*
X189542808Y-84636437D01*
X189551559Y-84632813D01*
X189626229Y-84582920D01*
X189632920Y-84576229D01*
X189682813Y-84501559D01*
X189686437Y-84492808D01*
X189704427Y-84402366D01*
X189704898Y-84397590D01*
X189704898Y-84217251D01*
X195245626Y-84217251D01*
X195249040Y-84276456D01*
X195251608Y-84281768D01*
X195255976Y-84279810D01*
X195278893Y-84256893D01*
X195281748Y-84250000D01*
X198118252Y-84250000D01*
X198121107Y-84256893D01*
X198147104Y-84282890D01*
X198152228Y-84285013D01*
X198154228Y-84280348D01*
X198154937Y-84251316D01*
X198154861Y-84248689D01*
X198152672Y-84222055D01*
X198149858Y-84216580D01*
X198145716Y-84218498D01*
X198121107Y-84243107D01*
X198118252Y-84250000D01*
X195281748Y-84250000D01*
X195278893Y-84243107D01*
X195252819Y-84217033D01*
X195246902Y-84214582D01*
X195245626Y-84217251D01*
X189704898Y-84217251D01*
X189704898Y-83359747D01*
X189702043Y-83352855D01*
X189695151Y-83350000D01*
X188409747Y-83350000D01*
X188402855Y-83352855D01*
X188400000Y-83359747D01*
X186400000Y-83359747D01*
X186400000Y-82801397D01*
X196668561Y-82801397D01*
X196670587Y-82806373D01*
X196693107Y-82828893D01*
X196700000Y-82831748D01*
X196706893Y-82828893D01*
X196728644Y-82807142D01*
X196730715Y-82802142D01*
X196725945Y-82800132D01*
X196673331Y-82799489D01*
X196668561Y-82801397D01*
X186400000Y-82801397D01*
X186400000Y-81687051D01*
X193003678Y-81687051D01*
X193003861Y-81688207D01*
X193006217Y-81695457D01*
X193058801Y-81798659D01*
X193063277Y-81804819D01*
X193145181Y-81886723D01*
X193151341Y-81891199D01*
X193231315Y-81931948D01*
X193238753Y-81932533D01*
X193239730Y-81931699D01*
X193240000Y-81930574D01*
X193240000Y-81689747D01*
X193237145Y-81682855D01*
X193230253Y-81680000D01*
X193012308Y-81680000D01*
X193005416Y-81682855D01*
X193003678Y-81687051D01*
X186400000Y-81687051D01*
X186400000Y-80054849D01*
X188400000Y-80054849D01*
X188400000Y-81340253D01*
X188402855Y-81347145D01*
X188409747Y-81350000D01*
X189695151Y-81350000D01*
X189702043Y-81347145D01*
X189704898Y-81340253D01*
X189704898Y-81110791D01*
X193004187Y-81110791D01*
X193005828Y-81117627D01*
X193009700Y-81120000D01*
X193230253Y-81120000D01*
X193237145Y-81117145D01*
X193240000Y-81110253D01*
X193240000Y-80873374D01*
X193237145Y-80866482D01*
X193235957Y-80865990D01*
X193234832Y-80866260D01*
X193151341Y-80908801D01*
X193145181Y-80913277D01*
X193063277Y-80995181D01*
X193058801Y-81001341D01*
X193006217Y-81104543D01*
X193004187Y-81110791D01*
X189704898Y-81110791D01*
X189704898Y-80302410D01*
X189704427Y-80297634D01*
X189686437Y-80207192D01*
X189682813Y-80198441D01*
X189632920Y-80123771D01*
X189626229Y-80117080D01*
X189551559Y-80067187D01*
X189542808Y-80063563D01*
X189452366Y-80045573D01*
X189447590Y-80045102D01*
X188409747Y-80045102D01*
X188402855Y-80047957D01*
X188400000Y-80054849D01*
X186400000Y-80054849D01*
X186397145Y-80047957D01*
X186390253Y-80045102D01*
X185352410Y-80045102D01*
X185347634Y-80045573D01*
X185257192Y-80063563D01*
X185248441Y-80067187D01*
X185176223Y-80115442D01*
X185139441Y-80122759D01*
X185108258Y-80101923D01*
X185100000Y-80074700D01*
X185100000Y-78972247D01*
X185425000Y-78972247D01*
X185425000Y-79259162D01*
X185425247Y-79262631D01*
X185439667Y-79363320D01*
X185441607Y-79369955D01*
X185497998Y-79493979D01*
X185501720Y-79499800D01*
X185590654Y-79603013D01*
X185595860Y-79607555D01*
X185666822Y-79653550D01*
X185674075Y-79654888D01*
X185675000Y-79651758D01*
X185675000Y-78972247D01*
X187000000Y-78972247D01*
X187000000Y-79650885D01*
X187002855Y-79657777D01*
X187004598Y-79658499D01*
X187004775Y-79658461D01*
X187018983Y-79652001D01*
X187024797Y-79648282D01*
X187128011Y-79559348D01*
X187132557Y-79554136D01*
X187206656Y-79439815D01*
X187209558Y-79433537D01*
X187248832Y-79302210D01*
X187249790Y-79297014D01*
X187249933Y-79295095D01*
X187250000Y-79293284D01*
X187250000Y-78972247D01*
X187550000Y-78972247D01*
X187550000Y-79259162D01*
X187550247Y-79262631D01*
X187564667Y-79363320D01*
X187566607Y-79369955D01*
X187622998Y-79493979D01*
X187626720Y-79499800D01*
X187715654Y-79603013D01*
X187720860Y-79607555D01*
X187791822Y-79653550D01*
X187799075Y-79654888D01*
X187800000Y-79651758D01*
X187800000Y-78972247D01*
X189125000Y-78972247D01*
X189125000Y-79650885D01*
X189127855Y-79657777D01*
X189129598Y-79658499D01*
X189129775Y-79658461D01*
X189143983Y-79652001D01*
X189149797Y-79648282D01*
X189253011Y-79559348D01*
X189257557Y-79554136D01*
X189331656Y-79439815D01*
X189334558Y-79433537D01*
X189373832Y-79302210D01*
X189374790Y-79297014D01*
X189374933Y-79295095D01*
X189375000Y-79293284D01*
X189375000Y-78972247D01*
X189372145Y-78965355D01*
X189365253Y-78962500D01*
X189134747Y-78962500D01*
X189127855Y-78965355D01*
X189125000Y-78972247D01*
X187800000Y-78972247D01*
X187797145Y-78965355D01*
X187790253Y-78962500D01*
X187559747Y-78962500D01*
X187552855Y-78965355D01*
X187550000Y-78972247D01*
X187250000Y-78972247D01*
X187247145Y-78965355D01*
X187240253Y-78962500D01*
X187009747Y-78962500D01*
X187002855Y-78965355D01*
X187000000Y-78972247D01*
X185675000Y-78972247D01*
X185672145Y-78965355D01*
X185665253Y-78962500D01*
X185434747Y-78962500D01*
X185427855Y-78965355D01*
X185425000Y-78972247D01*
X185100000Y-78972247D01*
X185100000Y-77649000D01*
X185114352Y-77614352D01*
X185149000Y-77600000D01*
X185380764Y-77600000D01*
X185415412Y-77614352D01*
G37*
G04 #@! TD.AperFunction*
G04 #@! TA.AperFunction,Conductor*
G36*
X165241585Y-87720213D02*
G01*
X165370780Y-87779214D01*
X165478119Y-87872224D01*
X165554906Y-87991708D01*
X165594921Y-88127985D01*
X165600000Y-88199000D01*
X165600000Y-91608540D01*
X165579787Y-91749125D01*
X165520786Y-91878320D01*
X165502523Y-91899397D01*
X165525776Y-91914341D01*
X165576119Y-91964684D01*
X165600000Y-91992244D01*
X165600000Y-92000000D01*
X166001000Y-92000000D01*
X166141585Y-92020213D01*
X166270780Y-92079214D01*
X166378119Y-92172224D01*
X166454906Y-92291708D01*
X166494921Y-92427985D01*
X166500000Y-92499000D01*
X166500000Y-92601000D01*
X166479787Y-92741585D01*
X166420786Y-92870780D01*
X166327776Y-92978119D01*
X166208292Y-93054906D01*
X166072015Y-93094921D01*
X166001000Y-93100000D01*
X165203500Y-93100000D01*
X165062915Y-93079787D01*
X164933720Y-93020786D01*
X164826381Y-92927776D01*
X164749594Y-92808292D01*
X164709579Y-92672015D01*
X164704500Y-92601000D01*
X164704500Y-92384347D01*
X164701503Y-92365425D01*
X164700000Y-92327165D01*
X164700000Y-92291460D01*
X164720213Y-92150875D01*
X164779214Y-92021680D01*
X164797477Y-92000603D01*
X164774224Y-91985659D01*
X164723881Y-91935316D01*
X164700000Y-91907756D01*
X164700000Y-91900000D01*
X163499000Y-91900000D01*
X163358415Y-91879787D01*
X163229220Y-91820786D01*
X163121881Y-91727776D01*
X163045094Y-91608292D01*
X163005079Y-91472015D01*
X163000000Y-91401000D01*
X163000000Y-90099000D01*
X163020213Y-89958415D01*
X163079214Y-89829220D01*
X163172224Y-89721881D01*
X163291708Y-89645094D01*
X163427985Y-89605079D01*
X163499000Y-89600000D01*
X164200000Y-89600000D01*
X164200000Y-88199000D01*
X164220213Y-88058415D01*
X164279214Y-87929220D01*
X164372224Y-87821881D01*
X164491708Y-87745094D01*
X164627985Y-87705079D01*
X164699000Y-87700000D01*
X165101000Y-87700000D01*
X165241585Y-87720213D01*
G37*
G04 #@! TD.AperFunction*
G04 #@! TA.AperFunction,Conductor*
G36*
X173551162Y-86914352D02*
G01*
X173565514Y-86949000D01*
X173565514Y-87165000D01*
X173585266Y-87264301D01*
X173641516Y-87348484D01*
X173645527Y-87351164D01*
X173678223Y-87373011D01*
X173699059Y-87404194D01*
X173700000Y-87413753D01*
X173700000Y-87529064D01*
X173685648Y-87563712D01*
X173680529Y-87568167D01*
X173603079Y-87626655D01*
X173597068Y-87633248D01*
X173542801Y-87720891D01*
X173539578Y-87729211D01*
X173521594Y-87825419D01*
X173523134Y-87832718D01*
X173526635Y-87835000D01*
X174851000Y-87835000D01*
X174885648Y-87849352D01*
X174900000Y-87884000D01*
X174900000Y-88386000D01*
X174885648Y-88420648D01*
X174851000Y-88435000D01*
X173529550Y-88435000D01*
X173523273Y-88437600D01*
X173520280Y-88445325D01*
X173520974Y-88460333D01*
X173521880Y-88465887D01*
X173542282Y-88537591D01*
X173537960Y-88574844D01*
X173508562Y-88598129D01*
X173495153Y-88600000D01*
X173200000Y-88600000D01*
X173200000Y-88650000D01*
X172784747Y-88650000D01*
X172777855Y-88652855D01*
X172775000Y-88659747D01*
X172775000Y-90690253D01*
X172777855Y-90697145D01*
X172784747Y-90700000D01*
X172886078Y-90700000D01*
X172889402Y-90699774D01*
X172995986Y-90685173D01*
X173002363Y-90683393D01*
X173131540Y-90627493D01*
X173169038Y-90626904D01*
X173195970Y-90653003D01*
X173200000Y-90672463D01*
X173200000Y-90851000D01*
X173185648Y-90885648D01*
X173151000Y-90900000D01*
X172477751Y-90900000D01*
X172454823Y-90894305D01*
X172438887Y-90885867D01*
X172438883Y-90885866D01*
X172436274Y-90884484D01*
X172282633Y-90845892D01*
X172202177Y-90845470D01*
X172127174Y-90845077D01*
X172127170Y-90845077D01*
X172124221Y-90845062D01*
X172121352Y-90845751D01*
X172121350Y-90845751D01*
X171973058Y-90881353D01*
X171970184Y-90882043D01*
X171963200Y-90885648D01*
X171945968Y-90894542D01*
X171923494Y-90900000D01*
X170077751Y-90900000D01*
X170054823Y-90894305D01*
X170038887Y-90885867D01*
X170038883Y-90885866D01*
X170036274Y-90884484D01*
X169882633Y-90845892D01*
X169802177Y-90845470D01*
X169727174Y-90845077D01*
X169727170Y-90845077D01*
X169724221Y-90845062D01*
X169721352Y-90845751D01*
X169721350Y-90845751D01*
X169573058Y-90881353D01*
X169570184Y-90882043D01*
X169563200Y-90885648D01*
X169545968Y-90894542D01*
X169523494Y-90900000D01*
X168600000Y-90900000D01*
X168600000Y-93051000D01*
X168585648Y-93085648D01*
X168551000Y-93100000D01*
X167722316Y-93100000D01*
X167687668Y-93085648D01*
X167673316Y-93051000D01*
X167679945Y-93026389D01*
X167731883Y-92936972D01*
X167734550Y-92930236D01*
X167743993Y-92889494D01*
X167742769Y-92882136D01*
X167739779Y-92880000D01*
X166949000Y-92880000D01*
X166914352Y-92865648D01*
X166900000Y-92831000D01*
X166900000Y-92017175D01*
X167460000Y-92017175D01*
X167460000Y-92310253D01*
X167462855Y-92317145D01*
X167469747Y-92320000D01*
X167738685Y-92320000D01*
X167745577Y-92317145D01*
X167747357Y-92312848D01*
X167745844Y-92302784D01*
X167743713Y-92295858D01*
X167689612Y-92183192D01*
X167685540Y-92177200D01*
X167600701Y-92085422D01*
X167595047Y-92080892D01*
X167486971Y-92018116D01*
X167480237Y-92015450D01*
X167469494Y-92012960D01*
X167462137Y-92014185D01*
X167460000Y-92017175D01*
X166900000Y-92017175D01*
X166900000Y-91700000D01*
X166800000Y-91700000D01*
X166800000Y-91459747D01*
X168100000Y-91459747D01*
X168100000Y-91945450D01*
X168102600Y-91951727D01*
X168110325Y-91954720D01*
X168125333Y-91954026D01*
X168130884Y-91953120D01*
X168231671Y-91924444D01*
X168239661Y-91920465D01*
X168321922Y-91858345D01*
X168327932Y-91851752D01*
X168382199Y-91764109D01*
X168385422Y-91755789D01*
X168404782Y-91652222D01*
X168405197Y-91647737D01*
X168405197Y-91459747D01*
X168402342Y-91452855D01*
X168395450Y-91450000D01*
X168109747Y-91450000D01*
X168102855Y-91452855D01*
X168100000Y-91459747D01*
X166800000Y-91459747D01*
X166797145Y-91452855D01*
X166790253Y-91450000D01*
X166504550Y-91450000D01*
X166497658Y-91452855D01*
X166494803Y-91459747D01*
X166494803Y-91649438D01*
X166494813Y-91649873D01*
X166494803Y-91649899D01*
X166494803Y-91650000D01*
X166494764Y-91650000D01*
X166481262Y-91684842D01*
X166445826Y-91700000D01*
X165949000Y-91700000D01*
X165914352Y-91685648D01*
X165900000Y-91651000D01*
X165900000Y-90404767D01*
X168660922Y-90404767D01*
X168673800Y-90434528D01*
X168677229Y-90440190D01*
X168767858Y-90552107D01*
X168772681Y-90556636D01*
X168890069Y-90640060D01*
X168895934Y-90643126D01*
X169031791Y-90692037D01*
X169037511Y-90693348D01*
X169099534Y-90699867D01*
X169102081Y-90700000D01*
X169215253Y-90700000D01*
X169222145Y-90697145D01*
X169225000Y-90690253D01*
X169225000Y-90409747D01*
X170375000Y-90409747D01*
X170375000Y-90690253D01*
X170377855Y-90697145D01*
X170384747Y-90700000D01*
X170486078Y-90700000D01*
X170489402Y-90699774D01*
X170595986Y-90685173D01*
X170602363Y-90683393D01*
X170734528Y-90626200D01*
X170740190Y-90622771D01*
X170852107Y-90532142D01*
X170856636Y-90527319D01*
X170940060Y-90409932D01*
X170941220Y-90407713D01*
X170941081Y-90404767D01*
X171060922Y-90404767D01*
X171073800Y-90434528D01*
X171077229Y-90440190D01*
X171167858Y-90552107D01*
X171172681Y-90556636D01*
X171290069Y-90640060D01*
X171295934Y-90643126D01*
X171431791Y-90692037D01*
X171437511Y-90693348D01*
X171499534Y-90699867D01*
X171502081Y-90700000D01*
X171615253Y-90700000D01*
X171622145Y-90697145D01*
X171625000Y-90690253D01*
X171625000Y-90409747D01*
X171622145Y-90402855D01*
X171615253Y-90400000D01*
X171068606Y-90400000D01*
X171061714Y-90402855D01*
X171060922Y-90404767D01*
X170941081Y-90404767D01*
X170940937Y-90401719D01*
X170939047Y-90400000D01*
X170384747Y-90400000D01*
X170377855Y-90402855D01*
X170375000Y-90409747D01*
X169225000Y-90409747D01*
X169222145Y-90402855D01*
X169215253Y-90400000D01*
X168668606Y-90400000D01*
X168661714Y-90402855D01*
X168660922Y-90404767D01*
X165900000Y-90404767D01*
X165900000Y-89952263D01*
X166494803Y-89952263D01*
X166494803Y-90140253D01*
X166497658Y-90147145D01*
X166504550Y-90150000D01*
X166790253Y-90150000D01*
X166797145Y-90147145D01*
X166800000Y-90140253D01*
X166800000Y-89654550D01*
X166798793Y-89651635D01*
X168100000Y-89651635D01*
X168100000Y-90140253D01*
X168102855Y-90147145D01*
X168109747Y-90150000D01*
X168395450Y-90150000D01*
X168402342Y-90147145D01*
X168405197Y-90140253D01*
X168405197Y-89950560D01*
X168405171Y-89949446D01*
X168404026Y-89924667D01*
X168403120Y-89919116D01*
X168374444Y-89818329D01*
X168370465Y-89810339D01*
X168308345Y-89728078D01*
X168301752Y-89722068D01*
X168214109Y-89667801D01*
X168205789Y-89664578D01*
X168109581Y-89646594D01*
X168102282Y-89648134D01*
X168100000Y-89651635D01*
X166798793Y-89651635D01*
X166797400Y-89648273D01*
X166789675Y-89645280D01*
X166774667Y-89645974D01*
X166769116Y-89646880D01*
X166668329Y-89675556D01*
X166660339Y-89679535D01*
X166578078Y-89741655D01*
X166572068Y-89748248D01*
X166517801Y-89835891D01*
X166514578Y-89844211D01*
X166495218Y-89947778D01*
X166494803Y-89952263D01*
X165900000Y-89952263D01*
X165900000Y-88784747D01*
X166050000Y-88784747D01*
X166050000Y-89094484D01*
X166050272Y-89098116D01*
X166064490Y-89192689D01*
X166066621Y-89199616D01*
X166122024Y-89314993D01*
X166126096Y-89320985D01*
X166212976Y-89414971D01*
X166218630Y-89419501D01*
X166329308Y-89483787D01*
X166336040Y-89486452D01*
X166340506Y-89487487D01*
X166347863Y-89486263D01*
X166350000Y-89483273D01*
X166350000Y-88784747D01*
X166950000Y-88784747D01*
X166950000Y-89479945D01*
X166952855Y-89486837D01*
X166954338Y-89487451D01*
X166954963Y-89487309D01*
X167052493Y-89440476D01*
X167058485Y-89436404D01*
X167152471Y-89349524D01*
X167157001Y-89343870D01*
X167216004Y-89242287D01*
X168658780Y-89242287D01*
X168659063Y-89248281D01*
X168660953Y-89250000D01*
X169215253Y-89250000D01*
X169222145Y-89247145D01*
X169225000Y-89240253D01*
X169225000Y-88659747D01*
X170375000Y-88659747D01*
X170375000Y-89240253D01*
X170377855Y-89247145D01*
X170384747Y-89250000D01*
X170931394Y-89250000D01*
X170938286Y-89247145D01*
X170939078Y-89245233D01*
X170937803Y-89242287D01*
X171058780Y-89242287D01*
X171059063Y-89248281D01*
X171060953Y-89250000D01*
X171615253Y-89250000D01*
X171622145Y-89247145D01*
X171625000Y-89240253D01*
X171625000Y-88659747D01*
X171622145Y-88652855D01*
X171615253Y-88650000D01*
X171068606Y-88650000D01*
X171061714Y-88652855D01*
X171060922Y-88654767D01*
X171073800Y-88684528D01*
X171077229Y-88690190D01*
X171167858Y-88802107D01*
X171172681Y-88806636D01*
X171290069Y-88890060D01*
X171295934Y-88893127D01*
X171327697Y-88904562D01*
X171355436Y-88929802D01*
X171357202Y-88967263D01*
X171330559Y-88995635D01*
X171265472Y-89023800D01*
X171259810Y-89027229D01*
X171147893Y-89117858D01*
X171143364Y-89122681D01*
X171059940Y-89240068D01*
X171058780Y-89242287D01*
X170937803Y-89242287D01*
X170926200Y-89215472D01*
X170922771Y-89209810D01*
X170832142Y-89097893D01*
X170827319Y-89093364D01*
X170709931Y-89009940D01*
X170704066Y-89006873D01*
X170672303Y-88995438D01*
X170644564Y-88970198D01*
X170642798Y-88932737D01*
X170669441Y-88904365D01*
X170734528Y-88876200D01*
X170740190Y-88872771D01*
X170852107Y-88782142D01*
X170856636Y-88777319D01*
X170940060Y-88659932D01*
X170941220Y-88657713D01*
X170940937Y-88651719D01*
X170939047Y-88650000D01*
X170384747Y-88650000D01*
X170377855Y-88652855D01*
X170375000Y-88659747D01*
X169225000Y-88659747D01*
X169222145Y-88652855D01*
X169215253Y-88650000D01*
X168668606Y-88650000D01*
X168661714Y-88652855D01*
X168660922Y-88654767D01*
X168673800Y-88684528D01*
X168677229Y-88690190D01*
X168767858Y-88802107D01*
X168772681Y-88806636D01*
X168890069Y-88890060D01*
X168895934Y-88893127D01*
X168927697Y-88904562D01*
X168955436Y-88929802D01*
X168957202Y-88967263D01*
X168930559Y-88995635D01*
X168865472Y-89023800D01*
X168859810Y-89027229D01*
X168747893Y-89117858D01*
X168743364Y-89122681D01*
X168659940Y-89240068D01*
X168658780Y-89242287D01*
X167216004Y-89242287D01*
X167221284Y-89233196D01*
X167223953Y-89226455D01*
X167249369Y-89116802D01*
X167250000Y-89111290D01*
X167250000Y-88784747D01*
X167247145Y-88777855D01*
X167240253Y-88775000D01*
X166959747Y-88775000D01*
X166952855Y-88777855D01*
X166950000Y-88784747D01*
X166350000Y-88784747D01*
X166347145Y-88777855D01*
X166340253Y-88775000D01*
X166059747Y-88775000D01*
X166052855Y-88777855D01*
X166050000Y-88784747D01*
X165900000Y-88784747D01*
X165900000Y-87749000D01*
X165914352Y-87714352D01*
X165949000Y-87700000D01*
X166019848Y-87700000D01*
X166054496Y-87714352D01*
X166068848Y-87749000D01*
X166067583Y-87760064D01*
X166050630Y-87833206D01*
X166050000Y-87838710D01*
X166050000Y-88165253D01*
X166052855Y-88172145D01*
X166059747Y-88175000D01*
X167240253Y-88175000D01*
X167247145Y-88172145D01*
X167250000Y-88165253D01*
X167250000Y-87855516D01*
X167249728Y-87851884D01*
X167235510Y-87757311D01*
X167233379Y-87750384D01*
X167177976Y-87635007D01*
X167173904Y-87629015D01*
X167087024Y-87535029D01*
X167081370Y-87530499D01*
X167015582Y-87492287D01*
X168658780Y-87492287D01*
X168659063Y-87498281D01*
X168660953Y-87500000D01*
X169215253Y-87500000D01*
X169222145Y-87497145D01*
X169225000Y-87490253D01*
X169225000Y-87209747D01*
X170375000Y-87209747D01*
X170375000Y-87490253D01*
X170377855Y-87497145D01*
X170384747Y-87500000D01*
X170931394Y-87500000D01*
X170938286Y-87497145D01*
X170939078Y-87495233D01*
X170937803Y-87492287D01*
X171058780Y-87492287D01*
X171059063Y-87498281D01*
X171060953Y-87500000D01*
X171615253Y-87500000D01*
X171622145Y-87497145D01*
X171625000Y-87490253D01*
X171625000Y-87209747D01*
X172775000Y-87209747D01*
X172775000Y-87490253D01*
X172777855Y-87497145D01*
X172784747Y-87500000D01*
X173331394Y-87500000D01*
X173338286Y-87497145D01*
X173339078Y-87495233D01*
X173326200Y-87465472D01*
X173322771Y-87459810D01*
X173232142Y-87347893D01*
X173227319Y-87343364D01*
X173109931Y-87259940D01*
X173104066Y-87256874D01*
X172968209Y-87207963D01*
X172962489Y-87206652D01*
X172900466Y-87200133D01*
X172897918Y-87200000D01*
X172784747Y-87200000D01*
X172777855Y-87202855D01*
X172775000Y-87209747D01*
X171625000Y-87209747D01*
X171622145Y-87202855D01*
X171615253Y-87200000D01*
X171513922Y-87200000D01*
X171510598Y-87200226D01*
X171404014Y-87214827D01*
X171397637Y-87216607D01*
X171265472Y-87273800D01*
X171259810Y-87277229D01*
X171147893Y-87367858D01*
X171143364Y-87372681D01*
X171059940Y-87490068D01*
X171058780Y-87492287D01*
X170937803Y-87492287D01*
X170926200Y-87465472D01*
X170922771Y-87459810D01*
X170832142Y-87347893D01*
X170827319Y-87343364D01*
X170709931Y-87259940D01*
X170704066Y-87256874D01*
X170568209Y-87207963D01*
X170562489Y-87206652D01*
X170500466Y-87200133D01*
X170497918Y-87200000D01*
X170384747Y-87200000D01*
X170377855Y-87202855D01*
X170375000Y-87209747D01*
X169225000Y-87209747D01*
X169222145Y-87202855D01*
X169215253Y-87200000D01*
X169113922Y-87200000D01*
X169110598Y-87200226D01*
X169004014Y-87214827D01*
X168997637Y-87216607D01*
X168865472Y-87273800D01*
X168859810Y-87277229D01*
X168747893Y-87367858D01*
X168743364Y-87372681D01*
X168659940Y-87490068D01*
X168658780Y-87492287D01*
X167015582Y-87492287D01*
X166970696Y-87466216D01*
X166963957Y-87463548D01*
X166937935Y-87457516D01*
X166907423Y-87435712D01*
X166900000Y-87409782D01*
X166900000Y-86949000D01*
X166914352Y-86914352D01*
X166949000Y-86900000D01*
X173516514Y-86900000D01*
X173551162Y-86914352D01*
G37*
G04 #@! TD.AperFunction*
G04 #@! TA.AperFunction,Conductor*
G36*
X199982132Y-76255422D02*
G01*
X200000000Y-76258976D01*
X200008628Y-76257260D01*
X200028341Y-76256027D01*
X200243201Y-76271394D01*
X200253647Y-76272896D01*
X200370194Y-76298249D01*
X200486737Y-76323601D01*
X200496867Y-76326576D01*
X200608610Y-76368254D01*
X200720356Y-76409933D01*
X200729955Y-76414316D01*
X200891615Y-76502589D01*
X200939313Y-76528634D01*
X200948195Y-76534342D01*
X201139151Y-76677290D01*
X201147130Y-76684204D01*
X201315796Y-76852870D01*
X201322710Y-76860849D01*
X201465658Y-77051805D01*
X201471365Y-77060686D01*
X201562339Y-77227290D01*
X201585683Y-77270042D01*
X201590067Y-77279644D01*
X201614817Y-77346000D01*
X201673424Y-77503133D01*
X201676399Y-77513263D01*
X201727104Y-77746350D01*
X201728606Y-77756799D01*
X201740865Y-77928209D01*
X201743973Y-77971658D01*
X201742740Y-77991372D01*
X201741024Y-78000000D01*
X201742446Y-78007149D01*
X201744578Y-78017868D01*
X201746000Y-78032304D01*
X201746000Y-93967696D01*
X201744578Y-93982132D01*
X201741024Y-94000000D01*
X201742446Y-94007147D01*
X201742740Y-94008625D01*
X201743973Y-94028341D01*
X201735275Y-94149961D01*
X201728606Y-94243199D01*
X201727104Y-94253650D01*
X201676399Y-94486737D01*
X201673424Y-94496867D01*
X201657186Y-94540403D01*
X201596737Y-94702476D01*
X201590069Y-94720353D01*
X201585684Y-94729955D01*
X201503269Y-94880887D01*
X201471366Y-94939313D01*
X201465658Y-94948195D01*
X201322710Y-95139151D01*
X201315796Y-95147130D01*
X201147130Y-95315796D01*
X201139151Y-95322710D01*
X200948195Y-95465658D01*
X200939314Y-95471365D01*
X200729955Y-95585684D01*
X200720356Y-95590067D01*
X200608610Y-95631747D01*
X200496867Y-95673424D01*
X200486737Y-95676399D01*
X200423171Y-95690227D01*
X200253647Y-95727104D01*
X200243201Y-95728606D01*
X200028341Y-95743973D01*
X200008628Y-95742740D01*
X200000000Y-95741024D01*
X199992851Y-95742446D01*
X199982132Y-95744578D01*
X199967696Y-95746000D01*
X149032304Y-95746000D01*
X149017868Y-95744578D01*
X149007149Y-95742446D01*
X149000000Y-95741024D01*
X148991372Y-95742740D01*
X148971659Y-95743973D01*
X148756799Y-95728606D01*
X148746353Y-95727104D01*
X148576829Y-95690227D01*
X148513263Y-95676399D01*
X148503133Y-95673424D01*
X148391390Y-95631747D01*
X148279644Y-95590067D01*
X148270045Y-95585684D01*
X148060686Y-95471365D01*
X148051805Y-95465658D01*
X147860849Y-95322710D01*
X147852870Y-95315796D01*
X147684204Y-95147130D01*
X147677290Y-95139151D01*
X147534342Y-94948195D01*
X147528634Y-94939313D01*
X147496731Y-94880887D01*
X147414316Y-94729955D01*
X147409931Y-94720353D01*
X147403264Y-94702476D01*
X147342814Y-94540403D01*
X147326576Y-94496867D01*
X147323601Y-94486737D01*
X147272896Y-94253650D01*
X147271394Y-94243199D01*
X147264726Y-94149961D01*
X147256027Y-94028341D01*
X147257260Y-94008625D01*
X147257554Y-94007147D01*
X147258976Y-94000000D01*
X147255422Y-93982132D01*
X147254000Y-93967696D01*
X147254000Y-93966793D01*
X147641264Y-93966793D01*
X147654085Y-94189156D01*
X147654749Y-94192103D01*
X147654750Y-94192109D01*
X147675507Y-94284214D01*
X147703052Y-94406439D01*
X147704194Y-94409251D01*
X147742608Y-94503853D01*
X147786849Y-94612807D01*
X147826375Y-94677308D01*
X147885639Y-94774017D01*
X147903226Y-94802717D01*
X147905215Y-94805013D01*
X147905217Y-94805016D01*
X147990320Y-94903261D01*
X148049058Y-94971070D01*
X148220428Y-95113344D01*
X148223046Y-95114874D01*
X148223052Y-95114878D01*
X148410108Y-95224184D01*
X148410113Y-95224186D01*
X148412734Y-95225718D01*
X148415573Y-95226802D01*
X148617966Y-95304089D01*
X148617970Y-95304090D01*
X148620811Y-95305175D01*
X148623795Y-95305782D01*
X148623798Y-95305783D01*
X148723860Y-95326141D01*
X148839072Y-95349581D01*
X148924484Y-95352713D01*
X149058615Y-95357632D01*
X149058621Y-95357632D01*
X149061655Y-95357743D01*
X149064667Y-95357357D01*
X149064671Y-95357357D01*
X149175890Y-95343109D01*
X149282582Y-95329441D01*
X149376616Y-95301229D01*
X149493014Y-95266309D01*
X149493019Y-95266307D01*
X149495919Y-95265437D01*
X149695939Y-95167448D01*
X149877269Y-95038107D01*
X149880388Y-95034999D01*
X150032884Y-94883035D01*
X150032887Y-94883032D01*
X150035039Y-94880887D01*
X150062254Y-94843014D01*
X150163240Y-94702476D01*
X150165012Y-94700010D01*
X150263698Y-94500334D01*
X150264752Y-94496867D01*
X150327565Y-94290123D01*
X150328447Y-94287220D01*
X150334243Y-94243199D01*
X150357262Y-94068348D01*
X150357262Y-94068343D01*
X150357519Y-94066394D01*
X150359142Y-94000000D01*
X150357085Y-93974983D01*
X150341141Y-93781042D01*
X150341140Y-93781038D01*
X150340892Y-93778017D01*
X150333439Y-93748343D01*
X150297156Y-93603897D01*
X150286631Y-93561995D01*
X150197817Y-93357736D01*
X150076834Y-93170726D01*
X149991609Y-93077064D01*
X149928975Y-93008230D01*
X149928974Y-93008229D01*
X149926933Y-93005986D01*
X149752138Y-92867942D01*
X149680771Y-92828545D01*
X149559806Y-92761768D01*
X149559801Y-92761766D01*
X149557144Y-92760299D01*
X149501223Y-92740497D01*
X149350043Y-92686961D01*
X149350039Y-92686960D01*
X149347187Y-92685950D01*
X149127907Y-92646890D01*
X148984501Y-92645138D01*
X148908229Y-92644206D01*
X148908228Y-92644206D01*
X148905191Y-92644169D01*
X148810201Y-92658704D01*
X148688026Y-92677399D01*
X148688022Y-92677400D01*
X148685022Y-92677859D01*
X148682133Y-92678803D01*
X148682130Y-92678804D01*
X148476195Y-92746114D01*
X148476191Y-92746116D01*
X148473311Y-92747057D01*
X148275745Y-92849903D01*
X148273324Y-92851721D01*
X148273322Y-92851722D01*
X148244133Y-92873638D01*
X148097630Y-92983636D01*
X148095533Y-92985830D01*
X148095530Y-92985833D01*
X147945844Y-93142470D01*
X147945840Y-93142474D01*
X147943748Y-93144664D01*
X147942038Y-93147171D01*
X147942037Y-93147172D01*
X147910620Y-93193228D01*
X147818233Y-93328663D01*
X147816954Y-93331418D01*
X147816953Y-93331420D01*
X147806515Y-93353907D01*
X147724455Y-93530691D01*
X147664932Y-93745322D01*
X147664609Y-93748341D01*
X147664609Y-93748343D01*
X147661438Y-93778017D01*
X147641264Y-93966793D01*
X147254000Y-93966793D01*
X147254000Y-92458925D01*
X150241024Y-92458925D01*
X150241024Y-92896360D01*
X150241734Y-92903571D01*
X150259315Y-92991955D01*
X150264787Y-93005167D01*
X150312827Y-93077064D01*
X150322936Y-93087173D01*
X150394833Y-93135213D01*
X150408045Y-93140685D01*
X150496429Y-93158266D01*
X150503640Y-93158976D01*
X151136952Y-93158976D01*
X151146948Y-93155338D01*
X151150000Y-93150051D01*
X151150000Y-92463048D01*
X151148499Y-92458925D01*
X152650000Y-92458925D01*
X152650000Y-93145928D01*
X152653638Y-93155924D01*
X152658925Y-93158976D01*
X153296360Y-93158976D01*
X153303571Y-93158266D01*
X153391955Y-93140685D01*
X153405167Y-93135213D01*
X153477064Y-93087173D01*
X153487173Y-93077064D01*
X153535213Y-93005167D01*
X153540685Y-92991955D01*
X153558266Y-92903571D01*
X153558976Y-92896360D01*
X153558976Y-92463048D01*
X153557475Y-92458925D01*
X156341024Y-92458925D01*
X156341024Y-92896360D01*
X156341734Y-92903571D01*
X156359315Y-92991955D01*
X156364787Y-93005167D01*
X156412827Y-93077064D01*
X156422936Y-93087173D01*
X156494833Y-93135213D01*
X156508045Y-93140685D01*
X156596429Y-93158266D01*
X156603640Y-93158976D01*
X157236952Y-93158976D01*
X157246948Y-93155338D01*
X157250000Y-93150051D01*
X157250000Y-92463048D01*
X157248499Y-92458925D01*
X158750000Y-92458925D01*
X158750000Y-93145928D01*
X158753638Y-93155924D01*
X158758925Y-93158976D01*
X159396360Y-93158976D01*
X159403571Y-93158266D01*
X159491955Y-93140685D01*
X159505167Y-93135213D01*
X159577064Y-93087173D01*
X159587173Y-93077064D01*
X159635213Y-93005167D01*
X159640685Y-92991955D01*
X159658266Y-92903571D01*
X159658976Y-92896360D01*
X159658976Y-92877004D01*
X163665722Y-92877004D01*
X163669516Y-92900957D01*
X163673069Y-92911892D01*
X163723726Y-93011313D01*
X163730485Y-93020615D01*
X163809385Y-93099515D01*
X163818687Y-93106273D01*
X163898373Y-93146875D01*
X163907572Y-93148004D01*
X163910000Y-93140747D01*
X163910000Y-92883048D01*
X163906362Y-92873052D01*
X163901075Y-92870000D01*
X163677661Y-92870000D01*
X163667665Y-92873638D01*
X163665722Y-92877004D01*
X159658976Y-92877004D01*
X159658976Y-92463048D01*
X159655338Y-92453052D01*
X159650051Y-92450000D01*
X158763048Y-92450000D01*
X158753052Y-92453638D01*
X158750000Y-92458925D01*
X157248499Y-92458925D01*
X157246362Y-92453052D01*
X157241075Y-92450000D01*
X156354072Y-92450000D01*
X156344076Y-92453638D01*
X156341024Y-92458925D01*
X153557475Y-92458925D01*
X153555338Y-92453052D01*
X153550051Y-92450000D01*
X152663048Y-92450000D01*
X152653052Y-92453638D01*
X152650000Y-92458925D01*
X151148499Y-92458925D01*
X151146362Y-92453052D01*
X151141075Y-92450000D01*
X150254072Y-92450000D01*
X150244076Y-92453638D01*
X150241024Y-92458925D01*
X147254000Y-92458925D01*
X147254000Y-90503640D01*
X150241024Y-90503640D01*
X150241024Y-90936952D01*
X150244662Y-90946948D01*
X150249949Y-90950000D01*
X151136952Y-90950000D01*
X151146948Y-90946362D01*
X151150000Y-90941075D01*
X151150000Y-90254072D01*
X151148499Y-90249949D01*
X152650000Y-90249949D01*
X152650000Y-90936952D01*
X152653638Y-90946948D01*
X152658925Y-90950000D01*
X153545928Y-90950000D01*
X153555924Y-90946362D01*
X153558976Y-90941075D01*
X153558976Y-90503640D01*
X156341024Y-90503640D01*
X156341024Y-90936952D01*
X156344662Y-90946948D01*
X156349949Y-90950000D01*
X157236952Y-90950000D01*
X157246948Y-90946362D01*
X157250000Y-90941075D01*
X157250000Y-90254072D01*
X157248499Y-90249949D01*
X158750000Y-90249949D01*
X158750000Y-90936952D01*
X158753638Y-90946948D01*
X158758925Y-90950000D01*
X159645928Y-90950000D01*
X159655924Y-90946362D01*
X159658976Y-90941075D01*
X159658976Y-90503640D01*
X159658266Y-90496429D01*
X159640685Y-90408045D01*
X159635213Y-90394833D01*
X159587173Y-90322936D01*
X159577064Y-90312827D01*
X159505167Y-90264787D01*
X159491955Y-90259315D01*
X159403571Y-90241734D01*
X159396360Y-90241024D01*
X158763048Y-90241024D01*
X158753052Y-90244662D01*
X158750000Y-90249949D01*
X157248499Y-90249949D01*
X157246362Y-90244076D01*
X157241075Y-90241024D01*
X156603640Y-90241024D01*
X156596429Y-90241734D01*
X156508045Y-90259315D01*
X156494833Y-90264787D01*
X156422936Y-90312827D01*
X156412827Y-90322936D01*
X156364787Y-90394833D01*
X156359315Y-90408045D01*
X156341734Y-90496429D01*
X156341024Y-90503640D01*
X153558976Y-90503640D01*
X153558266Y-90496429D01*
X153540685Y-90408045D01*
X153535213Y-90394833D01*
X153487173Y-90322936D01*
X153477064Y-90312827D01*
X153405167Y-90264787D01*
X153391955Y-90259315D01*
X153303571Y-90241734D01*
X153296360Y-90241024D01*
X152663048Y-90241024D01*
X152653052Y-90244662D01*
X152650000Y-90249949D01*
X151148499Y-90249949D01*
X151146362Y-90244076D01*
X151141075Y-90241024D01*
X150503640Y-90241024D01*
X150496429Y-90241734D01*
X150408045Y-90259315D01*
X150394833Y-90264787D01*
X150322936Y-90312827D01*
X150312827Y-90322936D01*
X150264787Y-90394833D01*
X150259315Y-90408045D01*
X150241734Y-90496429D01*
X150241024Y-90503640D01*
X147254000Y-90503640D01*
X147254000Y-90099000D01*
X162746000Y-90099000D01*
X162746000Y-91401000D01*
X162746023Y-91401639D01*
X162746614Y-91418184D01*
X162746647Y-91419120D01*
X162746694Y-91419773D01*
X162746695Y-91419797D01*
X162749212Y-91454979D01*
X162751726Y-91490135D01*
X162761368Y-91543576D01*
X162801383Y-91679853D01*
X162831415Y-91745614D01*
X162908202Y-91865098D01*
X162955546Y-91919736D01*
X163062885Y-92012746D01*
X163123705Y-92051833D01*
X163252900Y-92110834D01*
X163255436Y-92111579D01*
X163255437Y-92111579D01*
X163283085Y-92119697D01*
X163322267Y-92131202D01*
X163462852Y-92151415D01*
X163478881Y-92152561D01*
X163497695Y-92153907D01*
X163497704Y-92153907D01*
X163499000Y-92154000D01*
X163620643Y-92154000D01*
X163668209Y-92171313D01*
X163693519Y-92215150D01*
X163686578Y-92261595D01*
X163673069Y-92288108D01*
X163669516Y-92299043D01*
X163666654Y-92317112D01*
X163668684Y-92327555D01*
X163671704Y-92330000D01*
X164376000Y-92330000D01*
X164423566Y-92347313D01*
X164448876Y-92391150D01*
X164450000Y-92404000D01*
X164450000Y-93139751D01*
X164453170Y-93148459D01*
X164460737Y-93147328D01*
X164541313Y-93106273D01*
X164552070Y-93098458D01*
X164600728Y-93084505D01*
X164646971Y-93105094D01*
X164651489Y-93109863D01*
X164658314Y-93117738D01*
X164658319Y-93117743D01*
X164660046Y-93119736D01*
X164767385Y-93212746D01*
X164828205Y-93251833D01*
X164957400Y-93310834D01*
X164959936Y-93311579D01*
X164959937Y-93311579D01*
X164981809Y-93318001D01*
X165026767Y-93331202D01*
X165167352Y-93351415D01*
X165183381Y-93352561D01*
X165202195Y-93353907D01*
X165202204Y-93353907D01*
X165203500Y-93354000D01*
X166001000Y-93354000D01*
X166006642Y-93353799D01*
X166018460Y-93353377D01*
X166018484Y-93353376D01*
X166019120Y-93353353D01*
X166019773Y-93353306D01*
X166019797Y-93353305D01*
X166054979Y-93350788D01*
X166090135Y-93348274D01*
X166143576Y-93338632D01*
X166145481Y-93338073D01*
X166145488Y-93338071D01*
X166277316Y-93299362D01*
X166277317Y-93299362D01*
X166279853Y-93298617D01*
X166345614Y-93268585D01*
X166447314Y-93203227D01*
X166462873Y-93193228D01*
X166462874Y-93193227D01*
X166465098Y-93191798D01*
X166507175Y-93155338D01*
X166517749Y-93146176D01*
X166517751Y-93146174D01*
X166519736Y-93144454D01*
X166530583Y-93131936D01*
X166552911Y-93114464D01*
X166561941Y-93109863D01*
X166594771Y-93093135D01*
X166637379Y-93050527D01*
X166683255Y-93029135D01*
X166732150Y-93042236D01*
X166733470Y-93043343D01*
X166734745Y-93045252D01*
X166739651Y-93048530D01*
X166739652Y-93048531D01*
X166793491Y-93084505D01*
X166802858Y-93090764D01*
X166805229Y-93093135D01*
X166810188Y-93095662D01*
X166811033Y-93096226D01*
X166812659Y-93097408D01*
X166813807Y-93098081D01*
X166814122Y-93098291D01*
X166814126Y-93098293D01*
X166817149Y-93100313D01*
X166820507Y-93101704D01*
X166820509Y-93101705D01*
X166826061Y-93104005D01*
X166831335Y-93106437D01*
X166911379Y-93147222D01*
X166911382Y-93147223D01*
X166916573Y-93149868D01*
X166922325Y-93150779D01*
X166922328Y-93150780D01*
X167006082Y-93164045D01*
X167008955Y-93164500D01*
X167351045Y-93164500D01*
X167385370Y-93159063D01*
X167435058Y-93168721D01*
X167458474Y-93191039D01*
X167508061Y-93265252D01*
X167514122Y-93269302D01*
X167577394Y-93311579D01*
X167590465Y-93320313D01*
X167593818Y-93321702D01*
X167593820Y-93321703D01*
X167621751Y-93333273D01*
X167621757Y-93333275D01*
X167625113Y-93334665D01*
X167628681Y-93335375D01*
X167628682Y-93335375D01*
X167718746Y-93353290D01*
X167718747Y-93353290D01*
X167722316Y-93354000D01*
X168551000Y-93354000D01*
X168554569Y-93353290D01*
X168554570Y-93353290D01*
X168641543Y-93335990D01*
X168691573Y-93343690D01*
X168718320Y-93368697D01*
X168724478Y-93378325D01*
X168811836Y-93479710D01*
X168819697Y-93486568D01*
X168931999Y-93559358D01*
X168941473Y-93563735D01*
X169070893Y-93602440D01*
X169078741Y-93603887D01*
X169078872Y-93603897D01*
X169081635Y-93604000D01*
X169211952Y-93604000D01*
X169221948Y-93600362D01*
X169225000Y-93595075D01*
X169225000Y-91959048D01*
X169223499Y-91954925D01*
X170375000Y-91954925D01*
X170375000Y-93590952D01*
X170378638Y-93600948D01*
X170383925Y-93604000D01*
X170483562Y-93604000D01*
X170488793Y-93603627D01*
X170587692Y-93589464D01*
X170597710Y-93586535D01*
X170719535Y-93531144D01*
X170728327Y-93525521D01*
X170829710Y-93438164D01*
X170836568Y-93430303D01*
X170909358Y-93318001D01*
X170913735Y-93308527D01*
X170927557Y-93262311D01*
X170957772Y-93221700D01*
X171007023Y-93210012D01*
X171052265Y-93232716D01*
X171065818Y-93252885D01*
X171118856Y-93369535D01*
X171124479Y-93378327D01*
X171211836Y-93479710D01*
X171219697Y-93486568D01*
X171331999Y-93559358D01*
X171341473Y-93563735D01*
X171470893Y-93602440D01*
X171478741Y-93603887D01*
X171478872Y-93603897D01*
X171481635Y-93604000D01*
X171611952Y-93604000D01*
X171621948Y-93600362D01*
X171625000Y-93595075D01*
X171625000Y-91959048D01*
X171621362Y-91949052D01*
X171616075Y-91946000D01*
X171516438Y-91946000D01*
X171511207Y-91946373D01*
X171412308Y-91960536D01*
X171402290Y-91963465D01*
X171280465Y-92018856D01*
X171271673Y-92024479D01*
X171170290Y-92111836D01*
X171163432Y-92119697D01*
X171090642Y-92231999D01*
X171086265Y-92241473D01*
X171072443Y-92287689D01*
X171042228Y-92328300D01*
X170992977Y-92339988D01*
X170947735Y-92317284D01*
X170934182Y-92297115D01*
X170881144Y-92180465D01*
X170875521Y-92171673D01*
X170788164Y-92070290D01*
X170780303Y-92063432D01*
X170668001Y-91990642D01*
X170658527Y-91986265D01*
X170529107Y-91947560D01*
X170521259Y-91946113D01*
X170521128Y-91946103D01*
X170518365Y-91946000D01*
X170388048Y-91946000D01*
X170378052Y-91949638D01*
X170375000Y-91954925D01*
X169223499Y-91954925D01*
X169221362Y-91949052D01*
X169216075Y-91946000D01*
X169116438Y-91946000D01*
X169111207Y-91946373D01*
X169012308Y-91960536D01*
X169002290Y-91963465D01*
X168958629Y-91983317D01*
X168908163Y-91987245D01*
X168866979Y-91957814D01*
X168854000Y-91915953D01*
X168854000Y-91228000D01*
X168871313Y-91180434D01*
X168915150Y-91155124D01*
X168928000Y-91154000D01*
X169523494Y-91154000D01*
X169525672Y-91153739D01*
X169525677Y-91153739D01*
X169547747Y-91151097D01*
X169583438Y-91146825D01*
X169605912Y-91141367D01*
X169651830Y-91124222D01*
X169660427Y-91121595D01*
X169744924Y-91101309D01*
X169762581Y-91099267D01*
X169800844Y-91099467D01*
X169800845Y-91099467D01*
X169841613Y-91099681D01*
X169859253Y-91101910D01*
X169949963Y-91124695D01*
X169958363Y-91127345D01*
X169991485Y-91140009D01*
X169993593Y-91140815D01*
X169995774Y-91141357D01*
X169995778Y-91141358D01*
X170013015Y-91145639D01*
X170016521Y-91146510D01*
X170018758Y-91146784D01*
X170018760Y-91146784D01*
X170036095Y-91148904D01*
X170077751Y-91154000D01*
X171923494Y-91154000D01*
X171925672Y-91153739D01*
X171925677Y-91153739D01*
X171947747Y-91151097D01*
X171983438Y-91146825D01*
X172005912Y-91141367D01*
X172051830Y-91124222D01*
X172060427Y-91121595D01*
X172144924Y-91101309D01*
X172162581Y-91099267D01*
X172200844Y-91099467D01*
X172200845Y-91099467D01*
X172241613Y-91099681D01*
X172259253Y-91101910D01*
X172349963Y-91124695D01*
X172358363Y-91127345D01*
X172391485Y-91140009D01*
X172393593Y-91140815D01*
X172395774Y-91141357D01*
X172395778Y-91141358D01*
X172413015Y-91145639D01*
X172416521Y-91146510D01*
X172418758Y-91146784D01*
X172418760Y-91146784D01*
X172436095Y-91148904D01*
X172477751Y-91154000D01*
X173151000Y-91154000D01*
X173154569Y-91153290D01*
X173154570Y-91153290D01*
X173244634Y-91135375D01*
X173244635Y-91135375D01*
X173248203Y-91134665D01*
X173251559Y-91133275D01*
X173251565Y-91133273D01*
X173279496Y-91121703D01*
X173279498Y-91121702D01*
X173282851Y-91120313D01*
X173285869Y-91118296D01*
X173289080Y-91116580D01*
X173289851Y-91118023D01*
X173333388Y-91107378D01*
X173378783Y-91129775D01*
X173393035Y-91151097D01*
X173394193Y-91153725D01*
X173402718Y-91173070D01*
X173406346Y-91177256D01*
X173433030Y-91208045D01*
X173467625Y-91247963D01*
X173467844Y-91248133D01*
X173490032Y-91292556D01*
X173490514Y-91300986D01*
X173490514Y-92328329D01*
X173473201Y-92375895D01*
X173429364Y-92401205D01*
X173379514Y-92392415D01*
X173346977Y-92353638D01*
X173343261Y-92338819D01*
X173339464Y-92312308D01*
X173336535Y-92302290D01*
X173281144Y-92180465D01*
X173275521Y-92171673D01*
X173188164Y-92070290D01*
X173180303Y-92063432D01*
X173068001Y-91990642D01*
X173058527Y-91986265D01*
X172929107Y-91947560D01*
X172921259Y-91946113D01*
X172921128Y-91946103D01*
X172918365Y-91946000D01*
X172788048Y-91946000D01*
X172778052Y-91949638D01*
X172775000Y-91954925D01*
X172775000Y-93590952D01*
X172778638Y-93600948D01*
X172783925Y-93604000D01*
X172883562Y-93604000D01*
X172888793Y-93603627D01*
X172987692Y-93589464D01*
X172997710Y-93586535D01*
X173119535Y-93531144D01*
X173128327Y-93525521D01*
X173223696Y-93443346D01*
X173271032Y-93425412D01*
X173318820Y-93442101D01*
X173344701Y-93485603D01*
X173346000Y-93499406D01*
X173346000Y-94776000D01*
X173346212Y-94777972D01*
X173348594Y-94800123D01*
X173351805Y-94829994D01*
X173363011Y-94881505D01*
X173363265Y-94882433D01*
X173363270Y-94882451D01*
X173366545Y-94894387D01*
X173370204Y-94907724D01*
X173419246Y-94993846D01*
X173465001Y-95046650D01*
X173497582Y-95078089D01*
X173585399Y-95124026D01*
X173652438Y-95143711D01*
X173655047Y-95144086D01*
X173655051Y-95144087D01*
X173688564Y-95148905D01*
X173724000Y-95154000D01*
X189476000Y-95154000D01*
X189479507Y-95153623D01*
X189528032Y-95148406D01*
X189528033Y-95148406D01*
X189529994Y-95148195D01*
X189581505Y-95136989D01*
X189582433Y-95136735D01*
X189582451Y-95136730D01*
X189594387Y-95133455D01*
X189607724Y-95129796D01*
X189616059Y-95125050D01*
X189640443Y-95111164D01*
X189693846Y-95080754D01*
X189746650Y-95034999D01*
X189778089Y-95002418D01*
X189824026Y-94914601D01*
X189843711Y-94847562D01*
X189854000Y-94776000D01*
X189854000Y-94500000D01*
X195414925Y-94500000D01*
X195433173Y-94673622D01*
X195487121Y-94839656D01*
X195574410Y-94990845D01*
X195577001Y-94993722D01*
X195577002Y-94993724D01*
X195615139Y-95036079D01*
X195691226Y-95120582D01*
X195832462Y-95223196D01*
X195836004Y-95224773D01*
X195988403Y-95292626D01*
X195988406Y-95292627D01*
X195991948Y-95294204D01*
X195995740Y-95295010D01*
X195995743Y-95295011D01*
X196158914Y-95329693D01*
X196162711Y-95330500D01*
X196337289Y-95330500D01*
X196341086Y-95329693D01*
X196504257Y-95295011D01*
X196504260Y-95295010D01*
X196508052Y-95294204D01*
X196511594Y-95292627D01*
X196511597Y-95292626D01*
X196663996Y-95224773D01*
X196667538Y-95223196D01*
X196808774Y-95120582D01*
X196884861Y-95036079D01*
X196922998Y-94993724D01*
X196922999Y-94993722D01*
X196925590Y-94990845D01*
X197012879Y-94839656D01*
X197066827Y-94673622D01*
X197085075Y-94500000D01*
X197066827Y-94326378D01*
X197012879Y-94160344D01*
X196925590Y-94009155D01*
X196901259Y-93982132D01*
X196887448Y-93966793D01*
X198641264Y-93966793D01*
X198654085Y-94189156D01*
X198654749Y-94192103D01*
X198654750Y-94192109D01*
X198675507Y-94284214D01*
X198703052Y-94406439D01*
X198704194Y-94409251D01*
X198742608Y-94503853D01*
X198786849Y-94612807D01*
X198826375Y-94677308D01*
X198885639Y-94774017D01*
X198903226Y-94802717D01*
X198905215Y-94805013D01*
X198905217Y-94805016D01*
X198990320Y-94903261D01*
X199049058Y-94971070D01*
X199220428Y-95113344D01*
X199223046Y-95114874D01*
X199223052Y-95114878D01*
X199410108Y-95224184D01*
X199410113Y-95224186D01*
X199412734Y-95225718D01*
X199415573Y-95226802D01*
X199617966Y-95304089D01*
X199617970Y-95304090D01*
X199620811Y-95305175D01*
X199623795Y-95305782D01*
X199623798Y-95305783D01*
X199723860Y-95326141D01*
X199839072Y-95349581D01*
X199924484Y-95352713D01*
X200058615Y-95357632D01*
X200058621Y-95357632D01*
X200061655Y-95357743D01*
X200064667Y-95357357D01*
X200064671Y-95357357D01*
X200175890Y-95343109D01*
X200282582Y-95329441D01*
X200376616Y-95301229D01*
X200493014Y-95266309D01*
X200493019Y-95266307D01*
X200495919Y-95265437D01*
X200695939Y-95167448D01*
X200877269Y-95038107D01*
X200880388Y-95034999D01*
X201032884Y-94883035D01*
X201032887Y-94883032D01*
X201035039Y-94880887D01*
X201062254Y-94843014D01*
X201163240Y-94702476D01*
X201165012Y-94700010D01*
X201263698Y-94500334D01*
X201264752Y-94496867D01*
X201327565Y-94290123D01*
X201328447Y-94287220D01*
X201334243Y-94243199D01*
X201357262Y-94068348D01*
X201357262Y-94068343D01*
X201357519Y-94066394D01*
X201359142Y-94000000D01*
X201357085Y-93974983D01*
X201341141Y-93781042D01*
X201341140Y-93781038D01*
X201340892Y-93778017D01*
X201333439Y-93748343D01*
X201297156Y-93603897D01*
X201286631Y-93561995D01*
X201197817Y-93357736D01*
X201076834Y-93170726D01*
X200991609Y-93077064D01*
X200928975Y-93008230D01*
X200928974Y-93008229D01*
X200926933Y-93005986D01*
X200752138Y-92867942D01*
X200680771Y-92828545D01*
X200559806Y-92761768D01*
X200559801Y-92761766D01*
X200557144Y-92760299D01*
X200501223Y-92740497D01*
X200350043Y-92686961D01*
X200350039Y-92686960D01*
X200347187Y-92685950D01*
X200127907Y-92646890D01*
X199984501Y-92645138D01*
X199908229Y-92644206D01*
X199908228Y-92644206D01*
X199905191Y-92644169D01*
X199810201Y-92658704D01*
X199688026Y-92677399D01*
X199688022Y-92677400D01*
X199685022Y-92677859D01*
X199682133Y-92678803D01*
X199682130Y-92678804D01*
X199476195Y-92746114D01*
X199476191Y-92746116D01*
X199473311Y-92747057D01*
X199275745Y-92849903D01*
X199273324Y-92851721D01*
X199273322Y-92851722D01*
X199244133Y-92873638D01*
X199097630Y-92983636D01*
X199095533Y-92985830D01*
X199095530Y-92985833D01*
X198945844Y-93142470D01*
X198945840Y-93142474D01*
X198943748Y-93144664D01*
X198942038Y-93147171D01*
X198942037Y-93147172D01*
X198910620Y-93193228D01*
X198818233Y-93328663D01*
X198816954Y-93331418D01*
X198816953Y-93331420D01*
X198806515Y-93353907D01*
X198724455Y-93530691D01*
X198664932Y-93745322D01*
X198664609Y-93748341D01*
X198664609Y-93748343D01*
X198661438Y-93778017D01*
X198641264Y-93966793D01*
X196887448Y-93966793D01*
X196811367Y-93882298D01*
X196808774Y-93879418D01*
X196667538Y-93776804D01*
X196590259Y-93742397D01*
X196511597Y-93707374D01*
X196511594Y-93707373D01*
X196508052Y-93705796D01*
X196504260Y-93704990D01*
X196504257Y-93704989D01*
X196341086Y-93670307D01*
X196341085Y-93670307D01*
X196337289Y-93669500D01*
X196162711Y-93669500D01*
X196158915Y-93670307D01*
X196158914Y-93670307D01*
X195995743Y-93704989D01*
X195995740Y-93704990D01*
X195991948Y-93705796D01*
X195988406Y-93707373D01*
X195988403Y-93707374D01*
X195903172Y-93745322D01*
X195832463Y-93776804D01*
X195691226Y-93879418D01*
X195688633Y-93882298D01*
X195598742Y-93982132D01*
X195574410Y-94009155D01*
X195487121Y-94160344D01*
X195433173Y-94326378D01*
X195414925Y-94500000D01*
X189854000Y-94500000D01*
X189854000Y-94225175D01*
X189841704Y-94147105D01*
X189818275Y-94074569D01*
X189797282Y-94026930D01*
X189758457Y-93982132D01*
X189734756Y-93954784D01*
X189734754Y-93954783D01*
X189732375Y-93952037D01*
X189732156Y-93951867D01*
X189709968Y-93907444D01*
X189709486Y-93899014D01*
X189709486Y-89800000D01*
X189689734Y-89700699D01*
X189633484Y-89616516D01*
X189549301Y-89560266D01*
X189516915Y-89553824D01*
X189453570Y-89541224D01*
X189453569Y-89541224D01*
X189450000Y-89540514D01*
X185401690Y-89540514D01*
X185354124Y-89523201D01*
X185341305Y-89509282D01*
X185339524Y-89506154D01*
X185293769Y-89453350D01*
X185261188Y-89421911D01*
X185173371Y-89375974D01*
X185106332Y-89356289D01*
X185103723Y-89355914D01*
X185103719Y-89355913D01*
X185070206Y-89351095D01*
X185034770Y-89346000D01*
X183051285Y-89346000D01*
X183039771Y-89346377D01*
X183035275Y-89346524D01*
X183035263Y-89346525D01*
X183034670Y-89346544D01*
X183033099Y-89346647D01*
X183019064Y-89347567D01*
X183019061Y-89347567D01*
X183018485Y-89347605D01*
X183017907Y-89347662D01*
X183017894Y-89347663D01*
X183007252Y-89348711D01*
X182992748Y-89348711D01*
X182982106Y-89347663D01*
X182982093Y-89347662D01*
X182981515Y-89347605D01*
X182980939Y-89347567D01*
X182980936Y-89347567D01*
X182966901Y-89346647D01*
X182965330Y-89346544D01*
X182964737Y-89346525D01*
X182964725Y-89346524D01*
X182960229Y-89346377D01*
X182948715Y-89346000D01*
X181824000Y-89346000D01*
X181822028Y-89346212D01*
X181771968Y-89351594D01*
X181771967Y-89351594D01*
X181770006Y-89351805D01*
X181718495Y-89363011D01*
X181717567Y-89363265D01*
X181717549Y-89363270D01*
X181705613Y-89366545D01*
X181692276Y-89370204D01*
X181688257Y-89372493D01*
X181688256Y-89372493D01*
X181682143Y-89375974D01*
X181606154Y-89419246D01*
X181553350Y-89465001D01*
X181521911Y-89497582D01*
X181475974Y-89585399D01*
X181456289Y-89652438D01*
X181455914Y-89655047D01*
X181455913Y-89655051D01*
X181454787Y-89662885D01*
X181446000Y-89724000D01*
X181446000Y-90135654D01*
X181428687Y-90183220D01*
X181384850Y-90208530D01*
X181335000Y-90199740D01*
X181319674Y-90187980D01*
X181025546Y-89893852D01*
X181004154Y-89847976D01*
X181009506Y-89813205D01*
X181010683Y-89810363D01*
X181014734Y-89804301D01*
X181034486Y-89705000D01*
X181034486Y-89105000D01*
X181014734Y-89005699D01*
X180958484Y-88921516D01*
X180874301Y-88865266D01*
X180859550Y-88862332D01*
X180778570Y-88846224D01*
X180778569Y-88846224D01*
X180775000Y-88845514D01*
X179225000Y-88845514D01*
X179221431Y-88846224D01*
X179221430Y-88846224D01*
X179125699Y-88865266D01*
X179125228Y-88862900D01*
X179085722Y-88864623D01*
X179045564Y-88833807D01*
X179033976Y-88794049D01*
X179033976Y-88745951D01*
X179051289Y-88698385D01*
X179095126Y-88673075D01*
X179125370Y-88676387D01*
X179125699Y-88674734D01*
X179221430Y-88693776D01*
X179221431Y-88693776D01*
X179225000Y-88694486D01*
X180775000Y-88694486D01*
X180778569Y-88693776D01*
X180778570Y-88693776D01*
X180867152Y-88676156D01*
X180874301Y-88674734D01*
X180958484Y-88618484D01*
X181014734Y-88534301D01*
X181019782Y-88508925D01*
X195241024Y-88508925D01*
X195241024Y-88946360D01*
X195241734Y-88953571D01*
X195259315Y-89041955D01*
X195264787Y-89055167D01*
X195312827Y-89127064D01*
X195322936Y-89137173D01*
X195394833Y-89185213D01*
X195408045Y-89190685D01*
X195496429Y-89208266D01*
X195503640Y-89208976D01*
X195936952Y-89208976D01*
X195946948Y-89205338D01*
X195950000Y-89200051D01*
X195950000Y-88513048D01*
X195948499Y-88508925D01*
X197450000Y-88508925D01*
X197450000Y-89195928D01*
X197453638Y-89205924D01*
X197458925Y-89208976D01*
X197896360Y-89208976D01*
X197903571Y-89208266D01*
X197991955Y-89190685D01*
X198005167Y-89185213D01*
X198077064Y-89137173D01*
X198087173Y-89127064D01*
X198135213Y-89055167D01*
X198140685Y-89041955D01*
X198158266Y-88953571D01*
X198158976Y-88946360D01*
X198158976Y-88513048D01*
X198155338Y-88503052D01*
X198150051Y-88500000D01*
X197463048Y-88500000D01*
X197453052Y-88503638D01*
X197450000Y-88508925D01*
X195948499Y-88508925D01*
X195946362Y-88503052D01*
X195941075Y-88500000D01*
X195254072Y-88500000D01*
X195244076Y-88503638D01*
X195241024Y-88508925D01*
X181019782Y-88508925D01*
X181034486Y-88435000D01*
X181034486Y-87835000D01*
X181014734Y-87735699D01*
X180958484Y-87651516D01*
X180874301Y-87595266D01*
X180857882Y-87592000D01*
X180778570Y-87576224D01*
X180778569Y-87576224D01*
X180775000Y-87575514D01*
X179225000Y-87575514D01*
X179221431Y-87576224D01*
X179221430Y-87576224D01*
X179142118Y-87592000D01*
X179125699Y-87595266D01*
X179041516Y-87651516D01*
X178985266Y-87735699D01*
X178965514Y-87835000D01*
X178965514Y-88176000D01*
X178948201Y-88223566D01*
X178904364Y-88248876D01*
X178891514Y-88250000D01*
X178187312Y-88250000D01*
X178166797Y-88257467D01*
X178059226Y-88365038D01*
X178050000Y-88384824D01*
X178050000Y-89012688D01*
X178057467Y-89033203D01*
X178271938Y-89247674D01*
X178293330Y-89293550D01*
X178280229Y-89342445D01*
X178271938Y-89352326D01*
X178059226Y-89565038D01*
X178050000Y-89584824D01*
X178050000Y-89995928D01*
X178053638Y-90005924D01*
X178058925Y-90008976D01*
X178771360Y-90008976D01*
X178778571Y-90008266D01*
X178866955Y-89990685D01*
X178880167Y-89985213D01*
X178952064Y-89937173D01*
X178962175Y-89927062D01*
X178963373Y-89925269D01*
X178965603Y-89923634D01*
X178967327Y-89921910D01*
X178967592Y-89922175D01*
X179004194Y-89895338D01*
X179054705Y-89898649D01*
X179066014Y-89904854D01*
X179119636Y-89940684D01*
X179119641Y-89940686D01*
X179125699Y-89944734D01*
X179132848Y-89946156D01*
X179221430Y-89963776D01*
X179221431Y-89963776D01*
X179225000Y-89964486D01*
X179992140Y-89964486D01*
X180039706Y-89981799D01*
X180044466Y-89986160D01*
X180698826Y-90640520D01*
X180720218Y-90686396D01*
X180720500Y-90692846D01*
X180720500Y-91281926D01*
X180703187Y-91329492D01*
X180695342Y-91336808D01*
X180695229Y-91336865D01*
X180635302Y-91396792D01*
X180589426Y-91418184D01*
X180540531Y-91405083D01*
X180511497Y-91363619D01*
X180508976Y-91344466D01*
X180508976Y-91303640D01*
X180508266Y-91296429D01*
X180490685Y-91208045D01*
X180485213Y-91194833D01*
X180437173Y-91122936D01*
X180427064Y-91112827D01*
X180355167Y-91064787D01*
X180341955Y-91059315D01*
X180253571Y-91041734D01*
X180246360Y-91041024D01*
X179763048Y-91041024D01*
X179753052Y-91044662D01*
X179750000Y-91049949D01*
X179750000Y-91436952D01*
X179753638Y-91446948D01*
X179758925Y-91450000D01*
X180477367Y-91450000D01*
X180524933Y-91467313D01*
X180550243Y-91511150D01*
X180548483Y-91536312D01*
X180550132Y-91536573D01*
X180535500Y-91628955D01*
X180535500Y-91971045D01*
X180535955Y-91973917D01*
X180535955Y-91973918D01*
X180548470Y-92052931D01*
X180550132Y-92063427D01*
X180552778Y-92068620D01*
X180604219Y-92169579D01*
X180604221Y-92169581D01*
X180606865Y-92174771D01*
X180659768Y-92227674D01*
X180681160Y-92273550D01*
X180668059Y-92322445D01*
X180659768Y-92332326D01*
X180606865Y-92385229D01*
X180604221Y-92390419D01*
X180604219Y-92390421D01*
X180569315Y-92458925D01*
X180550132Y-92496573D01*
X180535500Y-92588955D01*
X180535500Y-92828545D01*
X180518187Y-92876111D01*
X180492118Y-92894872D01*
X180492276Y-92895149D01*
X180487681Y-92897766D01*
X180487680Y-92897766D01*
X180412978Y-92940305D01*
X180376360Y-92950000D01*
X177504072Y-92950000D01*
X177494076Y-92953638D01*
X177491024Y-92958925D01*
X177491024Y-92972000D01*
X177473711Y-93019566D01*
X177429874Y-93044876D01*
X177417024Y-93046000D01*
X176592754Y-93046000D01*
X176560520Y-93038610D01*
X176551252Y-93034125D01*
X176515977Y-92997822D01*
X176509486Y-92967515D01*
X176509486Y-91395645D01*
X176526799Y-91348079D01*
X176546866Y-91331341D01*
X176593846Y-91304588D01*
X176594940Y-91303640D01*
X177491024Y-91303640D01*
X177491024Y-91436952D01*
X177494662Y-91446948D01*
X177499949Y-91450000D01*
X178236952Y-91450000D01*
X178246948Y-91446362D01*
X178250000Y-91441075D01*
X178250000Y-91054072D01*
X178246362Y-91044076D01*
X178241075Y-91041024D01*
X177753640Y-91041024D01*
X177746429Y-91041734D01*
X177658045Y-91059315D01*
X177644833Y-91064787D01*
X177572936Y-91112827D01*
X177562827Y-91122936D01*
X177514787Y-91194833D01*
X177509315Y-91208045D01*
X177491734Y-91296429D01*
X177491024Y-91303640D01*
X176594940Y-91303640D01*
X176646650Y-91258833D01*
X176678089Y-91226252D01*
X176724026Y-91138435D01*
X176743711Y-91071396D01*
X176754000Y-90999834D01*
X176754000Y-90124000D01*
X176748195Y-90070006D01*
X176736989Y-90018495D01*
X176736735Y-90017567D01*
X176736730Y-90017549D01*
X176731020Y-89996739D01*
X176729796Y-89992276D01*
X176680754Y-89906154D01*
X176634999Y-89853350D01*
X176602418Y-89821911D01*
X176597729Y-89819458D01*
X176597726Y-89819456D01*
X176589699Y-89815257D01*
X176555576Y-89777869D01*
X176550000Y-89749687D01*
X176550000Y-89587312D01*
X176542533Y-89566797D01*
X176328062Y-89352326D01*
X176306670Y-89306450D01*
X176319771Y-89257555D01*
X176328062Y-89247674D01*
X176540774Y-89034962D01*
X176550000Y-89015176D01*
X176550000Y-88387312D01*
X176542533Y-88366797D01*
X176434962Y-88259226D01*
X176415176Y-88250000D01*
X175708486Y-88250000D01*
X175660920Y-88232687D01*
X175635610Y-88188850D01*
X175634486Y-88176000D01*
X175634486Y-87835000D01*
X175614734Y-87735699D01*
X175558484Y-87651516D01*
X175474301Y-87595266D01*
X175457882Y-87592000D01*
X175378570Y-87576224D01*
X175378569Y-87576224D01*
X175375000Y-87575514D01*
X174028000Y-87575514D01*
X173980434Y-87558201D01*
X173955124Y-87514364D01*
X173954000Y-87501514D01*
X173954000Y-87497976D01*
X173971313Y-87450410D01*
X174015150Y-87425100D01*
X174028000Y-87423976D01*
X174286952Y-87423976D01*
X174296948Y-87420338D01*
X174300000Y-87415051D01*
X174300000Y-87173925D01*
X174900000Y-87173925D01*
X174900000Y-87410928D01*
X174903638Y-87420924D01*
X174908925Y-87423976D01*
X175371360Y-87423976D01*
X175378571Y-87423266D01*
X175466955Y-87405685D01*
X175480167Y-87400213D01*
X175520152Y-87373497D01*
X175531000Y-87358702D01*
X175531000Y-87178048D01*
X175527362Y-87168052D01*
X175522075Y-87165000D01*
X174913048Y-87165000D01*
X174903052Y-87168638D01*
X174900000Y-87173925D01*
X174300000Y-87173925D01*
X174300000Y-86319072D01*
X174296362Y-86309076D01*
X174291075Y-86306024D01*
X173828640Y-86306024D01*
X173821429Y-86306734D01*
X173733045Y-86324315D01*
X173719833Y-86329787D01*
X173647936Y-86377827D01*
X173637827Y-86387936D01*
X173589787Y-86459833D01*
X173584315Y-86473045D01*
X173566734Y-86561429D01*
X173566024Y-86568640D01*
X173566024Y-86572000D01*
X173548711Y-86619566D01*
X173504874Y-86644876D01*
X173492024Y-86646000D01*
X166949000Y-86646000D01*
X166945434Y-86646709D01*
X166945427Y-86646710D01*
X166942432Y-86647306D01*
X166892402Y-86639602D01*
X166859030Y-86601543D01*
X166854000Y-86574727D01*
X166854000Y-85703376D01*
X168713748Y-85703376D01*
X168714613Y-85710203D01*
X168718857Y-85719536D01*
X168724477Y-85728324D01*
X168811836Y-85829710D01*
X168819697Y-85836568D01*
X168931999Y-85909358D01*
X168941473Y-85913735D01*
X169070893Y-85952440D01*
X169078741Y-85953887D01*
X169078872Y-85953897D01*
X169081635Y-85954000D01*
X169211952Y-85954000D01*
X169221948Y-85950362D01*
X169225000Y-85945075D01*
X169225000Y-85713048D01*
X169221362Y-85703052D01*
X169216075Y-85700000D01*
X168723022Y-85700000D01*
X168713748Y-85703376D01*
X166854000Y-85703376D01*
X166854000Y-85090626D01*
X166851741Y-85058925D01*
X167725000Y-85058925D01*
X167725000Y-85260880D01*
X167728376Y-85270155D01*
X167735202Y-85269290D01*
X167755926Y-85259867D01*
X167764718Y-85254244D01*
X167860677Y-85171561D01*
X167867535Y-85163700D01*
X167936176Y-85057799D01*
X167935829Y-85051883D01*
X167934772Y-85050763D01*
X167931548Y-85050000D01*
X167738048Y-85050000D01*
X167728052Y-85053638D01*
X167725000Y-85058925D01*
X166851741Y-85058925D01*
X166851434Y-85054616D01*
X166844195Y-85004072D01*
X166836490Y-84950272D01*
X166836470Y-84950059D01*
X166836476Y-84949955D01*
X166825747Y-84875040D01*
X166825000Y-84864549D01*
X166825000Y-84546589D01*
X168716747Y-84546589D01*
X168725418Y-84550000D01*
X169211952Y-84550000D01*
X169221948Y-84546362D01*
X169225000Y-84541075D01*
X169225000Y-84309048D01*
X169223499Y-84304925D01*
X170375000Y-84304925D01*
X170375000Y-85940952D01*
X170378638Y-85950948D01*
X170383925Y-85954000D01*
X170483562Y-85954000D01*
X170488793Y-85953627D01*
X170587692Y-85939464D01*
X170597710Y-85936535D01*
X170719535Y-85881144D01*
X170728327Y-85875521D01*
X170829710Y-85788164D01*
X170836568Y-85780303D01*
X170909358Y-85668001D01*
X170913735Y-85658527D01*
X170927557Y-85612311D01*
X170957772Y-85571700D01*
X171007023Y-85560012D01*
X171052265Y-85582716D01*
X171065818Y-85602885D01*
X171118856Y-85719535D01*
X171124479Y-85728327D01*
X171211836Y-85829710D01*
X171219697Y-85836568D01*
X171331999Y-85909358D01*
X171341473Y-85913735D01*
X171470893Y-85952440D01*
X171478741Y-85953887D01*
X171478872Y-85953897D01*
X171481635Y-85954000D01*
X171611952Y-85954000D01*
X171621948Y-85950362D01*
X171625000Y-85945075D01*
X171625000Y-85708925D01*
X172775000Y-85708925D01*
X172775000Y-85940952D01*
X172778638Y-85950948D01*
X172783925Y-85954000D01*
X172883562Y-85954000D01*
X172888793Y-85953627D01*
X172987692Y-85939464D01*
X172997710Y-85936535D01*
X173119535Y-85881144D01*
X173128327Y-85875521D01*
X173229710Y-85788164D01*
X173236568Y-85780303D01*
X173281520Y-85710949D01*
X173283253Y-85703411D01*
X173274582Y-85700000D01*
X172788048Y-85700000D01*
X172778052Y-85703638D01*
X172775000Y-85708925D01*
X171625000Y-85708925D01*
X171625000Y-85295000D01*
X173565514Y-85295000D01*
X173565514Y-85895000D01*
X173566224Y-85898569D01*
X173566224Y-85898570D01*
X173577227Y-85953887D01*
X173585266Y-85994301D01*
X173641516Y-86078484D01*
X173647574Y-86082532D01*
X173652570Y-86085870D01*
X173725699Y-86134734D01*
X173732848Y-86136156D01*
X173821430Y-86153776D01*
X173821431Y-86153776D01*
X173825000Y-86154486D01*
X175375000Y-86154486D01*
X175378569Y-86153776D01*
X175378570Y-86153776D01*
X175474301Y-86134734D01*
X175474772Y-86137100D01*
X175514278Y-86135377D01*
X175554436Y-86166193D01*
X175566024Y-86205951D01*
X175566024Y-86254601D01*
X175548711Y-86302167D01*
X175504874Y-86327477D01*
X175474423Y-86324143D01*
X175474106Y-86325737D01*
X175378571Y-86306734D01*
X175371360Y-86306024D01*
X174913048Y-86306024D01*
X174903052Y-86309662D01*
X174900000Y-86314949D01*
X174900000Y-86551952D01*
X174903638Y-86561948D01*
X174908925Y-86565000D01*
X175595000Y-86565000D01*
X175642566Y-86582313D01*
X175667876Y-86626150D01*
X175669000Y-86639000D01*
X175669000Y-86736952D01*
X175672638Y-86746948D01*
X175677925Y-86750000D01*
X176312688Y-86750000D01*
X176333203Y-86742533D01*
X176540774Y-86534962D01*
X176550000Y-86515176D01*
X176550000Y-85987312D01*
X176542533Y-85966797D01*
X176328062Y-85752326D01*
X176306670Y-85706450D01*
X176319771Y-85657555D01*
X176328062Y-85647674D01*
X176540774Y-85434962D01*
X176550000Y-85415176D01*
X176550000Y-85004072D01*
X176546362Y-84994076D01*
X176541075Y-84991024D01*
X175828640Y-84991024D01*
X175821429Y-84991734D01*
X175733045Y-85009315D01*
X175719833Y-85014787D01*
X175647936Y-85062827D01*
X175637825Y-85072938D01*
X175636627Y-85074731D01*
X175634397Y-85076366D01*
X175632673Y-85078090D01*
X175632408Y-85077825D01*
X175595806Y-85104662D01*
X175545295Y-85101351D01*
X175533986Y-85095146D01*
X175480364Y-85059316D01*
X175480359Y-85059314D01*
X175474301Y-85055266D01*
X175383029Y-85037111D01*
X175378570Y-85036224D01*
X175378569Y-85036224D01*
X175375000Y-85035514D01*
X173825000Y-85035514D01*
X173821431Y-85036224D01*
X173821430Y-85036224D01*
X173816971Y-85037111D01*
X173725699Y-85055266D01*
X173681514Y-85084790D01*
X173651774Y-85104662D01*
X173641516Y-85111516D01*
X173637468Y-85117574D01*
X173627258Y-85132855D01*
X173585266Y-85195699D01*
X173565514Y-85295000D01*
X171625000Y-85295000D01*
X171625000Y-84309048D01*
X171623499Y-84304925D01*
X172775000Y-84304925D01*
X172775000Y-84536952D01*
X172778638Y-84546948D01*
X172783925Y-84550000D01*
X173276978Y-84550000D01*
X173286252Y-84546624D01*
X173285387Y-84539797D01*
X173281143Y-84530464D01*
X173275523Y-84521676D01*
X173188164Y-84420290D01*
X173180303Y-84413432D01*
X173068001Y-84340642D01*
X173058527Y-84336265D01*
X172929107Y-84297560D01*
X172921259Y-84296113D01*
X172921128Y-84296103D01*
X172918365Y-84296000D01*
X172788048Y-84296000D01*
X172778052Y-84299638D01*
X172775000Y-84304925D01*
X171623499Y-84304925D01*
X171621362Y-84299052D01*
X171616075Y-84296000D01*
X171516438Y-84296000D01*
X171511207Y-84296373D01*
X171412308Y-84310536D01*
X171402290Y-84313465D01*
X171280465Y-84368856D01*
X171271673Y-84374479D01*
X171170290Y-84461836D01*
X171163432Y-84469697D01*
X171090642Y-84581999D01*
X171086265Y-84591473D01*
X171072443Y-84637689D01*
X171042228Y-84678300D01*
X170992977Y-84689988D01*
X170947735Y-84667284D01*
X170934182Y-84647115D01*
X170881144Y-84530465D01*
X170875521Y-84521673D01*
X170788164Y-84420290D01*
X170780303Y-84413432D01*
X170668001Y-84340642D01*
X170658527Y-84336265D01*
X170529107Y-84297560D01*
X170521259Y-84296113D01*
X170521128Y-84296103D01*
X170518365Y-84296000D01*
X170388048Y-84296000D01*
X170378052Y-84299638D01*
X170375000Y-84304925D01*
X169223499Y-84304925D01*
X169221362Y-84299052D01*
X169216075Y-84296000D01*
X169116438Y-84296000D01*
X169111207Y-84296373D01*
X169012308Y-84310536D01*
X169002290Y-84313465D01*
X168880465Y-84368856D01*
X168871673Y-84374479D01*
X168770290Y-84461836D01*
X168763432Y-84469697D01*
X168718480Y-84539051D01*
X168716747Y-84546589D01*
X166825000Y-84546589D01*
X166825000Y-84320279D01*
X166826750Y-84304282D01*
X166829350Y-84292539D01*
X166829717Y-84292620D01*
X166829719Y-84292607D01*
X166829527Y-84292572D01*
X166832664Y-84275566D01*
X166832664Y-84275561D01*
X166833321Y-84272001D01*
X166833271Y-84268375D01*
X166833275Y-84268327D01*
X166834194Y-84262578D01*
X166834095Y-84262564D01*
X166851324Y-84144814D01*
X166854000Y-84108041D01*
X166854000Y-83939006D01*
X167725000Y-83939006D01*
X167725000Y-84136952D01*
X167728638Y-84146948D01*
X167733925Y-84150000D01*
X167922247Y-84150000D01*
X167931522Y-84146624D01*
X167930657Y-84139799D01*
X167909867Y-84094073D01*
X167904244Y-84085281D01*
X167821561Y-83989323D01*
X167813700Y-83982465D01*
X167735949Y-83932070D01*
X167728411Y-83930336D01*
X167725000Y-83939006D01*
X166854000Y-83939006D01*
X166854000Y-83837044D01*
X166872075Y-83788584D01*
X166885686Y-83772877D01*
X166912746Y-83741648D01*
X166951833Y-83680828D01*
X167010834Y-83551633D01*
X167031202Y-83482266D01*
X167051415Y-83341681D01*
X167054000Y-83305533D01*
X167054000Y-82883170D01*
X168151541Y-82883170D01*
X168152672Y-82890737D01*
X168193727Y-82971313D01*
X168200485Y-82980615D01*
X168279385Y-83059515D01*
X168288687Y-83066274D01*
X168388108Y-83116931D01*
X168399043Y-83120484D01*
X168417112Y-83123346D01*
X168427555Y-83121316D01*
X168430000Y-83118296D01*
X168430000Y-82893048D01*
X168428499Y-82888925D01*
X168970000Y-82888925D01*
X168970000Y-83112339D01*
X168973638Y-83122335D01*
X168977004Y-83124278D01*
X169000957Y-83120484D01*
X169011892Y-83116931D01*
X169111313Y-83066274D01*
X169120615Y-83059515D01*
X169197674Y-82982456D01*
X169243550Y-82961064D01*
X169292445Y-82974165D01*
X169302326Y-82982456D01*
X169379385Y-83059515D01*
X169388687Y-83066274D01*
X169488108Y-83116931D01*
X169499043Y-83120484D01*
X169517112Y-83123346D01*
X169527555Y-83121316D01*
X169530000Y-83118296D01*
X169530000Y-82893048D01*
X169528499Y-82888925D01*
X170070000Y-82888925D01*
X170070000Y-83112339D01*
X170073638Y-83122335D01*
X170077004Y-83124278D01*
X170100957Y-83120484D01*
X170111892Y-83116931D01*
X170211313Y-83066274D01*
X170220615Y-83059515D01*
X170299515Y-82980615D01*
X170306273Y-82971313D01*
X170346875Y-82891627D01*
X170348004Y-82882428D01*
X170340747Y-82880000D01*
X170083048Y-82880000D01*
X170073052Y-82883638D01*
X170070000Y-82888925D01*
X169528499Y-82888925D01*
X169526362Y-82883052D01*
X169521075Y-82880000D01*
X168983048Y-82880000D01*
X168973052Y-82883638D01*
X168970000Y-82888925D01*
X168428499Y-82888925D01*
X168426362Y-82883052D01*
X168421075Y-82880000D01*
X168160249Y-82880000D01*
X168151541Y-82883170D01*
X167054000Y-82883170D01*
X167054000Y-82499000D01*
X167053353Y-82480880D01*
X167053249Y-82479416D01*
X167050788Y-82445021D01*
X167048274Y-82409865D01*
X167038632Y-82356424D01*
X167037769Y-82353482D01*
X166999362Y-82222684D01*
X166999362Y-82222683D01*
X166998617Y-82220147D01*
X166968585Y-82154386D01*
X166903227Y-82052686D01*
X166893228Y-82037127D01*
X166893227Y-82037126D01*
X166891798Y-82034902D01*
X166844454Y-81980264D01*
X166737115Y-81887254D01*
X166676295Y-81848167D01*
X166547100Y-81789166D01*
X166477733Y-81768798D01*
X166337148Y-81748585D01*
X166321119Y-81747439D01*
X166302305Y-81746093D01*
X166302296Y-81746093D01*
X166301000Y-81746000D01*
X165099000Y-81746000D01*
X165093358Y-81746201D01*
X165081540Y-81746623D01*
X165081516Y-81746624D01*
X165080880Y-81746647D01*
X165080227Y-81746694D01*
X165080203Y-81746695D01*
X165045021Y-81749212D01*
X165009865Y-81751726D01*
X164956424Y-81761368D01*
X164954519Y-81761927D01*
X164954512Y-81761929D01*
X164858021Y-81790262D01*
X164820147Y-81801383D01*
X164754386Y-81831415D01*
X164634902Y-81908202D01*
X164580264Y-81955546D01*
X164487254Y-82062885D01*
X164448167Y-82123705D01*
X164389166Y-82252900D01*
X164388421Y-82255436D01*
X164388421Y-82255437D01*
X164377464Y-82292755D01*
X164368798Y-82322267D01*
X164348585Y-82462852D01*
X164346000Y-82499000D01*
X164346000Y-86801000D01*
X164346023Y-86801639D01*
X164346580Y-86817238D01*
X164346647Y-86819120D01*
X164346694Y-86819773D01*
X164346695Y-86819797D01*
X164346996Y-86824000D01*
X164351726Y-86890135D01*
X164361368Y-86943576D01*
X164361927Y-86945481D01*
X164361929Y-86945488D01*
X164395641Y-87060297D01*
X164401383Y-87079853D01*
X164431415Y-87145614D01*
X164508202Y-87265098D01*
X164509931Y-87267093D01*
X164550701Y-87314144D01*
X164555546Y-87319736D01*
X164557531Y-87321456D01*
X164557535Y-87321460D01*
X164566703Y-87329404D01*
X164575432Y-87336967D01*
X164600042Y-87381199D01*
X164590463Y-87430904D01*
X164547821Y-87463894D01*
X164422680Y-87500639D01*
X164422677Y-87500640D01*
X164420147Y-87501383D01*
X164354386Y-87531415D01*
X164234902Y-87608202D01*
X164232907Y-87609931D01*
X164184591Y-87651797D01*
X164180264Y-87655546D01*
X164087254Y-87762885D01*
X164048167Y-87823705D01*
X163989166Y-87952900D01*
X163968798Y-88022267D01*
X163948585Y-88162852D01*
X163946000Y-88199000D01*
X163946000Y-89272000D01*
X163928687Y-89319566D01*
X163884850Y-89344876D01*
X163872000Y-89346000D01*
X163499000Y-89346000D01*
X163493358Y-89346201D01*
X163481540Y-89346623D01*
X163481516Y-89346624D01*
X163480880Y-89346647D01*
X163480227Y-89346694D01*
X163480203Y-89346695D01*
X163445021Y-89349212D01*
X163409865Y-89351726D01*
X163356424Y-89361368D01*
X163354519Y-89361927D01*
X163354512Y-89361929D01*
X163222684Y-89400638D01*
X163220147Y-89401383D01*
X163154386Y-89431415D01*
X163034902Y-89508202D01*
X163032907Y-89509931D01*
X162996793Y-89541224D01*
X162980264Y-89555546D01*
X162887254Y-89662885D01*
X162848167Y-89723705D01*
X162789166Y-89852900D01*
X162768798Y-89922267D01*
X162748585Y-90062852D01*
X162746000Y-90099000D01*
X147254000Y-90099000D01*
X147254000Y-85985206D01*
X150840501Y-85985206D01*
X150840804Y-85988815D01*
X150840804Y-85988817D01*
X150853256Y-86137100D01*
X150857806Y-86191278D01*
X150914807Y-86390066D01*
X151009334Y-86573995D01*
X151137786Y-86736061D01*
X151140539Y-86738404D01*
X151140542Y-86738407D01*
X151177151Y-86769563D01*
X151295271Y-86870091D01*
X151475789Y-86970980D01*
X151672466Y-87034884D01*
X151744755Y-87043504D01*
X151874209Y-87058941D01*
X151874212Y-87058941D01*
X151877809Y-87059370D01*
X151942375Y-87054402D01*
X152080387Y-87043782D01*
X152080388Y-87043782D01*
X152083998Y-87043504D01*
X152283178Y-86987892D01*
X152314445Y-86972098D01*
X152464529Y-86896286D01*
X152464532Y-86896284D01*
X152467763Y-86894652D01*
X152470612Y-86892426D01*
X152470617Y-86892423D01*
X152627869Y-86769563D01*
X152630722Y-86767334D01*
X152765848Y-86610789D01*
X152767631Y-86607650D01*
X152767634Y-86607646D01*
X152820164Y-86515176D01*
X152867995Y-86430979D01*
X152882314Y-86387936D01*
X152932127Y-86238190D01*
X152932128Y-86238187D01*
X152933270Y-86234753D01*
X152959189Y-86029586D01*
X152959602Y-86000000D01*
X152958506Y-85988817D01*
X152956626Y-85969649D01*
X155240951Y-85969649D01*
X155254829Y-86181377D01*
X155268858Y-86236618D01*
X155304721Y-86377827D01*
X155307058Y-86387031D01*
X155308478Y-86390111D01*
X155393587Y-86574727D01*
X155395890Y-86579723D01*
X155518350Y-86753000D01*
X155670337Y-86901059D01*
X155673156Y-86902943D01*
X155673159Y-86902945D01*
X155843938Y-87017056D01*
X155843943Y-87017059D01*
X155846760Y-87018941D01*
X156041711Y-87102699D01*
X156248662Y-87149527D01*
X156349167Y-87153476D01*
X156457286Y-87157724D01*
X156457290Y-87157724D01*
X156460681Y-87157857D01*
X156529821Y-87147832D01*
X156667305Y-87127898D01*
X156667311Y-87127897D01*
X156670667Y-87127410D01*
X156871589Y-87059207D01*
X156874542Y-87057553D01*
X156874547Y-87057551D01*
X157053755Y-86957189D01*
X157053757Y-86957188D01*
X157056717Y-86955530D01*
X157064569Y-86949000D01*
X157217238Y-86822026D01*
X157219852Y-86819852D01*
X157336426Y-86679687D01*
X157353356Y-86659331D01*
X157355530Y-86656717D01*
X157357189Y-86653755D01*
X157457551Y-86474547D01*
X157457553Y-86474542D01*
X157459207Y-86471589D01*
X157527410Y-86270667D01*
X157527897Y-86267311D01*
X157527898Y-86267305D01*
X157557544Y-86062840D01*
X157557544Y-86062839D01*
X157557857Y-86060681D01*
X157559446Y-86000000D01*
X157558923Y-85994301D01*
X157544429Y-85836568D01*
X157540031Y-85788708D01*
X157539112Y-85785450D01*
X157539111Y-85785444D01*
X157483357Y-85587757D01*
X157483356Y-85587755D01*
X157482436Y-85584492D01*
X157388590Y-85394191D01*
X157288286Y-85259867D01*
X157263668Y-85226900D01*
X157263667Y-85226899D01*
X157261636Y-85224179D01*
X157259145Y-85221876D01*
X157259142Y-85221873D01*
X157108318Y-85082453D01*
X157108314Y-85082450D01*
X157105826Y-85080150D01*
X157099829Y-85076366D01*
X156929238Y-84968731D01*
X156929237Y-84968730D01*
X156926377Y-84966926D01*
X156923234Y-84965672D01*
X156923232Y-84965671D01*
X156732449Y-84889556D01*
X156732446Y-84889555D01*
X156729300Y-84888300D01*
X156725975Y-84887639D01*
X156725973Y-84887638D01*
X156524520Y-84847567D01*
X156524516Y-84847567D01*
X156521195Y-84846906D01*
X156427472Y-84845679D01*
X156312424Y-84844172D01*
X156312419Y-84844172D01*
X156309031Y-84844128D01*
X156305685Y-84844703D01*
X156305684Y-84844703D01*
X156289017Y-84847567D01*
X156099913Y-84880061D01*
X155900846Y-84953501D01*
X155718495Y-85061988D01*
X155558968Y-85201890D01*
X155427607Y-85368520D01*
X155426025Y-85371527D01*
X155330396Y-85553287D01*
X155330393Y-85553293D01*
X155328812Y-85556299D01*
X155265891Y-85758938D01*
X155256703Y-85836568D01*
X155242817Y-85953887D01*
X155240951Y-85969649D01*
X152956626Y-85969649D01*
X152939775Y-85797792D01*
X152939422Y-85794189D01*
X152879651Y-85596217D01*
X152782565Y-85413625D01*
X152657990Y-85260880D01*
X152654150Y-85256172D01*
X152654149Y-85256171D01*
X152651863Y-85253368D01*
X152492522Y-85121550D01*
X152477381Y-85113363D01*
X152313797Y-85024914D01*
X152313796Y-85024914D01*
X152310612Y-85023192D01*
X152307158Y-85022123D01*
X152307156Y-85022122D01*
X152208988Y-84991734D01*
X152113063Y-84962040D01*
X151907397Y-84940424D01*
X151903793Y-84940752D01*
X151903792Y-84940752D01*
X151903243Y-84940802D01*
X151701450Y-84959166D01*
X151691685Y-84962040D01*
X151506537Y-85016532D01*
X151506533Y-85016534D01*
X151503066Y-85017554D01*
X151437401Y-85051883D01*
X151323008Y-85111686D01*
X151323005Y-85111688D01*
X151319801Y-85113363D01*
X151316983Y-85115629D01*
X151316981Y-85115630D01*
X151161454Y-85240676D01*
X151161451Y-85240679D01*
X151158635Y-85242943D01*
X151025708Y-85401360D01*
X151023966Y-85404528D01*
X151023965Y-85404530D01*
X151017209Y-85416820D01*
X150926082Y-85582578D01*
X150920657Y-85599680D01*
X150869070Y-85762305D01*
X150863553Y-85779696D01*
X150840501Y-85985206D01*
X147254000Y-85985206D01*
X147254000Y-78032304D01*
X147255422Y-78017868D01*
X147257554Y-78007149D01*
X147258976Y-78000000D01*
X147257260Y-77991372D01*
X147256027Y-77971658D01*
X147256375Y-77966793D01*
X147641264Y-77966793D01*
X147654085Y-78189156D01*
X147654749Y-78192103D01*
X147654750Y-78192109D01*
X147678384Y-78296981D01*
X147703052Y-78406439D01*
X147704194Y-78409251D01*
X147770990Y-78573750D01*
X147786849Y-78612807D01*
X147788439Y-78615401D01*
X147849069Y-78714340D01*
X147903226Y-78802717D01*
X147905215Y-78805013D01*
X147905217Y-78805016D01*
X147988665Y-78901350D01*
X148049058Y-78971070D01*
X148220428Y-79113344D01*
X148223046Y-79114874D01*
X148223052Y-79114878D01*
X148410108Y-79224184D01*
X148410113Y-79224186D01*
X148412734Y-79225718D01*
X148415573Y-79226802D01*
X148617966Y-79304089D01*
X148617970Y-79304090D01*
X148620811Y-79305175D01*
X148623795Y-79305782D01*
X148623798Y-79305783D01*
X148723860Y-79326141D01*
X148839072Y-79349581D01*
X148924484Y-79352713D01*
X149058615Y-79357632D01*
X149058621Y-79357632D01*
X149061655Y-79357743D01*
X149064667Y-79357357D01*
X149064671Y-79357357D01*
X149175890Y-79343109D01*
X149282582Y-79329441D01*
X149393184Y-79296259D01*
X149493014Y-79266309D01*
X149493019Y-79266307D01*
X149495919Y-79265437D01*
X149695939Y-79167448D01*
X149790498Y-79100000D01*
X150240514Y-79100000D01*
X150240514Y-81500000D01*
X150260266Y-81599301D01*
X150316516Y-81683484D01*
X150400699Y-81739734D01*
X150407848Y-81741156D01*
X150496430Y-81758776D01*
X150496431Y-81758776D01*
X150500000Y-81759486D01*
X153300000Y-81759486D01*
X153303569Y-81758776D01*
X153303570Y-81758776D01*
X153392152Y-81741156D01*
X153399301Y-81739734D01*
X153483484Y-81683484D01*
X153539734Y-81599301D01*
X153559486Y-81500000D01*
X153559486Y-81421828D01*
X153576799Y-81374262D01*
X153620636Y-81348952D01*
X153633585Y-81347828D01*
X156266614Y-81351385D01*
X156314157Y-81368762D01*
X156339407Y-81412633D01*
X156340514Y-81425385D01*
X156340514Y-81500000D01*
X156360266Y-81599301D01*
X156416516Y-81683484D01*
X156500699Y-81739734D01*
X156507848Y-81741156D01*
X156596430Y-81758776D01*
X156596431Y-81758776D01*
X156600000Y-81759486D01*
X159400000Y-81759486D01*
X159403569Y-81758776D01*
X159403570Y-81758776D01*
X159492152Y-81741156D01*
X159499301Y-81739734D01*
X159583484Y-81683484D01*
X159639734Y-81599301D01*
X159659486Y-81500000D01*
X159659486Y-81428000D01*
X159660816Y-81424347D01*
X168125500Y-81424347D01*
X168125500Y-81755653D01*
X168139946Y-81846862D01*
X168142589Y-81852050D01*
X168142590Y-81852052D01*
X168193317Y-81951610D01*
X168193319Y-81951613D01*
X168195960Y-81956796D01*
X168283204Y-82044040D01*
X168282622Y-82044622D01*
X168308111Y-82082405D01*
X168302823Y-82132747D01*
X168283231Y-82156099D01*
X168283501Y-82156369D01*
X168280413Y-82159457D01*
X168279808Y-82160178D01*
X168279384Y-82160486D01*
X168200485Y-82239385D01*
X168193727Y-82248687D01*
X168153125Y-82328373D01*
X168151996Y-82337572D01*
X168159253Y-82340000D01*
X170339751Y-82340000D01*
X170348459Y-82336830D01*
X170347328Y-82329263D01*
X170306273Y-82248687D01*
X170299515Y-82239385D01*
X170220616Y-82160486D01*
X170220192Y-82160178D01*
X170219952Y-82159822D01*
X170216499Y-82156369D01*
X170217170Y-82155698D01*
X170191888Y-82118212D01*
X170197180Y-82067871D01*
X170217004Y-82044248D01*
X170216796Y-82044040D01*
X170304040Y-81956796D01*
X170306681Y-81951613D01*
X170306683Y-81951610D01*
X170357410Y-81852052D01*
X170357411Y-81852050D01*
X170360054Y-81846862D01*
X170374500Y-81755653D01*
X170374500Y-81424347D01*
X170360054Y-81333138D01*
X170357410Y-81327948D01*
X170306683Y-81228390D01*
X170306681Y-81228387D01*
X170304040Y-81223204D01*
X170216796Y-81135960D01*
X170211613Y-81133319D01*
X170211610Y-81133317D01*
X170112052Y-81082590D01*
X170112050Y-81082589D01*
X170106862Y-81079946D01*
X170015653Y-81065500D01*
X169584347Y-81065500D01*
X169493138Y-81079946D01*
X169487950Y-81082589D01*
X169487948Y-81082590D01*
X169388390Y-81133317D01*
X169388387Y-81133319D01*
X169383204Y-81135960D01*
X169330338Y-81188826D01*
X169284462Y-81210218D01*
X169278012Y-81210500D01*
X169221988Y-81210500D01*
X169174422Y-81193187D01*
X169169662Y-81188826D01*
X169116796Y-81135960D01*
X169111609Y-81133317D01*
X169110004Y-81132151D01*
X169081698Y-81090186D01*
X169079500Y-81072284D01*
X169079500Y-80783486D01*
X169096813Y-80735920D01*
X169140650Y-80710610D01*
X169153500Y-80709486D01*
X169385242Y-80709486D01*
X169396624Y-80710367D01*
X169399243Y-80710775D01*
X169401313Y-80711097D01*
X169401316Y-80711097D01*
X169403909Y-80711501D01*
X169431448Y-80711838D01*
X169474831Y-80712368D01*
X169474835Y-80712368D01*
X169477473Y-80712400D01*
X169480086Y-80712058D01*
X169480092Y-80712058D01*
X169582285Y-80698695D01*
X169619487Y-80693830D01*
X169690351Y-80674044D01*
X169821444Y-80616361D01*
X169883903Y-80577484D01*
X169885914Y-80575794D01*
X169885919Y-80575790D01*
X169991524Y-80487020D01*
X169991525Y-80487019D01*
X169993538Y-80485327D01*
X169995287Y-80483371D01*
X169995293Y-80483365D01*
X170027415Y-80447438D01*
X170042577Y-80430480D01*
X170044036Y-80428288D01*
X170044040Y-80428283D01*
X170112883Y-80324861D01*
X170121940Y-80311255D01*
X170128759Y-80296960D01*
X170137777Y-80278053D01*
X170153614Y-80244850D01*
X170158260Y-80229981D01*
X170195537Y-80110663D01*
X170196324Y-80108144D01*
X170197869Y-80098609D01*
X170207665Y-80038120D01*
X170207665Y-80038117D01*
X170208086Y-80035519D01*
X170210711Y-79892320D01*
X170210053Y-79887035D01*
X170209486Y-79877892D01*
X170209486Y-79450000D01*
X170207658Y-79440808D01*
X170191156Y-79357845D01*
X170191155Y-79357842D01*
X170189734Y-79350699D01*
X170183329Y-79341113D01*
X170171297Y-79291945D01*
X170183329Y-79258887D01*
X170185686Y-79255360D01*
X170185687Y-79255358D01*
X170189734Y-79249301D01*
X170191155Y-79242158D01*
X170191156Y-79242155D01*
X170208776Y-79153570D01*
X170208776Y-79153569D01*
X170209486Y-79150000D01*
X170209486Y-79103500D01*
X170226799Y-79055934D01*
X170270636Y-79030624D01*
X170283486Y-79029500D01*
X173116514Y-79029500D01*
X173164080Y-79046813D01*
X173189390Y-79090650D01*
X173190514Y-79103500D01*
X173190514Y-79150000D01*
X173191224Y-79153569D01*
X173191224Y-79153570D01*
X173208844Y-79242155D01*
X173208845Y-79242158D01*
X173210266Y-79249301D01*
X173214313Y-79255358D01*
X173214314Y-79255360D01*
X173216671Y-79258887D01*
X173228703Y-79308055D01*
X173216671Y-79341113D01*
X173210266Y-79350699D01*
X173208845Y-79357842D01*
X173208844Y-79357845D01*
X173192342Y-79440808D01*
X173190514Y-79450000D01*
X173190514Y-79940898D01*
X173190513Y-79941350D01*
X173190260Y-79982843D01*
X173190051Y-80016971D01*
X173190408Y-80019577D01*
X173199677Y-80087245D01*
X173199678Y-80087252D01*
X173200036Y-80089862D01*
X173239393Y-80227571D01*
X173240469Y-80229976D01*
X173240471Y-80229981D01*
X173263816Y-80282173D01*
X173267434Y-80332662D01*
X173248592Y-80364714D01*
X173165868Y-80447438D01*
X173153686Y-80457277D01*
X173141060Y-80465429D01*
X173134220Y-80474106D01*
X173118372Y-80494209D01*
X173112584Y-80500722D01*
X173109362Y-80503944D01*
X173107594Y-80506418D01*
X173107589Y-80506424D01*
X173097428Y-80520644D01*
X173095336Y-80523430D01*
X173062844Y-80564647D01*
X173060818Y-80570417D01*
X173059450Y-80572905D01*
X173059359Y-80573050D01*
X173059301Y-80573188D01*
X173058042Y-80575758D01*
X173054486Y-80580734D01*
X173052734Y-80586592D01*
X173052733Y-80586594D01*
X173039447Y-80631020D01*
X173038370Y-80634335D01*
X173022526Y-80679453D01*
X173020982Y-80683851D01*
X173020500Y-80689416D01*
X173020500Y-80690459D01*
X173020037Y-80695927D01*
X173018287Y-80701778D01*
X173018527Y-80707888D01*
X173018527Y-80707889D01*
X173020443Y-80756653D01*
X173020500Y-80759558D01*
X173020500Y-81672284D01*
X173003187Y-81719850D01*
X172989996Y-81732151D01*
X172988391Y-81733317D01*
X172983204Y-81735960D01*
X172895960Y-81823204D01*
X172893319Y-81828387D01*
X172893317Y-81828390D01*
X172842590Y-81927948D01*
X172839946Y-81933138D01*
X172825500Y-82024347D01*
X172825500Y-82355653D01*
X172839946Y-82446862D01*
X172842589Y-82452050D01*
X172842590Y-82452052D01*
X172893317Y-82551610D01*
X172893319Y-82551613D01*
X172895960Y-82556796D01*
X172983204Y-82644040D01*
X172982492Y-82644752D01*
X173007681Y-82682096D01*
X173002391Y-82732438D01*
X172982905Y-82755661D01*
X172983204Y-82755960D01*
X172895960Y-82843204D01*
X172893319Y-82848387D01*
X172893317Y-82848390D01*
X172845087Y-82943048D01*
X172839946Y-82953138D01*
X172825500Y-83044347D01*
X172825500Y-83375653D01*
X172839946Y-83466862D01*
X172842589Y-83472050D01*
X172842590Y-83472052D01*
X172893317Y-83571610D01*
X172893319Y-83571613D01*
X172895960Y-83576796D01*
X172983204Y-83664040D01*
X172988387Y-83666681D01*
X172988390Y-83666683D01*
X173087948Y-83717410D01*
X173087950Y-83717411D01*
X173093138Y-83720054D01*
X173184347Y-83734500D01*
X173615653Y-83734500D01*
X173706862Y-83720054D01*
X173712050Y-83717411D01*
X173712052Y-83717410D01*
X173811610Y-83666683D01*
X173811613Y-83666681D01*
X173816796Y-83664040D01*
X173844174Y-83636662D01*
X173890050Y-83615270D01*
X173938945Y-83628371D01*
X173967979Y-83669835D01*
X173970500Y-83688988D01*
X173970500Y-83759149D01*
X173970909Y-83761868D01*
X173970909Y-83761871D01*
X173974925Y-83788584D01*
X173985685Y-83860151D01*
X173988079Y-83865136D01*
X173988079Y-83865137D01*
X174004333Y-83898985D01*
X174044846Y-83983353D01*
X174048599Y-83987413D01*
X174048601Y-83987416D01*
X174075152Y-84016138D01*
X174137617Y-84083712D01*
X174142397Y-84086489D01*
X174142399Y-84086490D01*
X174178653Y-84107548D01*
X174255797Y-84152357D01*
X174261184Y-84153606D01*
X174261185Y-84153606D01*
X174307388Y-84164315D01*
X174372902Y-84179500D01*
X175009149Y-84179500D01*
X175011868Y-84179091D01*
X175011871Y-84179091D01*
X175058901Y-84172020D01*
X175110151Y-84164315D01*
X175115136Y-84161921D01*
X175115137Y-84161921D01*
X175224571Y-84109371D01*
X175233353Y-84105154D01*
X175237413Y-84101401D01*
X175237416Y-84101399D01*
X175329650Y-84016138D01*
X175333712Y-84012383D01*
X175347107Y-83989323D01*
X175399579Y-83898985D01*
X175402357Y-83894203D01*
X175429500Y-83777098D01*
X175429500Y-83290851D01*
X175414315Y-83189849D01*
X175411747Y-83184500D01*
X175357548Y-83071633D01*
X175355154Y-83066647D01*
X175351401Y-83062587D01*
X175351399Y-83062584D01*
X175266138Y-82970350D01*
X175262383Y-82966288D01*
X175257603Y-82963511D01*
X175257601Y-82963510D01*
X175205367Y-82933170D01*
X178051541Y-82933170D01*
X178052672Y-82940737D01*
X178093727Y-83021313D01*
X178100485Y-83030615D01*
X178179385Y-83109515D01*
X178188687Y-83116274D01*
X178288108Y-83166931D01*
X178299043Y-83170484D01*
X178317112Y-83173346D01*
X178327555Y-83171316D01*
X178330000Y-83168296D01*
X178330000Y-82943048D01*
X178328499Y-82938925D01*
X178870000Y-82938925D01*
X178870000Y-83162339D01*
X178873638Y-83172335D01*
X178877004Y-83174278D01*
X178900957Y-83170484D01*
X178911892Y-83166931D01*
X179011313Y-83116274D01*
X179020615Y-83109515D01*
X179097674Y-83032456D01*
X179143550Y-83011064D01*
X179192445Y-83024165D01*
X179202326Y-83032456D01*
X179279385Y-83109515D01*
X179288687Y-83116274D01*
X179388108Y-83166931D01*
X179399043Y-83170484D01*
X179417112Y-83173346D01*
X179427555Y-83171316D01*
X179430000Y-83168296D01*
X179430000Y-82943048D01*
X179426362Y-82933052D01*
X179421075Y-82930000D01*
X178883048Y-82930000D01*
X178873052Y-82933638D01*
X178870000Y-82938925D01*
X178328499Y-82938925D01*
X178326362Y-82933052D01*
X178321075Y-82930000D01*
X178060249Y-82930000D01*
X178051541Y-82933170D01*
X175205367Y-82933170D01*
X175199909Y-82930000D01*
X175144203Y-82897643D01*
X175138816Y-82896394D01*
X175138815Y-82896394D01*
X175078560Y-82882428D01*
X175027098Y-82870500D01*
X174581411Y-82870500D01*
X174554344Y-82864226D01*
X174554266Y-82864486D01*
X174550137Y-82863251D01*
X174550135Y-82863250D01*
X174503980Y-82849447D01*
X174500665Y-82848370D01*
X174455547Y-82832526D01*
X174455544Y-82832525D01*
X174451149Y-82830982D01*
X174445584Y-82830500D01*
X174444541Y-82830500D01*
X174439073Y-82830037D01*
X174433222Y-82828287D01*
X174427112Y-82828527D01*
X174427111Y-82828527D01*
X174378347Y-82830443D01*
X174375442Y-82830500D01*
X173921988Y-82830500D01*
X173874422Y-82813187D01*
X173869662Y-82808826D01*
X173816796Y-82755960D01*
X173817508Y-82755248D01*
X173792319Y-82717904D01*
X173797609Y-82667562D01*
X173817095Y-82644339D01*
X173816796Y-82644040D01*
X173904040Y-82556796D01*
X173906681Y-82551613D01*
X173906683Y-82551610D01*
X173957410Y-82452052D01*
X173957411Y-82452050D01*
X173960054Y-82446862D01*
X173964038Y-82421705D01*
X173988578Y-82377433D01*
X174035834Y-82359292D01*
X174083696Y-82375771D01*
X174091467Y-82383049D01*
X174134183Y-82429258D01*
X174142716Y-82436094D01*
X174251204Y-82499109D01*
X174261370Y-82503134D01*
X174287290Y-82509143D01*
X174297847Y-82507856D01*
X174299757Y-82505812D01*
X174300000Y-82504621D01*
X174300000Y-82283925D01*
X175100000Y-82283925D01*
X175100000Y-82502287D01*
X175103638Y-82512283D01*
X175106627Y-82514008D01*
X175114990Y-82511436D01*
X175228082Y-82457130D01*
X175237130Y-82450981D01*
X175329255Y-82365821D01*
X175336094Y-82357284D01*
X175377336Y-82286283D01*
X175378830Y-82277937D01*
X175370792Y-82275000D01*
X175113048Y-82275000D01*
X175103052Y-82278638D01*
X175100000Y-82283925D01*
X174300000Y-82283925D01*
X174300000Y-81247713D01*
X174299151Y-81245379D01*
X175100000Y-81245379D01*
X175100000Y-81461952D01*
X175103638Y-81471948D01*
X175108925Y-81475000D01*
X175369572Y-81475000D01*
X175378584Y-81471720D01*
X175377597Y-81464540D01*
X175357130Y-81421918D01*
X175350981Y-81412869D01*
X175265821Y-81320745D01*
X175257284Y-81313906D01*
X175148796Y-81250891D01*
X175138630Y-81246866D01*
X175112710Y-81240857D01*
X175102153Y-81242144D01*
X175100243Y-81244188D01*
X175100000Y-81245379D01*
X174299151Y-81245379D01*
X174296362Y-81237717D01*
X174293373Y-81235992D01*
X174285010Y-81238564D01*
X174171918Y-81292870D01*
X174162870Y-81299019D01*
X174070745Y-81384179D01*
X174063906Y-81392716D01*
X174000891Y-81501204D01*
X173996866Y-81511370D01*
X173971953Y-81618849D01*
X173971000Y-81627178D01*
X173971000Y-81711512D01*
X173953687Y-81759078D01*
X173909850Y-81784388D01*
X173860000Y-81775598D01*
X173844674Y-81763838D01*
X173816796Y-81735960D01*
X173811609Y-81733317D01*
X173810004Y-81732151D01*
X173781698Y-81690186D01*
X173779500Y-81672284D01*
X173779500Y-80937846D01*
X173796813Y-80890280D01*
X173801174Y-80885520D01*
X173955534Y-80731160D01*
X174001410Y-80709768D01*
X174007860Y-80709486D01*
X174385242Y-80709486D01*
X174396624Y-80710367D01*
X174399243Y-80710775D01*
X174401313Y-80711097D01*
X174401316Y-80711097D01*
X174403909Y-80711501D01*
X174431448Y-80711838D01*
X174474831Y-80712368D01*
X174474835Y-80712368D01*
X174477473Y-80712400D01*
X174480086Y-80712058D01*
X174480092Y-80712058D01*
X174582285Y-80698695D01*
X174619487Y-80693830D01*
X174690351Y-80674044D01*
X174821444Y-80616361D01*
X174883903Y-80577484D01*
X174885914Y-80575794D01*
X174885919Y-80575790D01*
X174991524Y-80487020D01*
X174991525Y-80487019D01*
X174993538Y-80485327D01*
X174995287Y-80483371D01*
X174995293Y-80483365D01*
X175027415Y-80447438D01*
X175042577Y-80430480D01*
X175044036Y-80428288D01*
X175044040Y-80428283D01*
X175112883Y-80324861D01*
X175121940Y-80311255D01*
X175128759Y-80296960D01*
X175137777Y-80278053D01*
X175153614Y-80244850D01*
X175158260Y-80229981D01*
X175195537Y-80110663D01*
X175196324Y-80108144D01*
X175197869Y-80098609D01*
X175207665Y-80038120D01*
X175207665Y-80038117D01*
X175208086Y-80035519D01*
X175210711Y-79892320D01*
X175210053Y-79887035D01*
X175209486Y-79877892D01*
X175209486Y-79450000D01*
X175207658Y-79440808D01*
X175191156Y-79357845D01*
X175191155Y-79357842D01*
X175189734Y-79350699D01*
X175183329Y-79341113D01*
X175171297Y-79291945D01*
X175183329Y-79258887D01*
X175185686Y-79255360D01*
X175185687Y-79255358D01*
X175189734Y-79249301D01*
X175191155Y-79242158D01*
X175191156Y-79242155D01*
X175208776Y-79153570D01*
X175208776Y-79153569D01*
X175209486Y-79150000D01*
X175209486Y-79103500D01*
X175226799Y-79055934D01*
X175270636Y-79030624D01*
X175283486Y-79029500D01*
X178116514Y-79029500D01*
X178164080Y-79046813D01*
X178189390Y-79090650D01*
X178190514Y-79103500D01*
X178190514Y-79150000D01*
X178191224Y-79153569D01*
X178191224Y-79153570D01*
X178208844Y-79242155D01*
X178208845Y-79242158D01*
X178210266Y-79249301D01*
X178214313Y-79255358D01*
X178214314Y-79255360D01*
X178216671Y-79258887D01*
X178228703Y-79308055D01*
X178216671Y-79341113D01*
X178210266Y-79350699D01*
X178208845Y-79357842D01*
X178208844Y-79357845D01*
X178192342Y-79440808D01*
X178190514Y-79450000D01*
X178190514Y-79940898D01*
X178190513Y-79941350D01*
X178190260Y-79982843D01*
X178190051Y-80016971D01*
X178190408Y-80019577D01*
X178199677Y-80087245D01*
X178199678Y-80087252D01*
X178200036Y-80089862D01*
X178239393Y-80227571D01*
X178269434Y-80294730D01*
X178270836Y-80296952D01*
X178270837Y-80296954D01*
X178293367Y-80332662D01*
X178345860Y-80415858D01*
X178393545Y-80471888D01*
X178395514Y-80473627D01*
X178450363Y-80522067D01*
X178500896Y-80566696D01*
X178503093Y-80568139D01*
X178503098Y-80568143D01*
X178522267Y-80580734D01*
X178562386Y-80607087D01*
X178692031Y-80667956D01*
X178694538Y-80668722D01*
X178694542Y-80668724D01*
X178729636Y-80679453D01*
X178762391Y-80689467D01*
X178764987Y-80689871D01*
X178764995Y-80689873D01*
X178901311Y-80711097D01*
X178901318Y-80711098D01*
X178903909Y-80711501D01*
X178931448Y-80711838D01*
X178974831Y-80712368D01*
X178974835Y-80712368D01*
X178977473Y-80712400D01*
X178980086Y-80712058D01*
X178980092Y-80712058D01*
X178994978Y-80710111D01*
X179004573Y-80709486D01*
X179246500Y-80709486D01*
X179294066Y-80726799D01*
X179319376Y-80770636D01*
X179320500Y-80783486D01*
X179320500Y-81122284D01*
X179303187Y-81169850D01*
X179289996Y-81182151D01*
X179288391Y-81183317D01*
X179283204Y-81185960D01*
X179230338Y-81238826D01*
X179184462Y-81260218D01*
X179178012Y-81260500D01*
X179121988Y-81260500D01*
X179074422Y-81243187D01*
X179069662Y-81238826D01*
X179016796Y-81185960D01*
X179011613Y-81183319D01*
X179011610Y-81183317D01*
X178912052Y-81132590D01*
X178912050Y-81132589D01*
X178906862Y-81129946D01*
X178824795Y-81116948D01*
X178818526Y-81115955D01*
X178815653Y-81115500D01*
X178384347Y-81115500D01*
X178381474Y-81115955D01*
X178375205Y-81116948D01*
X178293138Y-81129946D01*
X178287950Y-81132589D01*
X178287948Y-81132590D01*
X178188390Y-81183317D01*
X178188387Y-81183319D01*
X178183204Y-81185960D01*
X178095960Y-81273204D01*
X178093319Y-81278387D01*
X178093317Y-81278390D01*
X178042590Y-81377948D01*
X178039946Y-81383138D01*
X178025500Y-81474347D01*
X178025500Y-81805653D01*
X178039946Y-81896862D01*
X178042589Y-81902050D01*
X178042590Y-81902052D01*
X178093317Y-82001610D01*
X178093319Y-82001613D01*
X178095960Y-82006796D01*
X178183204Y-82094040D01*
X178182622Y-82094622D01*
X178208111Y-82132405D01*
X178202823Y-82182747D01*
X178183231Y-82206099D01*
X178183501Y-82206369D01*
X178180413Y-82209457D01*
X178179808Y-82210178D01*
X178179384Y-82210486D01*
X178100485Y-82289385D01*
X178093727Y-82298687D01*
X178053125Y-82378373D01*
X178051996Y-82387572D01*
X178059253Y-82390000D01*
X179896000Y-82390000D01*
X179943566Y-82407313D01*
X179968876Y-82451150D01*
X179970000Y-82464000D01*
X179970000Y-83162339D01*
X179973638Y-83172335D01*
X179977004Y-83174278D01*
X180000957Y-83170484D01*
X180011892Y-83166931D01*
X180112905Y-83115462D01*
X180163146Y-83109294D01*
X180205599Y-83136863D01*
X180220500Y-83181397D01*
X180220500Y-84807154D01*
X180203187Y-84854720D01*
X180198826Y-84859480D01*
X180044466Y-85013840D01*
X179998590Y-85035232D01*
X179992140Y-85035514D01*
X179225000Y-85035514D01*
X179221431Y-85036224D01*
X179221430Y-85036224D01*
X179216971Y-85037111D01*
X179125699Y-85055266D01*
X179119641Y-85059314D01*
X179119636Y-85059316D01*
X179066014Y-85095146D01*
X179016845Y-85107178D01*
X178971447Y-85084790D01*
X178963373Y-85074731D01*
X178962175Y-85072938D01*
X178952064Y-85062827D01*
X178880167Y-85014787D01*
X178866955Y-85009315D01*
X178778571Y-84991734D01*
X178771360Y-84991024D01*
X178063048Y-84991024D01*
X178053052Y-84994662D01*
X178050000Y-84999949D01*
X178050000Y-85412688D01*
X178057467Y-85433203D01*
X178271938Y-85647674D01*
X178293330Y-85693550D01*
X178280229Y-85742445D01*
X178271938Y-85752326D01*
X178059226Y-85965038D01*
X178050000Y-85984824D01*
X178050000Y-86512688D01*
X178057467Y-86533203D01*
X178265038Y-86740774D01*
X178284824Y-86750000D01*
X178891514Y-86750000D01*
X178939080Y-86767313D01*
X178964390Y-86811150D01*
X178965514Y-86824000D01*
X178965514Y-87165000D01*
X178985266Y-87264301D01*
X179041516Y-87348484D01*
X179125699Y-87404734D01*
X179132848Y-87406156D01*
X179221430Y-87423776D01*
X179221431Y-87423776D01*
X179225000Y-87424486D01*
X180775000Y-87424486D01*
X180778569Y-87423776D01*
X180778570Y-87423776D01*
X180867152Y-87406156D01*
X180874301Y-87404734D01*
X180958484Y-87348484D01*
X181014734Y-87264301D01*
X181034486Y-87165000D01*
X181034486Y-86565000D01*
X181024576Y-86515176D01*
X181016156Y-86472848D01*
X181014734Y-86465699D01*
X180958484Y-86381516D01*
X180874301Y-86325266D01*
X180823444Y-86315150D01*
X180778570Y-86306224D01*
X180778569Y-86306224D01*
X180775000Y-86305514D01*
X179225000Y-86305514D01*
X179221431Y-86306224D01*
X179221430Y-86306224D01*
X179125699Y-86325266D01*
X179125228Y-86322900D01*
X179085722Y-86324623D01*
X179045564Y-86293807D01*
X179033976Y-86254049D01*
X179033976Y-86205951D01*
X179051289Y-86158385D01*
X179095126Y-86133075D01*
X179125370Y-86136387D01*
X179125699Y-86134734D01*
X179221430Y-86153776D01*
X179221431Y-86153776D01*
X179225000Y-86154486D01*
X180775000Y-86154486D01*
X180778569Y-86153776D01*
X180778570Y-86153776D01*
X180867152Y-86136156D01*
X180874301Y-86134734D01*
X180947430Y-86085870D01*
X180952426Y-86082532D01*
X180958484Y-86078484D01*
X181014734Y-85994301D01*
X181022773Y-85953887D01*
X181033776Y-85898570D01*
X181033776Y-85898569D01*
X181034486Y-85895000D01*
X181034486Y-85295000D01*
X181014734Y-85195699D01*
X180980893Y-85145054D01*
X180968861Y-85095886D01*
X180972601Y-85079422D01*
X180974878Y-85072938D01*
X180979018Y-85061149D01*
X180979500Y-85055584D01*
X180979500Y-85054541D01*
X180979963Y-85049073D01*
X180981713Y-85043222D01*
X180979557Y-84988347D01*
X180979500Y-84985442D01*
X180979500Y-83181958D01*
X180996813Y-83134392D01*
X181040650Y-83109082D01*
X181087095Y-83116023D01*
X181187948Y-83167410D01*
X181187950Y-83167411D01*
X181193138Y-83170054D01*
X181284347Y-83184500D01*
X181715653Y-83184500D01*
X181806862Y-83170054D01*
X181812050Y-83167411D01*
X181812052Y-83167410D01*
X181911610Y-83116683D01*
X181911613Y-83116681D01*
X181916796Y-83114040D01*
X181969662Y-83061174D01*
X182015538Y-83039782D01*
X182021988Y-83039500D01*
X185016514Y-83039500D01*
X185064080Y-83056813D01*
X185089390Y-83100650D01*
X185090514Y-83113500D01*
X185090514Y-84276153D01*
X185073201Y-84323719D01*
X185044832Y-84344520D01*
X185017149Y-84355987D01*
X184934748Y-84411045D01*
X184930698Y-84417106D01*
X184895558Y-84469697D01*
X184879687Y-84493449D01*
X184878298Y-84496802D01*
X184878297Y-84496804D01*
X184866727Y-84524735D01*
X184866725Y-84524741D01*
X184865335Y-84528097D01*
X184846000Y-84625300D01*
X184846000Y-85951000D01*
X184846710Y-85954569D01*
X184846710Y-85954570D01*
X184855747Y-86000000D01*
X184865335Y-86048203D01*
X184866725Y-86051559D01*
X184866727Y-86051565D01*
X184877878Y-86078484D01*
X184879687Y-86082851D01*
X184934745Y-86165252D01*
X184940806Y-86169302D01*
X184978904Y-86194758D01*
X185017149Y-86220313D01*
X185020502Y-86221702D01*
X185020504Y-86221703D01*
X185048435Y-86233273D01*
X185048441Y-86233275D01*
X185051797Y-86234665D01*
X185055365Y-86235375D01*
X185055366Y-86235375D01*
X185145430Y-86253290D01*
X185145431Y-86253290D01*
X185149000Y-86254000D01*
X195253853Y-86254000D01*
X195301419Y-86271313D01*
X195326729Y-86315150D01*
X195315382Y-86369112D01*
X195264787Y-86444833D01*
X195259315Y-86458045D01*
X195241734Y-86546429D01*
X195241024Y-86553640D01*
X195241024Y-86986952D01*
X195244662Y-86996948D01*
X195249949Y-87000000D01*
X198145928Y-87000000D01*
X198155924Y-86996362D01*
X198158976Y-86991075D01*
X198158976Y-86553640D01*
X198158266Y-86546429D01*
X198140685Y-86458045D01*
X198135213Y-86444833D01*
X198084618Y-86369112D01*
X198072587Y-86319944D01*
X198094975Y-86274545D01*
X198146147Y-86254000D01*
X198252307Y-86254000D01*
X198283316Y-86248049D01*
X198342886Y-86236618D01*
X198342889Y-86236617D01*
X198346329Y-86235957D01*
X198380028Y-86222529D01*
X198405962Y-86205951D01*
X198454659Y-86174822D01*
X198454660Y-86174821D01*
X198460692Y-86170965D01*
X198469028Y-86159192D01*
X198515856Y-86093050D01*
X198517959Y-86090080D01*
X198533242Y-86055832D01*
X198555195Y-85959228D01*
X198555231Y-85957904D01*
X198555232Y-85957862D01*
X198652547Y-82357186D01*
X198634597Y-82256301D01*
X198632286Y-82250500D01*
X198621656Y-82223825D01*
X198620263Y-82220329D01*
X198613215Y-82209625D01*
X198567991Y-82140941D01*
X198567990Y-82140940D01*
X198563913Y-82134748D01*
X198481509Y-82079687D01*
X198478156Y-82078298D01*
X198478154Y-82078297D01*
X198450223Y-82066727D01*
X198450217Y-82066725D01*
X198446861Y-82065335D01*
X198443292Y-82064625D01*
X198353228Y-82046710D01*
X198353227Y-82046710D01*
X198349658Y-82046000D01*
X194861890Y-82046000D01*
X194814324Y-82028687D01*
X194789014Y-81984850D01*
X194797804Y-81935000D01*
X194828294Y-81906066D01*
X194849285Y-81895370D01*
X194858590Y-81888610D01*
X194938610Y-81808590D01*
X194945369Y-81799288D01*
X194996745Y-81698456D01*
X194999113Y-81691167D01*
X194997418Y-81682445D01*
X194994398Y-81680000D01*
X194274000Y-81680000D01*
X194226434Y-81662687D01*
X194201124Y-81618850D01*
X194200000Y-81606000D01*
X194200000Y-81084861D01*
X194212471Y-81043749D01*
X194215568Y-81039115D01*
X194220313Y-81032013D01*
X194223746Y-81023724D01*
X194233273Y-81000727D01*
X194233275Y-81000721D01*
X194234665Y-80997365D01*
X194238856Y-80976295D01*
X194253290Y-80903732D01*
X194253290Y-80903731D01*
X194254000Y-80900162D01*
X194254000Y-80871189D01*
X194760000Y-80871189D01*
X194760000Y-81106952D01*
X194763638Y-81116948D01*
X194768925Y-81120000D01*
X194988441Y-81120000D01*
X194998437Y-81116362D01*
X195000380Y-81112996D01*
X195000298Y-81112479D01*
X194996745Y-81101544D01*
X194945369Y-81000712D01*
X194938610Y-80991410D01*
X194858593Y-80911393D01*
X194849282Y-80904628D01*
X194771626Y-80865061D01*
X194762428Y-80863932D01*
X194760000Y-80871189D01*
X194254000Y-80871189D01*
X194254000Y-79649000D01*
X194239707Y-79577142D01*
X194235375Y-79555366D01*
X194235375Y-79555365D01*
X194234665Y-79551797D01*
X194233275Y-79548441D01*
X194233273Y-79548435D01*
X194221703Y-79520504D01*
X194221702Y-79520502D01*
X194220313Y-79517149D01*
X194208350Y-79499244D01*
X194175446Y-79450000D01*
X194165255Y-79434748D01*
X194107174Y-79395939D01*
X194085870Y-79381704D01*
X194085868Y-79381703D01*
X194082851Y-79379687D01*
X194079498Y-79378298D01*
X194079496Y-79378297D01*
X194051565Y-79366727D01*
X194051559Y-79366725D01*
X194048203Y-79365335D01*
X194043211Y-79364342D01*
X193954570Y-79346710D01*
X193954569Y-79346710D01*
X193951000Y-79346000D01*
X193640480Y-79346000D01*
X193637261Y-79346575D01*
X193637259Y-79346575D01*
X193574723Y-79357743D01*
X193552565Y-79361700D01*
X193520743Y-79373440D01*
X193443721Y-79418577D01*
X193440662Y-79421189D01*
X193440596Y-79421246D01*
X193430081Y-79430227D01*
X193415271Y-79440068D01*
X193344656Y-79475582D01*
X193327943Y-79481599D01*
X193250901Y-79499244D01*
X193233223Y-79501102D01*
X193202687Y-79500623D01*
X193202683Y-79500623D01*
X193154196Y-79499862D01*
X193136587Y-79497450D01*
X193060135Y-79477393D01*
X193043607Y-79470848D01*
X192978028Y-79435241D01*
X192978023Y-79435239D01*
X192972489Y-79432234D01*
X192963951Y-79426741D01*
X192961919Y-79424892D01*
X192882619Y-79375867D01*
X192870545Y-79371196D01*
X192852829Y-79364342D01*
X192852826Y-79364341D01*
X192849641Y-79363109D01*
X192803819Y-79354555D01*
X192761356Y-79346627D01*
X192761353Y-79346627D01*
X192757996Y-79346000D01*
X192528000Y-79346000D01*
X192480434Y-79328687D01*
X192455124Y-79284850D01*
X192454000Y-79272000D01*
X192454000Y-78975548D01*
X192450362Y-78965552D01*
X192445075Y-78962500D01*
X190949000Y-78962500D01*
X190901434Y-78945187D01*
X190876124Y-78901350D01*
X190875000Y-78888500D01*
X190875000Y-76950418D01*
X192200000Y-76950418D01*
X192200000Y-77624452D01*
X192203638Y-77634448D01*
X192208925Y-77637500D01*
X192440952Y-77637500D01*
X192450948Y-77633862D01*
X192454000Y-77628575D01*
X192454000Y-77500000D01*
X195414925Y-77500000D01*
X195415330Y-77503853D01*
X195429377Y-77637500D01*
X195433173Y-77673622D01*
X195487121Y-77839656D01*
X195574410Y-77990845D01*
X195577001Y-77993722D01*
X195577002Y-77993724D01*
X195605179Y-78025017D01*
X195691226Y-78120582D01*
X195694363Y-78122861D01*
X195694364Y-78122862D01*
X195713788Y-78136974D01*
X195832462Y-78223196D01*
X195836004Y-78224773D01*
X195988403Y-78292626D01*
X195988406Y-78292627D01*
X195991948Y-78294204D01*
X195995740Y-78295010D01*
X195995743Y-78295011D01*
X196158914Y-78329693D01*
X196162711Y-78330500D01*
X196337289Y-78330500D01*
X196341086Y-78329693D01*
X196504257Y-78295011D01*
X196504260Y-78295010D01*
X196508052Y-78294204D01*
X196511594Y-78292627D01*
X196511597Y-78292626D01*
X196663996Y-78224773D01*
X196667538Y-78223196D01*
X196786213Y-78136974D01*
X196805636Y-78122862D01*
X196805637Y-78122861D01*
X196808774Y-78120582D01*
X196894821Y-78025017D01*
X196922998Y-77993724D01*
X196922999Y-77993722D01*
X196925590Y-77990845D01*
X196939476Y-77966793D01*
X198641264Y-77966793D01*
X198654085Y-78189156D01*
X198654749Y-78192103D01*
X198654750Y-78192109D01*
X198678384Y-78296981D01*
X198703052Y-78406439D01*
X198704194Y-78409251D01*
X198770990Y-78573750D01*
X198786849Y-78612807D01*
X198788439Y-78615401D01*
X198849069Y-78714340D01*
X198903226Y-78802717D01*
X198905215Y-78805013D01*
X198905217Y-78805016D01*
X198988665Y-78901350D01*
X199049058Y-78971070D01*
X199220428Y-79113344D01*
X199223046Y-79114874D01*
X199223052Y-79114878D01*
X199410108Y-79224184D01*
X199410113Y-79224186D01*
X199412734Y-79225718D01*
X199415573Y-79226802D01*
X199617966Y-79304089D01*
X199617970Y-79304090D01*
X199620811Y-79305175D01*
X199623795Y-79305782D01*
X199623798Y-79305783D01*
X199723860Y-79326141D01*
X199839072Y-79349581D01*
X199924484Y-79352713D01*
X200058615Y-79357632D01*
X200058621Y-79357632D01*
X200061655Y-79357743D01*
X200064667Y-79357357D01*
X200064671Y-79357357D01*
X200175890Y-79343109D01*
X200282582Y-79329441D01*
X200393184Y-79296259D01*
X200493014Y-79266309D01*
X200493019Y-79266307D01*
X200495919Y-79265437D01*
X200695939Y-79167448D01*
X200877269Y-79038107D01*
X200879421Y-79035963D01*
X201032884Y-78883035D01*
X201032887Y-78883032D01*
X201035039Y-78880887D01*
X201050879Y-78858844D01*
X201163240Y-78702476D01*
X201165012Y-78700010D01*
X201228701Y-78571146D01*
X201262350Y-78503062D01*
X201262351Y-78503059D01*
X201263698Y-78500334D01*
X201291053Y-78410300D01*
X201327565Y-78290123D01*
X201328447Y-78287220D01*
X201331077Y-78267248D01*
X201357262Y-78068348D01*
X201357262Y-78068343D01*
X201357519Y-78066394D01*
X201359142Y-78000000D01*
X201358953Y-77997696D01*
X201341141Y-77781042D01*
X201341140Y-77781038D01*
X201340892Y-77778017D01*
X201333439Y-77748343D01*
X201307588Y-77645430D01*
X201286631Y-77561995D01*
X201197817Y-77357736D01*
X201076834Y-77170726D01*
X200926933Y-77005986D01*
X200907854Y-76990918D01*
X200896323Y-76981812D01*
X200752138Y-76867942D01*
X200696454Y-76837203D01*
X200559806Y-76761768D01*
X200559801Y-76761766D01*
X200557144Y-76760299D01*
X200435551Y-76717241D01*
X200350043Y-76686961D01*
X200350039Y-76686960D01*
X200347187Y-76685950D01*
X200127907Y-76646890D01*
X199984501Y-76645138D01*
X199908229Y-76644206D01*
X199908228Y-76644206D01*
X199905191Y-76644169D01*
X199810201Y-76658704D01*
X199688026Y-76677399D01*
X199688022Y-76677400D01*
X199685022Y-76677859D01*
X199682133Y-76678803D01*
X199682130Y-76678804D01*
X199476195Y-76746114D01*
X199476191Y-76746116D01*
X199473311Y-76747057D01*
X199275745Y-76849903D01*
X199273324Y-76851721D01*
X199273322Y-76851722D01*
X199239470Y-76877139D01*
X199097630Y-76983636D01*
X199095533Y-76985830D01*
X199095530Y-76985833D01*
X198945844Y-77142470D01*
X198945840Y-77142474D01*
X198943748Y-77144664D01*
X198942038Y-77147171D01*
X198942037Y-77147172D01*
X198925970Y-77170726D01*
X198818233Y-77328663D01*
X198816954Y-77331418D01*
X198816953Y-77331420D01*
X198793612Y-77381704D01*
X198724455Y-77530691D01*
X198664932Y-77745322D01*
X198641264Y-77966793D01*
X196939476Y-77966793D01*
X197012879Y-77839656D01*
X197066827Y-77673622D01*
X197070624Y-77637500D01*
X197084670Y-77503853D01*
X197085075Y-77500000D01*
X197071068Y-77366727D01*
X197067232Y-77330229D01*
X197067232Y-77330227D01*
X197066827Y-77326378D01*
X197012879Y-77160344D01*
X196925590Y-77009155D01*
X196909170Y-76990918D01*
X196811367Y-76882298D01*
X196808774Y-76879418D01*
X196797064Y-76870910D01*
X196670675Y-76779083D01*
X196670674Y-76779082D01*
X196667538Y-76776804D01*
X196603872Y-76748458D01*
X196511597Y-76707374D01*
X196511594Y-76707373D01*
X196508052Y-76705796D01*
X196504260Y-76704990D01*
X196504257Y-76704989D01*
X196341086Y-76670307D01*
X196341085Y-76670307D01*
X196337289Y-76669500D01*
X196162711Y-76669500D01*
X196158915Y-76670307D01*
X196158914Y-76670307D01*
X195995743Y-76704989D01*
X195995740Y-76704990D01*
X195991948Y-76705796D01*
X195988406Y-76707373D01*
X195988403Y-76707374D01*
X195871809Y-76759286D01*
X195832463Y-76776804D01*
X195691226Y-76879418D01*
X195688633Y-76882298D01*
X195590831Y-76990918D01*
X195574410Y-77009155D01*
X195487121Y-77160344D01*
X195433173Y-77326378D01*
X195432768Y-77330227D01*
X195432768Y-77330229D01*
X195428932Y-77366727D01*
X195414925Y-77500000D01*
X192454000Y-77500000D01*
X192454000Y-77341438D01*
X192453627Y-77336207D01*
X192439464Y-77237308D01*
X192436535Y-77227290D01*
X192381144Y-77105465D01*
X192375521Y-77096673D01*
X192288164Y-76995290D01*
X192280303Y-76988432D01*
X192210949Y-76943480D01*
X192203411Y-76941747D01*
X192200000Y-76950418D01*
X190875000Y-76950418D01*
X190875000Y-76948022D01*
X190871624Y-76938748D01*
X190864797Y-76939613D01*
X190855464Y-76943857D01*
X190846676Y-76949477D01*
X190745290Y-77036836D01*
X190738432Y-77044697D01*
X190665642Y-77156999D01*
X190661264Y-77166473D01*
X190623364Y-77293203D01*
X190593149Y-77333814D01*
X190552467Y-77346000D01*
X189444692Y-77346000D01*
X189397126Y-77328687D01*
X189371439Y-77282490D01*
X189370322Y-77274685D01*
X189364201Y-77231948D01*
X189304388Y-77100395D01*
X189224973Y-77008230D01*
X189213496Y-76994910D01*
X189213495Y-76994909D01*
X189210056Y-76990918D01*
X189205637Y-76988054D01*
X189205635Y-76988052D01*
X189165483Y-76962027D01*
X189088790Y-76912317D01*
X189083741Y-76910807D01*
X189083739Y-76910806D01*
X188978785Y-76879418D01*
X188950337Y-76870910D01*
X188946343Y-76870613D01*
X188946342Y-76870613D01*
X188946170Y-76870600D01*
X188946160Y-76870600D01*
X188944819Y-76870500D01*
X188013774Y-76870500D01*
X188011179Y-76870872D01*
X188011174Y-76870872D01*
X187913602Y-76884846D01*
X187906948Y-76885799D01*
X187775395Y-76945612D01*
X187665918Y-77039944D01*
X187587317Y-77161210D01*
X187585807Y-77166259D01*
X187585806Y-77166261D01*
X187547842Y-77293203D01*
X187517626Y-77333814D01*
X187476945Y-77346000D01*
X187319692Y-77346000D01*
X187272126Y-77328687D01*
X187246439Y-77282490D01*
X187245322Y-77274685D01*
X187239201Y-77231948D01*
X187179388Y-77100395D01*
X187099973Y-77008230D01*
X187088496Y-76994910D01*
X187088495Y-76994909D01*
X187085056Y-76990918D01*
X187080637Y-76988054D01*
X187080635Y-76988052D01*
X187040483Y-76962027D01*
X186963790Y-76912317D01*
X186958741Y-76910807D01*
X186958739Y-76910806D01*
X186853785Y-76879418D01*
X186825337Y-76870910D01*
X186821343Y-76870613D01*
X186821342Y-76870613D01*
X186821170Y-76870600D01*
X186821160Y-76870600D01*
X186819819Y-76870500D01*
X185888774Y-76870500D01*
X185886179Y-76870872D01*
X185886174Y-76870872D01*
X185788602Y-76884846D01*
X185781948Y-76885799D01*
X185650395Y-76945612D01*
X185540918Y-77039944D01*
X185462317Y-77161210D01*
X185460807Y-77166259D01*
X185460806Y-77166261D01*
X185422842Y-77293203D01*
X185392626Y-77333814D01*
X185351945Y-77346000D01*
X185149000Y-77346000D01*
X185145431Y-77346710D01*
X185145430Y-77346710D01*
X185075948Y-77360531D01*
X185051797Y-77365335D01*
X185048441Y-77366725D01*
X185048435Y-77366727D01*
X185020504Y-77378297D01*
X185020502Y-77378298D01*
X185017149Y-77379687D01*
X184934748Y-77434745D01*
X184930698Y-77440806D01*
X184882284Y-77513263D01*
X184879687Y-77517149D01*
X184878298Y-77520502D01*
X184878297Y-77520504D01*
X184866727Y-77548435D01*
X184866725Y-77548441D01*
X184865335Y-77551797D01*
X184864625Y-77555365D01*
X184864625Y-77555366D01*
X184848288Y-77637500D01*
X184846000Y-77649000D01*
X184846000Y-80074700D01*
X184856937Y-80148432D01*
X184865195Y-80175655D01*
X184897064Y-80243037D01*
X184967142Y-80313116D01*
X184998325Y-80333952D01*
X185044834Y-80353216D01*
X185082152Y-80387412D01*
X185090514Y-80421582D01*
X185090514Y-82206500D01*
X185073201Y-82254066D01*
X185029364Y-82279376D01*
X185016514Y-82280500D01*
X182021988Y-82280500D01*
X181974422Y-82263187D01*
X181969662Y-82258826D01*
X181916796Y-82205960D01*
X181917508Y-82205248D01*
X181892319Y-82167904D01*
X181897609Y-82117562D01*
X181917095Y-82094339D01*
X181916796Y-82094040D01*
X182004040Y-82006796D01*
X182006681Y-82001613D01*
X182006683Y-82001610D01*
X182057410Y-81902052D01*
X182057411Y-81902050D01*
X182060054Y-81896862D01*
X182074500Y-81805653D01*
X182074500Y-81474347D01*
X182060054Y-81383138D01*
X182057410Y-81377948D01*
X182006683Y-81278390D01*
X182006681Y-81278387D01*
X182004040Y-81273204D01*
X181916796Y-81185960D01*
X181911609Y-81183317D01*
X181910004Y-81182151D01*
X181881698Y-81140186D01*
X181879500Y-81122284D01*
X181879500Y-80248266D01*
X181881158Y-80232690D01*
X181883033Y-80223981D01*
X181884321Y-80218000D01*
X181880013Y-80181605D01*
X181879500Y-80172907D01*
X181879500Y-80168352D01*
X181876130Y-80148106D01*
X181875640Y-80144660D01*
X181870189Y-80098609D01*
X181869470Y-80092535D01*
X181866822Y-80087021D01*
X181866029Y-80084292D01*
X181865992Y-80084131D01*
X181865928Y-80083974D01*
X181865009Y-80081289D01*
X181864004Y-80075250D01*
X181839069Y-80029038D01*
X181837498Y-80025953D01*
X181814781Y-79978644D01*
X181811187Y-79974369D01*
X181810455Y-79973637D01*
X181806911Y-79969438D01*
X181804010Y-79964062D01*
X181799521Y-79959912D01*
X181799519Y-79959910D01*
X181763686Y-79926787D01*
X181761591Y-79924773D01*
X180808243Y-78971425D01*
X182346000Y-78971425D01*
X182346000Y-79258562D01*
X182346373Y-79263793D01*
X182360536Y-79362692D01*
X182363465Y-79372710D01*
X182418856Y-79494535D01*
X182424479Y-79503327D01*
X182511836Y-79604710D01*
X182519697Y-79611568D01*
X182589051Y-79656520D01*
X182596589Y-79658253D01*
X182600000Y-79649582D01*
X182600000Y-78975548D01*
X182598499Y-78971425D01*
X183925000Y-78971425D01*
X183925000Y-79651978D01*
X183928376Y-79661252D01*
X183935203Y-79660387D01*
X183944536Y-79656143D01*
X183953324Y-79650523D01*
X184054710Y-79563164D01*
X184061568Y-79555303D01*
X184134358Y-79443001D01*
X184138735Y-79433527D01*
X184177440Y-79304107D01*
X184178887Y-79296259D01*
X184178897Y-79296128D01*
X184179000Y-79293365D01*
X184179000Y-78975548D01*
X184175362Y-78965552D01*
X184170075Y-78962500D01*
X183938048Y-78962500D01*
X183928052Y-78966138D01*
X183925000Y-78971425D01*
X182598499Y-78971425D01*
X182596362Y-78965552D01*
X182591075Y-78962500D01*
X182359048Y-78962500D01*
X182349052Y-78966138D01*
X182346000Y-78971425D01*
X180808243Y-78971425D01*
X180252686Y-78415868D01*
X180242845Y-78403683D01*
X180242716Y-78403483D01*
X180234695Y-78391060D01*
X180205915Y-78368372D01*
X180199402Y-78362584D01*
X180196180Y-78359362D01*
X180193706Y-78357594D01*
X180193700Y-78357589D01*
X180179480Y-78347428D01*
X180176693Y-78345335D01*
X180143463Y-78319139D01*
X180126213Y-78299745D01*
X180116677Y-78284214D01*
X180059786Y-78191558D01*
X180058112Y-78189542D01*
X180058108Y-78189536D01*
X180036288Y-78163255D01*
X180012791Y-78134952D01*
X179906607Y-78038838D01*
X179896920Y-78032304D01*
X179847791Y-77999166D01*
X179847787Y-77999164D01*
X179845611Y-77997696D01*
X179775591Y-77963772D01*
X179719079Y-77936392D01*
X179719074Y-77936390D01*
X179716719Y-77935249D01*
X179646631Y-77912881D01*
X179568679Y-77899766D01*
X179506803Y-77889356D01*
X179506797Y-77889355D01*
X179505393Y-77889119D01*
X179465516Y-77885542D01*
X179464074Y-77885524D01*
X179464067Y-77885524D01*
X179459448Y-77885468D01*
X179453174Y-77885391D01*
X179451750Y-77885484D01*
X179451739Y-77885484D01*
X179419893Y-77887558D01*
X179413214Y-77887993D01*
X179405352Y-77889119D01*
X179400827Y-77889767D01*
X179390336Y-77890514D01*
X179019869Y-77890514D01*
X179007590Y-77889488D01*
X179006808Y-77889356D01*
X179006782Y-77889353D01*
X179005393Y-77889119D01*
X178965516Y-77885542D01*
X178964074Y-77885524D01*
X178964067Y-77885524D01*
X178959448Y-77885468D01*
X178953174Y-77885391D01*
X178951750Y-77885484D01*
X178951739Y-77885484D01*
X178919893Y-77887558D01*
X178913214Y-77887993D01*
X178860271Y-77895575D01*
X178774039Y-77907924D01*
X178774034Y-77907925D01*
X178771437Y-77908297D01*
X178700822Y-77928946D01*
X178570443Y-77988226D01*
X178508462Y-78027864D01*
X178506473Y-78029578D01*
X178401952Y-78119638D01*
X178401949Y-78119641D01*
X178399961Y-78121354D01*
X178351596Y-78176796D01*
X178342028Y-78191558D01*
X178312736Y-78236749D01*
X178272336Y-78267248D01*
X178250639Y-78270500D01*
X175149656Y-78270500D01*
X175102090Y-78253187D01*
X175086594Y-78235219D01*
X175061165Y-78193804D01*
X175061161Y-78193798D01*
X175059786Y-78191558D01*
X175058112Y-78189542D01*
X175058108Y-78189536D01*
X175036288Y-78163255D01*
X175012791Y-78134952D01*
X174906607Y-78038838D01*
X174896920Y-78032304D01*
X174847791Y-77999166D01*
X174847787Y-77999164D01*
X174845611Y-77997696D01*
X174775591Y-77963772D01*
X174719079Y-77936392D01*
X174719074Y-77936390D01*
X174716719Y-77935249D01*
X174646631Y-77912881D01*
X174568679Y-77899766D01*
X174506803Y-77889356D01*
X174506797Y-77889355D01*
X174505393Y-77889119D01*
X174465516Y-77885542D01*
X174464074Y-77885524D01*
X174464067Y-77885524D01*
X174459448Y-77885468D01*
X174453174Y-77885391D01*
X174451750Y-77885484D01*
X174451739Y-77885484D01*
X174419893Y-77887558D01*
X174413214Y-77887993D01*
X174405352Y-77889119D01*
X174400827Y-77889767D01*
X174390336Y-77890514D01*
X174019869Y-77890514D01*
X174007590Y-77889488D01*
X174006808Y-77889356D01*
X174006782Y-77889353D01*
X174005393Y-77889119D01*
X173965516Y-77885542D01*
X173964074Y-77885524D01*
X173964067Y-77885524D01*
X173959448Y-77885468D01*
X173953174Y-77885391D01*
X173951750Y-77885484D01*
X173951739Y-77885484D01*
X173919893Y-77887558D01*
X173913214Y-77887993D01*
X173860271Y-77895575D01*
X173774039Y-77907924D01*
X173774034Y-77907925D01*
X173771437Y-77908297D01*
X173700822Y-77928946D01*
X173570443Y-77988226D01*
X173508462Y-78027864D01*
X173506473Y-78029578D01*
X173401952Y-78119638D01*
X173401949Y-78119641D01*
X173399961Y-78121354D01*
X173351596Y-78176796D01*
X173342028Y-78191558D01*
X173312736Y-78236749D01*
X173272336Y-78267248D01*
X173250639Y-78270500D01*
X170149656Y-78270500D01*
X170102090Y-78253187D01*
X170086594Y-78235219D01*
X170061165Y-78193804D01*
X170061161Y-78193798D01*
X170059786Y-78191558D01*
X170058112Y-78189542D01*
X170058108Y-78189536D01*
X170036288Y-78163255D01*
X170012791Y-78134952D01*
X169906607Y-78038838D01*
X169896920Y-78032304D01*
X169847791Y-77999166D01*
X169847787Y-77999164D01*
X169845611Y-77997696D01*
X169775591Y-77963772D01*
X169719079Y-77936392D01*
X169719074Y-77936390D01*
X169716719Y-77935249D01*
X169646631Y-77912881D01*
X169568679Y-77899766D01*
X169506803Y-77889356D01*
X169506797Y-77889355D01*
X169505393Y-77889119D01*
X169465516Y-77885542D01*
X169464074Y-77885524D01*
X169464067Y-77885524D01*
X169459448Y-77885468D01*
X169453174Y-77885391D01*
X169451750Y-77885484D01*
X169451739Y-77885484D01*
X169419893Y-77887558D01*
X169413214Y-77887993D01*
X169405352Y-77889119D01*
X169400827Y-77889767D01*
X169390336Y-77890514D01*
X169019869Y-77890514D01*
X169007590Y-77889488D01*
X169006808Y-77889356D01*
X169006782Y-77889353D01*
X169005393Y-77889119D01*
X168965516Y-77885542D01*
X168964074Y-77885524D01*
X168964067Y-77885524D01*
X168959448Y-77885468D01*
X168953174Y-77885391D01*
X168951750Y-77885484D01*
X168951739Y-77885484D01*
X168919893Y-77887558D01*
X168913214Y-77887993D01*
X168860271Y-77895575D01*
X168774039Y-77907924D01*
X168774034Y-77907925D01*
X168771437Y-77908297D01*
X168700822Y-77928946D01*
X168570443Y-77988226D01*
X168508462Y-78027864D01*
X168506473Y-78029578D01*
X168401952Y-78119638D01*
X168401949Y-78119641D01*
X168399961Y-78121354D01*
X168351596Y-78176796D01*
X168342028Y-78191558D01*
X168276519Y-78292626D01*
X168273696Y-78296981D01*
X168242836Y-78363769D01*
X168242085Y-78366279D01*
X168242085Y-78366280D01*
X168228921Y-78410300D01*
X168201800Y-78500987D01*
X168190926Y-78573750D01*
X168190910Y-78576379D01*
X168190140Y-78702476D01*
X168190051Y-78716971D01*
X168190375Y-78719338D01*
X168190514Y-78723616D01*
X168190514Y-79150000D01*
X168191224Y-79153569D01*
X168191224Y-79153570D01*
X168208844Y-79242155D01*
X168208845Y-79242158D01*
X168210266Y-79249301D01*
X168214313Y-79255358D01*
X168214314Y-79255360D01*
X168216671Y-79258887D01*
X168228703Y-79308055D01*
X168216671Y-79341113D01*
X168210266Y-79350699D01*
X168208845Y-79357842D01*
X168208844Y-79357845D01*
X168192342Y-79440808D01*
X168190514Y-79450000D01*
X168190514Y-79940898D01*
X168190513Y-79941350D01*
X168190260Y-79982843D01*
X168190051Y-80016971D01*
X168190408Y-80019577D01*
X168199677Y-80087245D01*
X168199678Y-80087252D01*
X168200036Y-80089862D01*
X168239393Y-80227571D01*
X168246311Y-80243037D01*
X168268359Y-80292328D01*
X168268361Y-80292331D01*
X168269434Y-80294730D01*
X168270841Y-80296960D01*
X168308090Y-80355997D01*
X168318261Y-80401779D01*
X168318287Y-80401778D01*
X168318527Y-80407890D01*
X168318527Y-80407891D01*
X168320443Y-80456653D01*
X168320500Y-80459558D01*
X168320500Y-81072284D01*
X168303187Y-81119850D01*
X168289996Y-81132151D01*
X168288391Y-81133317D01*
X168283204Y-81135960D01*
X168195960Y-81223204D01*
X168193319Y-81228387D01*
X168193317Y-81228390D01*
X168142590Y-81327948D01*
X168139946Y-81333138D01*
X168125500Y-81424347D01*
X159660816Y-81424347D01*
X159676799Y-81380434D01*
X159720636Y-81355124D01*
X159733486Y-81354000D01*
X166101000Y-81354000D01*
X166106642Y-81353799D01*
X166118460Y-81353377D01*
X166118484Y-81353376D01*
X166119120Y-81353353D01*
X166119773Y-81353306D01*
X166119797Y-81353305D01*
X166154979Y-81350788D01*
X166190135Y-81348274D01*
X166243576Y-81338632D01*
X166245481Y-81338073D01*
X166245488Y-81338071D01*
X166377316Y-81299362D01*
X166377317Y-81299362D01*
X166379853Y-81298617D01*
X166445614Y-81268585D01*
X166565098Y-81191798D01*
X166619736Y-81144454D01*
X166712746Y-81037115D01*
X166751833Y-80976295D01*
X166810834Y-80847100D01*
X166831202Y-80777733D01*
X166851415Y-80637148D01*
X166853565Y-80607087D01*
X166853907Y-80602305D01*
X166853907Y-80602296D01*
X166854000Y-80601000D01*
X166854000Y-79898921D01*
X166853354Y-79880820D01*
X166848286Y-79809883D01*
X166838654Y-79756462D01*
X166832494Y-79735470D01*
X166829500Y-79714634D01*
X166829500Y-79588774D01*
X166827153Y-79572382D01*
X166814948Y-79487164D01*
X166814201Y-79481948D01*
X166754388Y-79350395D01*
X166686838Y-79272000D01*
X166663496Y-79244910D01*
X166663495Y-79244909D01*
X166660056Y-79240918D01*
X166655637Y-79238054D01*
X166655635Y-79238052D01*
X166615483Y-79212027D01*
X166538790Y-79162317D01*
X166533741Y-79160807D01*
X166533739Y-79160806D01*
X166447624Y-79135052D01*
X166400337Y-79120910D01*
X166396343Y-79120613D01*
X166396342Y-79120613D01*
X166396170Y-79120600D01*
X166396160Y-79120600D01*
X166394819Y-79120500D01*
X165038774Y-79120500D01*
X165036179Y-79120872D01*
X165036174Y-79120872D01*
X164938602Y-79134846D01*
X164931948Y-79135799D01*
X164924697Y-79139096D01*
X164894060Y-79145730D01*
X159760986Y-79144920D01*
X159729138Y-79144915D01*
X159681575Y-79127595D01*
X159656572Y-79085351D01*
X159650721Y-79055934D01*
X159639734Y-79000699D01*
X159583484Y-78916516D01*
X159499301Y-78860266D01*
X159484550Y-78857332D01*
X159403570Y-78841224D01*
X159403569Y-78841224D01*
X159400000Y-78840514D01*
X156600000Y-78840514D01*
X156596431Y-78841224D01*
X156596430Y-78841224D01*
X156515450Y-78857332D01*
X156500699Y-78860266D01*
X156416516Y-78916516D01*
X156360266Y-79000699D01*
X156358844Y-79007848D01*
X156343536Y-79084807D01*
X156317276Y-79128081D01*
X156270946Y-79144370D01*
X155366720Y-79144227D01*
X153628947Y-79143953D01*
X153581384Y-79126633D01*
X153556381Y-79084390D01*
X153541156Y-79007848D01*
X153539734Y-79000699D01*
X153483484Y-78916516D01*
X153399301Y-78860266D01*
X153384550Y-78857332D01*
X153303570Y-78841224D01*
X153303569Y-78841224D01*
X153300000Y-78840514D01*
X150500000Y-78840514D01*
X150496431Y-78841224D01*
X150496430Y-78841224D01*
X150415450Y-78857332D01*
X150400699Y-78860266D01*
X150316516Y-78916516D01*
X150260266Y-79000699D01*
X150240514Y-79100000D01*
X149790498Y-79100000D01*
X149877269Y-79038107D01*
X149879421Y-79035963D01*
X150032884Y-78883035D01*
X150032887Y-78883032D01*
X150035039Y-78880887D01*
X150050879Y-78858844D01*
X150163240Y-78702476D01*
X150165012Y-78700010D01*
X150228701Y-78571146D01*
X150262350Y-78503062D01*
X150262351Y-78503059D01*
X150263698Y-78500334D01*
X150291053Y-78410300D01*
X150327565Y-78290123D01*
X150328447Y-78287220D01*
X150331077Y-78267248D01*
X150357262Y-78068348D01*
X150357262Y-78068343D01*
X150357519Y-78066394D01*
X150359142Y-78000000D01*
X150358953Y-77997696D01*
X150341141Y-77781042D01*
X150341140Y-77781038D01*
X150340892Y-77778017D01*
X150333439Y-77748343D01*
X150307588Y-77645430D01*
X150286631Y-77561995D01*
X150259675Y-77500000D01*
X151914925Y-77500000D01*
X151915330Y-77503853D01*
X151929377Y-77637500D01*
X151933173Y-77673622D01*
X151987121Y-77839656D01*
X152074410Y-77990845D01*
X152077001Y-77993722D01*
X152077002Y-77993724D01*
X152105179Y-78025017D01*
X152191226Y-78120582D01*
X152194363Y-78122861D01*
X152194364Y-78122862D01*
X152213788Y-78136974D01*
X152332462Y-78223196D01*
X152336004Y-78224773D01*
X152488403Y-78292626D01*
X152488406Y-78292627D01*
X152491948Y-78294204D01*
X152495740Y-78295010D01*
X152495743Y-78295011D01*
X152658914Y-78329693D01*
X152662711Y-78330500D01*
X152837289Y-78330500D01*
X152841086Y-78329693D01*
X153004257Y-78295011D01*
X153004260Y-78295010D01*
X153008052Y-78294204D01*
X153011594Y-78292627D01*
X153011597Y-78292626D01*
X153163996Y-78224773D01*
X153167538Y-78223196D01*
X153286213Y-78136974D01*
X153305636Y-78122862D01*
X153305637Y-78122861D01*
X153308774Y-78120582D01*
X153394821Y-78025017D01*
X153422998Y-77993724D01*
X153422999Y-77993722D01*
X153425590Y-77990845D01*
X153512879Y-77839656D01*
X153566827Y-77673622D01*
X153570624Y-77637500D01*
X153584670Y-77503853D01*
X153585075Y-77500000D01*
X153571068Y-77366727D01*
X153567232Y-77330229D01*
X153567232Y-77330227D01*
X153566827Y-77326378D01*
X153560412Y-77306635D01*
X182346000Y-77306635D01*
X182346000Y-77624452D01*
X182349638Y-77634448D01*
X182354925Y-77637500D01*
X182586952Y-77637500D01*
X182596948Y-77633862D01*
X182600000Y-77628575D01*
X182600000Y-76950418D01*
X183925000Y-76950418D01*
X183925000Y-77624452D01*
X183928638Y-77634448D01*
X183933925Y-77637500D01*
X184165952Y-77637500D01*
X184175948Y-77633862D01*
X184179000Y-77628575D01*
X184179000Y-77341438D01*
X184178627Y-77336207D01*
X184164464Y-77237308D01*
X184161535Y-77227290D01*
X184106144Y-77105465D01*
X184100521Y-77096673D01*
X184013164Y-76995290D01*
X184005303Y-76988432D01*
X183935949Y-76943480D01*
X183928411Y-76941747D01*
X183925000Y-76950418D01*
X182600000Y-76950418D01*
X182600000Y-76948022D01*
X182596624Y-76938748D01*
X182589797Y-76939613D01*
X182580464Y-76943857D01*
X182571676Y-76949477D01*
X182470290Y-77036836D01*
X182463432Y-77044697D01*
X182390642Y-77156999D01*
X182386265Y-77166473D01*
X182347560Y-77295893D01*
X182346113Y-77303741D01*
X182346103Y-77303872D01*
X182346000Y-77306635D01*
X153560412Y-77306635D01*
X153512879Y-77160344D01*
X153425590Y-77009155D01*
X153409170Y-76990918D01*
X153311367Y-76882298D01*
X153308774Y-76879418D01*
X153297064Y-76870910D01*
X153170675Y-76779083D01*
X153170674Y-76779082D01*
X153167538Y-76776804D01*
X153103872Y-76748458D01*
X153011597Y-76707374D01*
X153011594Y-76707373D01*
X153008052Y-76705796D01*
X153004260Y-76704990D01*
X153004257Y-76704989D01*
X152841086Y-76670307D01*
X152841085Y-76670307D01*
X152837289Y-76669500D01*
X152662711Y-76669500D01*
X152658915Y-76670307D01*
X152658914Y-76670307D01*
X152495743Y-76704989D01*
X152495740Y-76704990D01*
X152491948Y-76705796D01*
X152488406Y-76707373D01*
X152488403Y-76707374D01*
X152371809Y-76759286D01*
X152332463Y-76776804D01*
X152191226Y-76879418D01*
X152188633Y-76882298D01*
X152090831Y-76990918D01*
X152074410Y-77009155D01*
X151987121Y-77160344D01*
X151933173Y-77326378D01*
X151932768Y-77330227D01*
X151932768Y-77330229D01*
X151928932Y-77366727D01*
X151914925Y-77500000D01*
X150259675Y-77500000D01*
X150197817Y-77357736D01*
X150076834Y-77170726D01*
X149926933Y-77005986D01*
X149907854Y-76990918D01*
X149896323Y-76981812D01*
X149752138Y-76867942D01*
X149696454Y-76837203D01*
X149559806Y-76761768D01*
X149559801Y-76761766D01*
X149557144Y-76760299D01*
X149435551Y-76717241D01*
X149350043Y-76686961D01*
X149350039Y-76686960D01*
X149347187Y-76685950D01*
X149127907Y-76646890D01*
X148984501Y-76645138D01*
X148908229Y-76644206D01*
X148908228Y-76644206D01*
X148905191Y-76644169D01*
X148810201Y-76658704D01*
X148688026Y-76677399D01*
X148688022Y-76677400D01*
X148685022Y-76677859D01*
X148682133Y-76678803D01*
X148682130Y-76678804D01*
X148476195Y-76746114D01*
X148476191Y-76746116D01*
X148473311Y-76747057D01*
X148275745Y-76849903D01*
X148273324Y-76851721D01*
X148273322Y-76851722D01*
X148239470Y-76877139D01*
X148097630Y-76983636D01*
X148095533Y-76985830D01*
X148095530Y-76985833D01*
X147945844Y-77142470D01*
X147945840Y-77142474D01*
X147943748Y-77144664D01*
X147942038Y-77147171D01*
X147942037Y-77147172D01*
X147925970Y-77170726D01*
X147818233Y-77328663D01*
X147816954Y-77331418D01*
X147816953Y-77331420D01*
X147793612Y-77381704D01*
X147724455Y-77530691D01*
X147664932Y-77745322D01*
X147641264Y-77966793D01*
X147256375Y-77966793D01*
X147259135Y-77928209D01*
X147271394Y-77756799D01*
X147272896Y-77746350D01*
X147323601Y-77513263D01*
X147326576Y-77503133D01*
X147385183Y-77346000D01*
X147409933Y-77279644D01*
X147414317Y-77270042D01*
X147437662Y-77227290D01*
X147528635Y-77060686D01*
X147534342Y-77051805D01*
X147677290Y-76860849D01*
X147684204Y-76852870D01*
X147852870Y-76684204D01*
X147860849Y-76677290D01*
X148051805Y-76534342D01*
X148060687Y-76528634D01*
X148108385Y-76502589D01*
X148270045Y-76414316D01*
X148279644Y-76409933D01*
X148391390Y-76368253D01*
X148503133Y-76326576D01*
X148513263Y-76323601D01*
X148629806Y-76298249D01*
X148746353Y-76272896D01*
X148756799Y-76271394D01*
X148971659Y-76256027D01*
X148991372Y-76257260D01*
X149000000Y-76258976D01*
X149007149Y-76257554D01*
X149017868Y-76255422D01*
X149032304Y-76254000D01*
X199967696Y-76254000D01*
X199982132Y-76255422D01*
G37*
G04 #@! TD.AperFunction*
G04 #@! TA.AperFunction,Conductor*
G36*
X175543039Y-88919685D02*
G01*
X175588794Y-88972489D01*
X175600000Y-89024000D01*
X175600000Y-90000000D01*
X173600000Y-90000000D01*
X173600000Y-89024000D01*
X173619685Y-88956961D01*
X173672489Y-88911206D01*
X173724000Y-88900000D01*
X175476000Y-88900000D01*
X175543039Y-88919685D01*
G37*
G04 #@! TD.AperFunction*
M02*
